STARTFONT 2.3
FONT -FontForge-Lobster-Book-R-Normal--24-240-72-72-P-140-ISO10646-1
SIZE 24 72 72  4
FONTBOUNDINGBOX 48 37 -11 -12
COMMENT "Generated by fontforge, http://fontforge.sourceforge.net"
COMMENT "Copyright 2010 The Lobster Project Authors (https://github.com/impallari/The-Lobster-Font), with Reserved Font Name "Lobster"."
STARTPROPERTIES 41
FOUNDRY "FontForge"
FAMILY_NAME "Lobster"
WEIGHT_NAME "Book"
SLANT "R"
SETWIDTH_NAME "Normal"
ADD_STYLE_NAME ""
PIXEL_SIZE 24
POINT_SIZE 240
RESOLUTION_X 72
RESOLUTION_Y 72
SPACING "P"
AVERAGE_WIDTH 140
CHARSET_REGISTRY "ISO10646"
CHARSET_ENCODING "1"
FONTNAME_REGISTRY ""
CHARSET_COLLECTIONS "ISO8859-2 ISO8859-5 ISO8859-9 ISO8859-4 ISO10646-1"
BITS_PER_PIXEL 4
FONT_NAME "Lobster-Regular"
FACE_NAME "Lobster Regular"
COPYRIGHT "Copyright 2010 The Lobster Project Authors (https://github.com/impallari/The-Lobster-Font), with Reserved Font Name "Lobster"."
FONT_VERSION "2.100"
FONT_ASCENT 19
FONT_DESCENT 5
UNDERLINE_POSITION -2
UNDERLINE_THICKNESS 2
X_HEIGHT 12
CAP_HEIGHT 17
DEFAULT_CHAR 1
RAW_ASCENT 800
RAW_DESCENT 200
NORM_SPACE 5
RELATIVE_WEIGHT 40
RELATIVE_SETWIDTH 50
SUPERSCRIPT_X 0
SUPERSCRIPT_Y 8
SUPERSCRIPT_SIZE 14
SUBSCRIPT_X 0
SUBSCRIPT_Y 1
SUBSCRIPT_SIZE 14
AVG_LOWERCASE_WIDTH 112
AVG_UPPERCASE_WIDTH 148
ENDPROPERTIES
CHARS 1148
STARTCHAR NULL.dup1
ENCODING 0
SWIDTH 600 0
DWIDTH 14 0
BBX 1 1 0 0
BITMAP
00
ENDCHAR
STARTCHAR nonmarkingreturn
ENCODING 13
SWIDTH 600 0
DWIDTH 14 0
BBX 1 1 0 0
BITMAP
00
ENDCHAR
STARTCHAR space
ENCODING 32
SWIDTH 217 0
DWIDTH 5 0
BBX 1 1 0 0
BITMAP
00
ENDCHAR
STARTCHAR exclam
ENCODING 33
SWIDTH 257 0
DWIDTH 6 0
BBX 8 18 0 0
BITMAP
00004798
0000EFF8
0002FFF3
0004FFE0
0006FFA0
0008FF60
000BFF10
000DFC00
001FF800
003FF400
005FE000
007FA000
00583000
00000000
07EB1000
2FFF7000
2FFF7000
07EB1000
ENDCHAR
STARTCHAR quotedbl
ENCODING 34
SWIDTH 353 0
DWIDTH 8 0
BBX 8 5 2 13
BITMAP
07FE1AFB
0CF71FF3
3FD06FA0
8F60CF30
DD02FA00
ENDCHAR
STARTCHAR numbersign
ENCODING 35
SWIDTH 659 0
DWIDTH 16 0
BBX 14 16 1 1
BITMAP
00000770008600
00001FB003F900
00003F8006F600
00006F5008F300
00009F200BF000
04FFFFFFFFFFF2
0378FC779FB760
0004F8006F5000
0007F5009F3000
022AF422CF2200
5FFFFFFFFFFF10
256FB557FA5400
005F7007F40000
008F300AF10000
00BF000ED00000
00660007500000
ENDCHAR
STARTCHAR dollar
ENCODING 36
SWIDTH 548 0
DWIDTH 13 0
BBX 13 24 0 -3
BITMAP
000000000E4000
000000002F1000
000000005D0000
000004ADFFA300
00008FE6D9DF40
0004FF81F29FA0
0009FF65E0CFB0
000AFFA8A3ED30
0008FFFE700000
0002EFFF400000
00006FFFD10000
000009FFFC1000
000000DFFF9000
000000EFFFF200
07EE62F6FFF700
4FFE86D0DFF900
9FF20990AFF700
9FD00D60CFF200
5FF31F26FF9000
0AFEBFCFF90000
005BFFDA400000
0000C600000000
0001F300000000
0004E000000000
ENDCHAR
STARTCHAR percent
ENCODING 37
SWIDTH 796 0
DWIDTH 19 0
BBX 18 18 1 0
BITMAP
0019EE9000004F7000
02DFACF60000CD1000
0BF906FB0005F60000
3FF205FC000DC00000
8FC006FC007F400000
AF8009FA01EB000000
CF700DF509F3000000
BF704FD02F90000000
8FB4DF40AE1019EE90
1DFFD504F702DFACF7
0033000CD10BF905FB
0000005F603FF105FD
000000DC008FB006FC
000007F400AF8009F9
00001EB000BF700EF4
00009F3000AF706FC0
0002F900006FD8FD20
000AE2000009EE9200
ENDCHAR
STARTCHAR ampersand
ENCODING 38
SWIDTH 682 0
DWIDTH 16 0
BBX 16 18 0 0
BITMAP
0000018DED810000
00002DFE8AFC0000
0000DFF300EF4000
0005FF9001FF5000
0008FF6008FF2000
0008FF7002730000
0004FFD000000000
00009FFC30000014
0006DFE7100247EC
00AFFE301AFFFFFA
08FFF600BFFFFFD2
2FFFD000FE9BB500
7FFF9000820B6000
9FFF8000004F2000
9FFFC00003E90000
5FFFF9348FC10000
0BFFFFFFFB100000
006CEFDA40000000
ENDCHAR
STARTCHAR quotesingle
ENCODING 39
SWIDTH 196 0
DWIDTH 5 0
BBX 5 6 2 12
BITMAP
07FE10
0CF800
2FE100
6F8000
BF1000
750000
ENDCHAR
STARTCHAR parenleft
ENCODING 40
SWIDTH 437 0
DWIDTH 10 0
BBX 10 25 3 -6
BITMAP
0000000001
00000002B9
0000006F90
000007F900
00006FB000
0003FF2000
001DF90000
007FF20000
01EFB00000
06FF600000
0BFF100000
0FFD000000
3FFA000000
5FF8000000
6FF7000000
6FF6000000
4FF5000000
3FF6000000
0EF7000000
0AFA000000
05FC000000
00DF200000
005F700000
0009D00000
0000600000
ENDCHAR
STARTCHAR parenright
ENCODING 41
SWIDTH 413 0
DWIDTH 10 0
BBX 10 25 -2 -6
BITMAP
0000010000
00000C7000
000007F400
000001FC00
000000CF40
0000008FA0
0000006FE0
0000004FF3
0000004FF5
0000003FF7
0000004FF7
0000005FF7
0000007FF5
000000AFF3
000000DFE0
000002FFA0
000007FF40
00000CFB00
00004FF400
0000CF9000
0006FC0000
003ED20000
02DC100000
4E91000000
4300000000
ENDCHAR
STARTCHAR asterisk
ENCODING 42
SWIDTH 515 0
DWIDTH 12 0
BBX 9 9 2 9
BITMAP
0009F50000
240DF30000
AF6BF4DE20
7FFDEEFC30
03AFFD5000
AFFEEEFB00
AE7AF3DF10
000DF31400
000ED10000
ENDCHAR
STARTCHAR plus
ENCODING 43
SWIDTH 442 0
DWIDTH 11 0
BBX 10 9 0 3
BITMAP
00003FB000
00006F7000
0000AF4000
4DDDFFDDD7
8FFFFFFFF5
0005F90000
0008F50000
000BF20000
0007700000
ENDCHAR
STARTCHAR comma
ENCODING 44
SWIDTH 216 0
DWIDTH 5 0
BBX 5 7 0 -3
BITMAP
0AE800
5FFF10
4FFF00
08FA00
02F200
0C6000
250000
ENDCHAR
STARTCHAR hyphen
ENCODING 45
SWIDTH 290 0
DWIDTH 7 0
BBX 6 3 0 5
BITMAP
022221
5FFFF8
255551
ENDCHAR
STARTCHAR period
ENCODING 46
SWIDTH 263 0
DWIDTH 6 0
BBX 5 4 0 0
BITMAP
08EB10
2FFF70
2FFF70
08EB10
ENDCHAR
STARTCHAR slash
ENCODING 47
SWIDTH 311 0
DWIDTH 7 0
BBX 7 24 0 -6
BITMAP
00000BE0
00000EB0
00003F80
00006F50
00009F20
0000CE00
0001FA00
0004F700
0007F400
000AF100
000DD000
001FA000
004F6000
008F3000
00BF0000
00EC0000
02F90000
05F50000
09F20000
0CE00000
0FB00000
3F800000
6F500000
9F100000
ENDCHAR
STARTCHAR zero
ENCODING 48
SWIDTH 546 0
DWIDTH 13 0
BBX 14 18 0 0
BITMAP
0000029DFEA200
00006FFD8DFE20
0006FFD105FFA0
003FFF5001FFF1
00BFFD0000FFF3
03FFF60000FFF4
09FFF20001FFF3
0EFFC00002FFF2
2FFF900004FFF1
5FFF600006FFC0
6FFF400009FF90
7FFF30000DFF50
7FFF20003FFE00
6FFF20009FF800
3FFF3001FFD100
0DFF700AFF3000
04FFE8BFF50000
004BEFD9200000
ENDCHAR
STARTCHAR one
ENCODING 49
SWIDTH 317 0
DWIDTH 8 0
BBX 8 18 0 0
BITMAP
00000058
01358DF7
07FFFFF4
0359FFF1
0009FFC0
000CFF90
001FFF60
004FFF30
007FFE00
00AFFB00
00DFF800
01FFF500
05FFF200
08FFE000
0BFFA000
0EFF7000
3FFF4000
6FFF1000
ENDCHAR
STARTCHAR two
ENCODING 50
SWIDTH 492 0
DWIDTH 12 0
BBX 13 18 -1 0
BITMAP
000029DFEB4000
0004EE89FFF500
000EF400AFFE00
004FF1005FFF40
005FF4004FFF40
002FFC107FFF20
00048400CFFB00
00000005FFE200
0000002EFE4000
000002DFD30000
00002DFB100000
0002DF80000000
002EF500000000
01DF5000000100
09FD7863117900
1FFFFFFFFFFA00
4FFFFFFFFFF500
2942369DFD6000
ENDCHAR
STARTCHAR three
ENCODING 51
SWIDTH 514 0
DWIDTH 12 0
BBX 12 18 0 0
BITMAP
00004AEFDA20
0007FE98EFE3
003FF6005FFB
006FF3002FFE
006FF7005FFC
001AD700BFF7
00000007FFB0
0000019FFA10
000008FFE600
0000005FFFA0
00110009FFF5
1AFF8003FFF9
8FFC5001FFF9
CFF10002FFF6
CFD00006FFE1
AFF2002EFF50
3EFD88EFE500
028CEEC82000
ENDCHAR
STARTCHAR four
ENCODING 52
SWIDTH 476 0
DWIDTH 11 0
BBX 12 18 0 0
BITMAP
00000CE90000
00000DFF5000
00000DFF6000
00001FFF3000
00005FFA0640
0000BFE23F70
0004FF508F40
001DF700DF10
009F8003FD00
05F70008FA53
2EDCFECEFEF6
CFFFFFFFFFF3
87557AFFFD50
000000EFC000
000004FF9000
00000AFF5000
00001EFF2000
00005FFE0000
ENDCHAR
STARTCHAR five
ENCODING 53
SWIDTH 517 0
DWIDTH 12 0
BBX 12 18 0 0
BITMAP
000142101248
0006FFFFFFFF
0009FFFFFFFB
000CF77ACC91
001FE0000000
004FB0000000
007F80120000
00AFCEFFE800
00EC759FFFA0
00400008FFF3
00000002FFF7
03BEA000FFF8
2EFE8101FFF7
7FF50003FFF4
9FF10008FFD0
7FF4003EFF40
1EFEAAFFE500
029DEEC72000
ENDCHAR
STARTCHAR six
ENCODING 54
SWIDTH 500 0
DWIDTH 12 0
BBX 13 18 0 0
BITMAP
0000028DFEA200
00006EFD8BFD00
0006FFC100FF30
004FFE2004FF10
00DFF80005B500
05FFF100000000
0BFFB001100000
1FFF77EFFC2000
4FFFB959FFD100
7FFF8000BFF600
8FFF20008FF800
9FFE00007FF800
9FFE00009FF600
7FFE0000CFF200
5FFF1002FFA000
1EFF600AFD1000
06FFE8BFD20000
004BEEC7100000
ENDCHAR
STARTCHAR seven
ENCODING 55
SWIDTH 464 0
DWIDTH 11 0
BBX 12 18 1 0
BITMAP
05CED9510264
4FFFFFFFFFF3
8FFFFFFFFF90
88103677FE10
1000000CF500
0000009FB000
000006FE2000
00004FF70000
0002EFC00000
000CFF500000
007FFC000000
02EFF5000000
09FFE0000000
0EFFA0000000
2FFF80000000
2FFF70000000
0EFF90000000
04DE90000000
ENDCHAR
STARTCHAR eight
ENCODING 56
SWIDTH 499 0
DWIDTH 12 0
BBX 12 18 0 0
BITMAP
000029DFEA30
0005FFE89FF4
002FFF200AFD
007FFC0008FF
009FFD000CFC
007FFF504FF5
001EFFE5EF60
0006FFFFD300
0000CFFFE400
006EFBFFFF30
09FF609FFFD1
7FFA000BFFF6
DFF50003FFF9
FFF20000FFF7
EFF40002FFF3
8FF90009FF90
1BFFB8BFF900
006BEFD94000
ENDCHAR
STARTCHAR nine
ENCODING 57
SWIDTH 489 0
DWIDTH 12 0
BBX 12 18 0 0
BITMAP
00005BDFD700
001BFD8CFF80
01CFD101EFF2
09FF5000BFF7
1EFE0000AFFA
4FFC0000BFFC
5FFB0000DFFC
3FFD0004FFFB
0CFF735CEFFA
02DFFFD4FFF8
00034304FFF4
00000008FFE1
0110000DFF90
2EE2004FFF20
9FA000CFF800
9F9009FFB000
4FFACFFA1000
05CEEB500000
ENDCHAR
STARTCHAR colon
ENCODING 58
SWIDTH 267 0
DWIDTH 6 0
BBX 5 10 1 1
BITMAP
03DE40
0BFFD0
0BFFE0
03DE50
000000
000000
5ED300
EFFA00
EFFA00
5ED300
ENDCHAR
STARTCHAR semicolon
ENCODING 59
SWIDTH 276 0
DWIDTH 7 0
BBX 5 13 1 -3
BITMAP
02CE50
0AFFE0
0AFFE0
02CE50
000000
000000
4DD300
CFF900
BFF800
2DF300
09A000
4C1000
510000
ENDCHAR
STARTCHAR less
ENCODING 60
SWIDTH 358 0
DWIDTH 9 0
BBX 9 9 0 2
BITMAP
0000000440
000004CF50
0004CFF810
04CFF92000
9FFA200000
6EFC400000
019FFB4000
0003BFF300
000005C000
ENDCHAR
STARTCHAR equal
ENCODING 61
SWIDTH 515 0
DWIDTH 12 0
BBX 12 8 0 2
BITMAP
009DDDDDDDD2
00DFFFFFFFE0
01FFFFFFFFC0
000000000000
000000000000
09DDDDDDDD10
0EFFFFFFFE00
2FFFFFFFFB00
ENDCHAR
STARTCHAR greater
ENCODING 62
SWIDTH 362 0
DWIDTH 9 0
BBX 9 9 0 2
BITMAP
0360000000
08FC400000
03BFFA2000
0004BFF810
00001CFF50
0018EFD500
17EFD50000
AFD6000000
A600000000
ENDCHAR
STARTCHAR question
ENCODING 63
SWIDTH 441 0
DWIDTH 11 0
BBX 10 18 1 0
BITMAP
005BEED710
0AFB8DFFC0
6FC002FFF4
BFA000FFF5
BFE201FFF2
3DD508FF70
00004FF900
0003EF6000
001DE40000
00AF400000
02F9000000
06F3000000
0251000000
0000000000
4DD4000000
CFFD000000
CFFC000000
3DD4000000
ENDCHAR
STARTCHAR at
ENCODING 64
SWIDTH 688 0
DWIDTH 17 0
BBX 17 18 -1 -3
BITMAP
000000000121000000
00000028DFFFEA2000
000007FFC8569FF500
0001AFE5000004FE10
000AFE30010000BF60
006FF307EFBF909F80
01EF709FE6DF509F80
07FD04FF30EF10BF60
0CF70BF904FB02FF10
1FF30FF509F709F900
2FF10FF75EF88FC100
3FF00AFFB3FFFA1000
2FF000430024200000
0EF400000008100000
0AFB0000009F300000
02DFB5236DFC000000
0019FFFFFD81000000
000013442000000000
ENDCHAR
STARTCHAR A
ENCODING 65
SWIDTH 668 0
DWIDTH 16 0
BBX 17 21 0 -3
BITMAP
0000000000006CEE60
00000000002CDFFF60
0000000002EA6FFF20
000000002EC09FFE00
00000001DE20CFFB00
0000000AF700FFF800
0000126FD003FFF500
03AEFFFFD847FFF100
4FFB6BFD58DFFFD000
BFD02FF7000DFFA000
9FE09FF1001FFF7000
0312FFA0004FFF3000
0008FF50007FFF1000
000EFF1000AFFC0000
004FFB0000DFF90000
009FF70001FFF60000
00CFF30004FFF20000
00EFF10008FFE00000
00EFE0000000000000
008FE0000000000000
000461000000000000
ENDCHAR
STARTCHAR B
ENCODING 66
SWIDTH 641 0
DWIDTH 15 0
BBX 15 18 0 0
BITMAP
000015ADEED92000
0006EFC878DFF500
01BFC335710BFD00
0BFB07FFE006FF10
5FF20AFFA008FD00
AFB00EFF702EF600
AF802FFF57EE6000
4F905FFFFFFFB200
01308FFD56DFFD00
0000CFF9003FFF50
0000EFF6000DFF70
0003FFF3000CFF70
0006FFF0000EFF60
0009FFC0001FFF20
000DFF90007FFC00
001FFF6A45EFF500
004FFF3FFFFF8000
007FFE07EFC60000
ENDCHAR
STARTCHAR C
ENCODING 67
SWIDTH 497 0
DWIDTH 12 0
BBX 13 18 0 0
BITMAP
0000029DFEB400
00006FFFB7CF50
0005FFF8003FB0
002EFFC0003FC0
00BFFF4000BF90
03FFFC00006810
08FFF700000000
0DFFF200000000
1FFFD000000000
4FFFA000000000
6FFF8000000000
7FFF7000000000
8FFF7000000000
7FFF9000000120
5FFFD000002C20
1EFFFB4349E600
06FFFFFFFE5000
004AEFEB710000
ENDCHAR
STARTCHAR D
ENCODING 68
SWIDTH 663 0
DWIDTH 16 0
BBX 16 18 0 0
BITMAP
000016ADEFDA3000
0007EFC978DFF700
01BFB213501CFF50
0CFA09FFD003FFD0
6FE10CFFA000EFF3
BF901FFF6000DFF6
CF704FFF3000DFF7
9F607FFE0000EFF6
0650AFFB0001FFF5
0000DFF80003FFF3
0002FFF40006FFE0
0005FFF1000BFFB0
0008FFD0001FFF50
000CFF90008FFD00
000FFF6002FFF600
003FFF725DFFB000
006FFFFFFFFD1000
00AFFC4BFE810000
ENDCHAR
STARTCHAR E
ENCODING 69
SWIDTH 459 0
DWIDTH 11 0
BBX 12 18 0 0
BITMAP
0000029DED60
00004EFD8BF6
0001EFD101FB
0008FF7002FB
000CFF400AF6
000CFF500440
0008FFA00000
0001CFF92000
0019EFE61000
01DFFE200000
0BFFF5000000
4FFFC0000000
9FFF70000000
CFFF60000013
CFFF800001B3
8FFFF6348E60
1DFFFFFFE500
029EFEB71000
ENDCHAR
STARTCHAR F
ENCODING 70
SWIDTH 459 0
DWIDTH 11 0
BBX 15 18 0 0
BITMAP
00016ADEFFFFFF60
005EFEFFFFFFFE10
06FB29FFD7ACB400
2FE10CFFA0000000
8FA00FFF70000000
AF803FFF40000000
BF706FFF10000000
7F70AFFFBBB40000
0550DFFFFFF20000
0001FFF600000000
0004FFF300000000
0007FFE000000000
000BFFB000000000
000EFF8000000000
002FFF5000000000
005FFF2000000000
009FFD0000000000
00CFFA0000000000
ENDCHAR
STARTCHAR G
ENCODING 71
SWIDTH 578 0
DWIDTH 14 0
BBX 14 23 0 -5
BITMAP
0000039CEED810
00019FFFB7AFE2
002DFFE4000BF8
00BFFF40000CF9
07FFF800005FF5
0EFFE100002750
4FFFA000000000
7FFF6000001110
8FFF400000EFE0
7FFF300003FFB0
5FFF40000AFF80
1EFF80004FFF40
07FFF637EFFF10
007EFFFC8FFD00
000144209FF900
00000000CFF600
00026611FFF200
007FFFC4FFD000
02FE3158FF7000
05FB001EFE1000
02FE53BFF50000
005DFFFD500000
00003430000000
ENDCHAR
STARTCHAR H
ENCODING 72
SWIDTH 665 0
DWIDTH 16 0
BBX 17 18 0 0
BITMAP
000015ADF8000EFF80
0005DEFFF6002FFF50
009F95FFF2005FFF20
09FA07FFE0008FFE00
4FF10BFFB000BFFB00
9FB00EFF8000EFF700
AF902FFF5003FFF400
6F805FFFCBBCFFF100
05609FFFFFFFFFD000
0000CFFA000CFFA000
0000FFF7001FFF6000
0003FFF4004FFF3000
0006FFF1007FFF0000
000AFFC000AFFC0000
000DFF9000DFF90000
001FFF6001FFF60000
004FFF3004FFF20000
007FFE0008FFE00000
ENDCHAR
STARTCHAR I
ENCODING 73
SWIDTH 375 0
DWIDTH 9 0
BBX 10 18 0 0
BITMAP
000016BDF6
0007EEFFF3
01BF77FFF0
0BF70AFFC0
6FD00DFF90
BF801FFF60
CF704FFF20
8F608FFE00
0550BFFB00
0000EFF800
0002FFF500
0005FFF100
0009FFD000
000CFFA000
000FFF7000
003FFF4000
006FFF1000
00AFFC0000
ENDCHAR
STARTCHAR J
ENCODING 74
SWIDTH 536 0
DWIDTH 13 0
BBX 14 23 0 -5
BITMAP
00000000049DEC
00000003CFFFF8
0000006FC3FFF5
000006FC14FFF2
00001EF408FFD0
00006FE00BFFA0
00007FC00EFF70
00004FB03FFF40
000004807FFF10
00000000AFFC00
00000000EFF900
00000002FFF500
00000006FFF200
00000009FFE000
0000000DFFB000
0000001FFF7000
0056514FFF4000
0CFFF98FFF1000
6FC214CFFA0000
8F7002FFF30000
5FD44CFF800000
08FFFFD6000000
00144200000000
ENDCHAR
STARTCHAR K
ENCODING 75
SWIDTH 601 0
DWIDTH 14 0
BBX 16 18 0 0
BITMAP
000027BDF6002DF7
0019FCFFF300CF80
03DE37FFE009F900
2EF30AFFB07F9000
9FB00DFF74FA0000
CF702FFF6EB00000
AF605FFFDB100000
29608FFFFEDA2000
0000BFFA29FFC000
0000EFF603FFF000
0002FFF303FFF000
0006FFF006FFD000
0009FFC009FFA000
000CFF900DFF6000
000FFF602FFF3000
003FFF305FFF0000
007FFF005FFE0000
00AFFC001CFF5000
ENDCHAR
STARTCHAR L
ENCODING 76
SWIDTH 379 0
DWIDTH 9 0
BBX 16 24 0 -6
BITMAP
000016BDF6000000
0007EEFFF3000000
01CF77FFF0000000
0CF70AFFC0000000
7FD00DFF80000000
CF801FFF50000000
CF605FFF20000000
7F608FFE00000000
0330BFFA00000000
0000EFF700000000
0003FFF400000000
0006FFF100000000
0009FFC000000000
000DFF9000000000
001FFF6000000000
004FFF2000000000
008FFE0000000000
00BFFFB300000000
00016DFF80000000
0000018FFC300000
00000004EFFA4114
000000003DFFFFFA
0000000001BFFFF5
000000000006DE80
ENDCHAR
STARTCHAR M
ENCODING 77
SWIDTH 787 0
DWIDTH 19 0
BBX 19 18 1 0
BITMAP
000016BDFF10005FFF30
0004DEBFFF1000CFFF10
006FB1BFFF0003FFFE00
05FC01FFFE0009FFFC00
0DF507FFFE001EFFFA00
4FF10CFFFD006FFFF800
4FE03FFFFD00CFFFF600
1DE08FDFFC03FDFFF400
0041DE9FFB0AF9FFF200
0004F99FFB1FD7FFE000
000AF49FFA7F6AFFC000
001ED0AFF9DE1CFFA000
006F80BFFDF90EFF8000
00BF20BFFFF31FFF6000
02FC00CFFFC03FFF4000
07F700DFFF605FFF2000
0DF100DFFE007FFF0000
3FB000EFF8009FFD0000
ENDCHAR
STARTCHAR N
ENCODING 78
SWIDTH 668 0
DWIDTH 16 0
BBX 18 18 0 0
BITMAP
00016BDFD400003FF2
004DFDFFF900006FE0
04FF56FFFC00009FA0
1EF509FFFF1000CF70
8FD00CFFFF4000FF40
BF901FFFFF8003FF10
CF804FFDFFB006FC00
9F907FE7FFE009F900
18B0AFA4FFF30DF600
0000EF70FFF61FF200
0002FF30BFF94FE000
0005FE008FFD7FB000
0009FB004FFFBF8000
000CF8001FFFFF4000
001FF4000CFFFF1000
004FF10009FFFD0000
007FC00005FFFA0000
00AF900002FFF60000
ENDCHAR
STARTCHAR O
ENCODING 79
SWIDTH 665 0
DWIDTH 16 0
BBX 16 18 0 0
BITMAP
0000026BDEFD9200
00029FFB879EFE40
004EF8148812EFE1
05FF40AFF500AFF6
1EF709FFA0008FF9
6FE03FFF20007FFB
9FA0CFFA00008FFB
6F93FFF400009FF9
0669FFE00000CFF8
000DFFA00001FFF4
001FFF700004FFF1
004FFF40000AFFB0
005FFF30001EFF50
006FFF20009FFC00
005FFF4003FFF300
001FFF903EFF6000
0008FFFEFFE50000
00006CFEC8100000
ENDCHAR
STARTCHAR P
ENCODING 80
SWIDTH 573 0
DWIDTH 14 0
BBX 15 18 0 0
BITMAP
000016BDFEB60000
0006EFB879EFC100
00BF9112403FFA00
0BF808FFD00AFF10
6FE00CFFA007FF30
BF900FFF7008FF20
CF603FFF300BFE00
9F607FFF002FF800
1860AFFC00BFD100
0000DFF919FD2000
0002FFFCDE810000
0005FFF520000000
0008FFE000000000
000CFFA000000000
000EFF7000000000
003FFF4000000000
006FFF1000000000
00AFFC0000000000
ENDCHAR
STARTCHAR Q
ENCODING 81
SWIDTH 665 0
DWIDTH 16 0
BBX 16 21 0 -3
BITMAP
0000026BDEFD9200
00029FFB879EFE40
004EF8149812EFD0
05FF40AFF500AFF5
1EF609FF90008FF9
7FD04FFF20007FFB
9FA0CFFA00008FFB
6F93FFF400009FFA
0569FFE00000CFF8
000DFFA00001FFF5
001FFF700005FFF2
004FFF40000AFFC0
005FFF30002FFF60
006FFF20009FFE00
005FFFCDC8FFF500
001FFF81DFFFA000
0008FFE8DFFA0000
00006CFEDEFA0000
0000000009FFD840
0000000002EFFE20
0000000000167200
ENDCHAR
STARTCHAR R
ENCODING 82
SWIDTH 601 0
DWIDTH 14 0
BBX 14 18 0 0
BITMAP
000027BDFEC810
0019FFB978DFE3
02DF9246700CFC
1EF709FFC008FF
9FD00DFF800BFB
CF801FFF405FF3
BF604FFF38FE40
2B707FFFFFFD40
0000BFFB5BFFD0
0000EFF603FFF1
0002FFF303FFF0
0005FFF005FFD0
0008FFC009FFA0
000CFF900DFF60
000FFF601FFF30
003FFF304FFF00
006FFF005FFE00
00AFFC001CFF50
ENDCHAR
STARTCHAR S
ENCODING 83
SWIDTH 570 0
DWIDTH 14 0
BBX 14 18 0 0
BITMAP
0000018CEEC600
00003EFFA8DF90
0000DFF7002FF2
0004FFF2002FF3
0005FFF3009FE1
0002FFFA005940
0000BFFF700000
00002EFFF60000
000003FFFF5000
0000005FFFE200
00389408FFFB00
04FFFE10CFFF20
0DFF60006FFF50
2FFA00005FFF30
2FF900008FFE10
0DFE2003EFF600
03EFEBCFFE6000
0029DFEC820000
ENDCHAR
STARTCHAR T
ENCODING 84
SWIDTH 481 0
DWIDTH 12 0
BBX 18 18 0 0
BITMAP
00015ADEFEB8410282
005EEA7EFFFFFFFFF1
05FC101FFFFFFFFFA0
2EF1004FFFA8ACC810
7FA0007FFF40000000
BF7000AFFF10000000
CF6000DFFC00000000
BF6001FFF900000000
3C8004FFF500000000
000007FFF200000000
00000AFFE000000000
00000EFFA000000000
00002FFF7000000000
00005FFF3000000000
00008FFF0000000000
0000BFFC0000000000
0000EFF80000000000
0002FFF50000000000
ENDCHAR
STARTCHAR U
ENCODING 85
SWIDTH 716 0
DWIDTH 17 0
BBX 20 18 -1 0
BITMAP
0000027BDEE20003FFF3
00029FCCFFD00006FFE0
003EE50CFF90000AFFB0
03FF301FFF50000DFF80
0BF8004FFF10001FFF50
1FF4008FFC00005FFF20
1FF300CFF800008FFE00
0AF501FFF40000BFFA00
005505FFF00000EFF700
000008FFB00003FFF400
00000CFF700006FFF100
00001FFF30000AFFC000
00003FFF00000EFF8000
00004FFE00005FFF2000
00003FFF1001DFF90000
00000EFFA34CFFD10000
000005FFFFFFFC200000
0000004BEFEB60000000
ENDCHAR
STARTCHAR V
ENCODING 86
SWIDTH 615 0
DWIDTH 15 0
BBX 17 18 0 0
BITMAP
000016BDF800006F40
0007EDFFF80000BE00
01BF71FFF90001F800
0BF700FFF90006F300
6FD000FFF9000BC000
BF9000EFF9001F6000
CF7000EFF9006F1000
8F6000EFFA00BA0000
055000DFFA02F50000
000000DFFA07E00000
000000DFFA0C900000
000000CFFB2F300000
000000CFFB7D000000
000000CFFBC7000000
000000BFFDF2000000
000000BFFFB0000000
000000AFFF50000000
000000AFFE10000000
ENDCHAR
STARTCHAR W
ENCODING 87
SWIDTH 962 0
DWIDTH 23 0
BBX 25 18 0 0
BITMAP
000016BDF800006FFD00001F90
0007EDFFF80000BFFD00006F30
01BF71FFF90001FFFD0000BD00
0BF700FFF90006FFFD0002F700
6FD000FFF9000BFFFD0007F200
BF9000EFF9001FFFFE000CB000
CF7000EFF9006FBFFE002F5000
8F6000EFFA00BB9FFE007E1000
055000DFFA02F59FFE00C90000
000000DFFA07E08FFF02F40000
000000DFFA0C908FFF07D00000
000000CFFB2F308FFF0C800000
000000CFFB7D007FFF2F200000
000000CFFBC7007FFF8B000000
000000BFFDF2007FFFD6000000
000000BFFFB0006FFFE1000000
000000AFFF50006FFFA0000000
000000AFFE10006FFF40000000
ENDCHAR
STARTCHAR X
ENCODING 88
SWIDTH 620 0
DWIDTH 15 0
BBX 15 18 0 0
BITMAP
000016BDF9001DB0
0007EDFFFC007F30
01BF70DFFF11E900
0BF700AFFF49E100
6FD0007FFF9F7000
BF90003FFFFD0000
CF70001FFFF50000
8F60000CFFF10000
05500009FFF40000
00000006FFF70000
00000008FFFA0000
0000002FFFFD0000
000000ADCFFF2000
000003F58FFF5000
00000CB05FFF8000
00005F302FFFB000
0001D9000DFFE000
0007E1000AFFF200
ENDCHAR
STARTCHAR Y
ENCODING 89
SWIDTH 620 0
DWIDTH 15 0
BBX 17 18 0 0
BITMAP
000016BDF900001E80
0007EDFFFD00007F20
01BF70CFFF2000DA00
0BF7009FFF5004F300
6FD0005FFF900AB000
BF90001FFFC01F5000
CF70000CFFF17D0000
8F600008FFF5D70000
05500004FFFCE10000
00000001FFFF800000
00000000CFFF200000
00000000EFFD000000
00000002FFFA000000
00000006FFF7000000
00000009FFF4000000
0000000CFFF1000000
0000000FFFD0000000
0000003FFF90000000
ENDCHAR
STARTCHAR Z
ENCODING 90
SWIDTH 542 0
DWIDTH 13 0
BBX 14 18 0 0
BITMAP
0019EFFFFFFFE1
009FC877BFFF70
00DF9000DFFE10
00AF6006FFF700
0000000DFFE100
0000006FFF7000
000000DFFE1000
000006FFF70000
00000DFFE10000
00006FFF700000
0000EFFE100000
0007FFF7000000
001EFFE1000000
007FFF70000000
01EFFE1005FB00
07FFF70009FE00
1EFFF8778CF900
7FFFFFFFFE8000
ENDCHAR
STARTCHAR bracketleft
ENCODING 91
SWIDTH 400 0
DWIDTH 10 0
BBX 11 24 -1 -6
BITMAP
000003FFFFD0
000007FF7750
00000AFD0000
00000DF90000
00001FF60000
00004FF30000
00007FF00000
0000BFC00000
0000EF800000
0002FF500000
0005FF200000
0008FE000000
000BFB000000
000EF7000000
003FF4000000
006FF1000000
009FD0000000
00CFA0000000
00FF60000000
03FF30000000
07FF00000000
0AFC00000000
0DFC77100000
1FFFFF100000
ENDCHAR
STARTCHAR backslash
ENCODING 92
SWIDTH 362 0
DWIDTH 9 0
BBX 7 24 1 -6
BITMAP
DD000000
AF100000
7F400000
4F700000
1FA00000
0CE00000
09F20000
06F50000
03F80000
00EB0000
00CE0000
008F3000
005F6000
002F9000
000EC000
000BF100
0007F400
0004F700
0001FA00
0000DD00
0000AF10
00007F40
00003F80
00000FB0
ENDCHAR
STARTCHAR bracketright
ENCODING 93
SWIDTH 400 0
DWIDTH 10 0
BBX 11 24 -2 -6
BITMAP
000007FFFF90
00000477FF60
00000003FF30
00000007FF00
0000000AFC00
0000000DF900
0000001FF600
0000004FF200
0000008FE000
000000BFB000
000000EF8000
000002FF5000
000005FF2000
000008FE0000
00000CFA0000
00000FF70000
00003FF40000
00006FF10000
00009FD00000
0000DFA00000
0001FF700000
0004FF300000
177AFF000000
5FFFFC000000
ENDCHAR
STARTCHAR asciicircum
ENCODING 94
SWIDTH 421 0
DWIDTH 10 0
BBX 8 5 1 13
BITMAP
00001600
0001CF20
002DFF70
03ED6AB0
4C6001D1
ENDCHAR
STARTCHAR underscore
ENCODING 95
SWIDTH 444 0
DWIDTH 11 0
BBX 9 3 1 0
BITMAP
2222222210
DFFFFFFF80
5555555520
ENDCHAR
STARTCHAR grave
ENCODING 96
SWIDTH 201 0
DWIDTH 5 0
BBX 4 4 0 13
BITMAP
3FF3
0BF5
04F8
00CB
ENDCHAR
STARTCHAR a
ENCODING 97
SWIDTH 526 0
DWIDTH 13 0
BBX 15 12 -1 0
BITMAP
00006CFE7FFF6000
0009FFD7DFFF3000
007FFD107FFE0000
02FFF500AFFC0000
08FFE000DFF80000
0DFF9001FFF50000
2FFF6004FFF20000
4FFF4008FFE00230
4FFF400DFFB00B40
3FFFA3AFFFD37C00
0CFFFFC6FFFFE200
01AEE9109ED91000
ENDCHAR
STARTCHAR b
ENCODING 98
SWIDTH 444 0
DWIDTH 11 0
BBX 11 17 -1 0
BITMAP
000146800000
0009FFD00000
000CFFA00000
001FFF600000
004FFF300000
007FFFAED700
00AFFE8AFF40
00DFF800DF90
02FFF500AFB0
05FFF200BFB0
08FFD000CF90
0BFFA001FF60
0EFF7006FF20
2FFF500DFA00
1FFF93AFE200
0CFFFFFE3000
02AEFD920000
ENDCHAR
STARTCHAR c
ENCODING 99
SWIDTH 384 0
DWIDTH 9 0
BBX 11 12 -1 0
BITMAP
00005BEEB200
0009FFC9FA00
007FFE11FC00
01FFF703F800
08FFF1002000
0DFFB0000000
2FFF70000000
4FFF50000000
4FFF40000380
2FFF60004C10
0BFFE88BA100
019DFDA40000
ENDCHAR
STARTCHAR d
ENCODING 100
SWIDTH 525 0
DWIDTH 13 0
BBX 15 17 -1 0
BITMAP
0000000000357400
0000000003FFF400
0000000006FFF100
0000000009FFD000
000000000CFFA000
00006CFE7FFF6000
0009FFD8DFFF3000
007FFD108FFF0000
02FFF500AFFC0000
08FFE000EFF80000
0DFF9002FFF50000
2FFF6005FFF20000
4FFF4008FFE00220
4FFF400DFFB00B50
3FFFA3AFFFD38C00
0CFFFFD8FFFFE200
01AEE910AEEA2000
ENDCHAR
STARTCHAR e
ENCODING 101
SWIDTH 384 0
DWIDTH 9 0
BBX 11 12 -1 0
BITMAP
00005BEEB200
0009FFC9FA00
007FFD11FC00
02FFF505F900
08FFD01DF300
0DFFA5DF6000
2FFFFFC40000
4FFF72000010
4FFF40000590
2FFF60005B00
0BFFE88C9000
019DFDA40000
ENDCHAR
STARTCHAR f
ENCODING 102
SWIDTH 267 0
DWIDTH 6 0
BBX 15 24 -5 -6
BITMAP
0000000018DEC300
00000001CFFB9E10
00000007FFD00E30
0000000CFF900300
0000001FFF500000
0000004FFF300000
0000007FFFFC0000
000000AFFE750000
000000DFFA000000
000002FFF7000000
000005FFF3000000
000008FFF0000000
00000BFFC0000000
00000EFF90000000
00002FFF50000000
00006FFF20000000
00009FFE00000000
0000CFFA00000000
029DFFF700000000
4E63FFF400000000
C707FFF100000000
E93DFFA000000000
AFFFFE2000000000
1AEEA20000000000
ENDCHAR
STARTCHAR g
ENCODING 103
SWIDTH 507 0
DWIDTH 12 0
BBX 14 18 -1 -6
BITMAP
00006CFE7FFF60
0009FFD7DFFF30
007FFD107FFE00
02FFF500AFFB00
08FFE000DFF800
0DFF9001FFF500
2FFF6005FFF200
4FFF4008FFE003
4FFF400DFFA02D
3FFFA3AFFF70A7
0CFFFFFFFF6AB0
01AEEA8FFFE800
000018EFFD1000
0006EBEFFA0000
003F70FFF60000
006E05FFF10000
004F8DFF700000
0007DEC5000000
ENDCHAR
STARTCHAR h
ENCODING 104
SWIDTH 505 0
DWIDTH 12 0
BBX 14 17 -1 0
BITMAP
00014680000000
0009FFD0000000
000CFFA0000000
000FFF70000000
003FFF30000000
007FFF4CFD5000
00AFFFFFFFF100
00DFFF56FFF400
01FFF802FFF300
04FFF204FFF100
08FFE007FFD000
0BFFB00AFF9000
0EFF800DFF5003
2FFF401FFF304C
6FFF102FFF74D5
9FFD000DFFFFA0
CFFA0003CED700
ENDCHAR
STARTCHAR i
ENCODING 105
SWIDTH 267 0
DWIDTH 6 0
BBX 9 17 -1 0
BITMAP
0003DD4000
000CFFC000
000CFFC000
0004DD4000
0000000000
007FFF0000
00AFFC0000
00EFF80000
02FFF50000
05FFF20000
08FFE00000
0CFFA00000
0EFF700420
2FFF501E10
2FFF95C800
0EFFFFB000
04CEC60000
ENDCHAR
STARTCHAR j
ENCODING 106
SWIDTH 240 0
DWIDTH 6 0
BBX 12 23 -5 -6
BITMAP
00000006EC20
0000000EFF90
0000000EFFA0
00000006EC20
000000000000
0000007FFF00
000000AFFC00
000000DFF900
000001FFF600
000004FFF300
000008FFE000
00000BFFB000
00000EFF8001
00002FFF5078
00005FFF21D2
00009FFE0A70
0000CFFEC500
004AFFF90000
09FEFFF40000
7F55FFF10000
C80AFFA00000
AD9FFE200000
1AEEA2000000
ENDCHAR
STARTCHAR k
ENCODING 107
SWIDTH 518 0
DWIDTH 12 0
BBX 15 17 -1 0
BITMAP
0002579000000000
0009FFD000000000
000CFFA000000000
001FFF6000000000
004FFF3000000000
007FFF001AF91000
00AFFC02CE400000
00DFF84EA1000000
01FFFCFEA7000000
05FFFFFFFF800000
08FFFA4CFFD00000
0BFFB009FFE00000
0EFF800BFFB00220
2FFF400EFF801D20
6FFF100EFFB3AA00
9FFD000BFFFFD100
CFFA0002AEEA2000
ENDCHAR
STARTCHAR l
ENCODING 108
SWIDTH 267 0
DWIDTH 6 0
BBX 9 17 -1 0
BITMAP
000279B000
0009FFD000
000DFF9000
001FFF6000
004FFF3000
007FFE0000
00AFFB0000
00EFF80000
02FFF50000
05FFF10000
08FFD00000
0CFFA00000
0EFF700520
2FFF402E10
2FFFB8E800
0EFFFFB000
04CEC60000
ENDCHAR
STARTCHAR m
ENCODING 109
SWIDTH 752 0
DWIDTH 18 0
BBX 20 12 -1 0
BITMAP
007FFE7CEE818DFC4000
00AFFFAAFFFEABFFE100
00EFFB03FFFA03FFF300
02FFF404FFF303FFF200
05FFF107FFE006FFF000
08FFD00AFFC009FFC000
0BFFA00DFF900DFF8000
0EFF701FFF601FFF4006
3FFF404FFF203FFF206B
6FFF107FFE003FFF64E3
9FFD00AFFC000EFFFF90
CFFA00DFF90003CEC600
ENDCHAR
STARTCHAR n
ENCODING 110
SWIDTH 505 0
DWIDTH 12 0
BBX 14 12 -1 0
BITMAP
007FFE7CED5000
00AFFFAAFFF100
00EFFB02FFF400
02FFF403FFF300
05FFF105FFF100
08FFD008FFD000
0BFFA00BFF9000
0EFF700EFF5006
3FFF402FFF304B
6FFF102FFF74D4
9FFD000DFFFF90
CFFA0003CED600
ENDCHAR
STARTCHAR o
ENCODING 111
SWIDTH 439 0
DWIDTH 11 0
BBX 15 12 -1 0
BITMAP
00004BEEB2000000
0008FFD8EC000000
006FFD10BF200330
01EFF604FF65AC20
08FFE004FFEA5000
0DFFA000DF200000
2FFF6002FE000000
4FFF4006FA000000
5FFF400DF5000000
3FFF92AFB0000000
0CFFFFFC10000000
018DFD7100000000
ENDCHAR
STARTCHAR p
ENCODING 112
SWIDTH 468 0
DWIDTH 11 0
BBX 14 19 -3 -6
BITMAP
00004FFF300000
00007FFF7CED50
0000BFFFA9FFF3
0000EFFA00CFF8
0002FFF500AFF9
0005FFF100BFF8
0008FFD000DFF7
000CFFA001FFF4
000FFF7006FFF1
003FFF400DFFA0
006FFF42AFFE20
00AFFFFFFFF500
00DFFBCFEB3000
01FFF600000000
04FFF300000000
07FFE000000000
0BFFB000000000
0EFF8000000000
19620000000000
ENDCHAR
STARTCHAR q
ENCODING 113
SWIDTH 486 0
DWIDTH 12 0
BBX 13 18 -1 -6
BITMAP
00006CFE7FFF60
0009FFD8DFFF30
007FFD108FFE00
02FFF500AFFB00
08FFE000EFF800
0DFF9002FFF500
2FFF6005FFF100
4FFF4008FFD000
4FFF400DFFA000
3FFFA3AFFF7000
0CFFFFEFFF3000
01AEE98FFF0000
000000AFFC0000
000000DFF90000
000001FFF50000
000004FFF20000
000008FFE00000
00000774000000
ENDCHAR
STARTCHAR r
ENCODING 114
SWIDTH 376 0
DWIDTH 9 0
BBX 11 12 -1 0
BITMAP
007FFE4BEB10
00AFFFDDFF40
00EFFA03EB10
02FFF4000000
05FFF1000000
08FFD0000000
0BFFA0000000
0EFF70000000
3FFF40000000
6FFF10000000
9FFD00000000
CFFA00000000
ENDCHAR
STARTCHAR s
ENCODING 115
SWIDTH 382 0
DWIDTH 9 0
BBX 11 13 -1 0
BITMAP
0000379B0000
0000DFFF1000
0003FFFF2000
0009DFFF3000
000E6FFF4000
006B3FFF5000
00D32FFF6000
06C01FFF7000
5FF20FFF8160
BED10FFF9B30
AA004FFFC300
4F88EFF80000
05CFEB400000
ENDCHAR
STARTCHAR t
ENCODING 116
SWIDTH 267 0
DWIDTH 6 0
BBX 9 16 -1 0
BITMAP
0003688000
000CFFA000
001FFF6000
004FFF3000
03FFFFF700
02CFFE7300
00CFFA0000
01FFF60000
04FFF30000
07FFE00000
0BFFB00000
0EFF800210
2FFF501D20
2FFF94B900
0EFFFFC100
04DEC60000
ENDCHAR
STARTCHAR u
ENCODING 117
SWIDTH 505 0
DWIDTH 12 0
BBX 14 12 -1 0
BITMAP
007FFF008FFE00
00AFFC00BFFA00
00EFF800EFF700
02FFF503FFF400
05FFF206FFF100
08FFE009FFD000
0CFFA00DFF9000
0EFF701FFF6005
2FFF507FFF304C
2FFFA6EFFF86D4
0EFFFF5DFFFF80
04CEC404DEC500
ENDCHAR
STARTCHAR v
ENCODING 118
SWIDTH 414 0
DWIDTH 10 0
BBX 11 12 -1 0
BITMAP
007FFF03ED20
00AFFC04FF80
00EFF8002D80
02FFF5000E70
05FFF2003F40
08FFE0008F10
0BFFA000DB00
0EFF7006F500
2FFF402ED000
2FFF96DF3000
0EFFFFF60000
03CEEA300000
ENDCHAR
STARTCHAR w
ENCODING 119
SWIDTH 661 0
DWIDTH 16 0
BBX 17 12 -1 0
BITMAP
007FFF008FFE04ED20
00AFFC00BFFA05FF70
00EFF800EFF7002E70
02FFF503FFF4001F50
05FFF206FFF1004F30
08FFE009FFD0009E00
0CFFA00DFF9000EA00
0EFF701FFF6007F400
2FFF507FFF302EC000
2FFF96EFFF86DE2000
0EFFFF7EFFFFF50000
04CFC504CFEA300000
ENDCHAR
STARTCHAR x
ENCODING 120
SWIDTH 522 0
DWIDTH 13 0
BBX 14 13 0 0
BITMAP
000000000AE700
0004CED40CFE00
005CAFFD019E00
01C11FFF31E800
08500DFF6BD100
1D000BFFED2000
680009FFE20000
A4000AFFB00000
91007FFFD00033
0005F6FFF100C3
003E70DFF93AA0
02E9007FFFFC10
1DC00009ED7100
ENDCHAR
STARTCHAR y
ENCODING 121
SWIDTH 486 0
DWIDTH 12 0
BBX 14 18 -1 -6
BITMAP
007FFF008FFE00
00AFFC00CFFA00
00EFF800EFF700
02FFF503FFF400
05FFF206FFF100
08FFE00AFFC000
0CFFA00DFF9000
0EFF701FFF6023
2FFF507FFF30A5
2FFF97EFFE04D0
0EFFFFEFFC6E30
04CFC5EFFFB200
00006CFFF60000
001CDAFFF20000
00AB08FFE00000
00E71EFF800000
00BFEFFD100000
002BED92000000
ENDCHAR
STARTCHAR z
ENCODING 122
SWIDTH 428 0
DWIDTH 10 0
BBX 11 12 0 0
BITMAP
007EFFFFFE10
05FC77FFF600
0AFA07FFD000
04A32EFF4000
0000AFFB0000
0003FFF30000
000CFF900000
006FFE100000
01EFF7046000
08FFD01FF400
2FFFC77EE100
BFFFFFFC3000
ENDCHAR
STARTCHAR braceleft
ENCODING 123
SWIDTH 352 0
DWIDTH 8 0
BBX 9 24 1 -6
BITMAP
000019DF80
0000CFE930
0005FF4000
000BFE0000
000EFB0000
001FF90000
002FF70000
003FF50000
004FF40000
007FF10000
14DF800000
CFF5000000
49FD000000
03FF200000
05FF100000
09FD000000
0DFA000000
2FF6000000
6FF2000000
AFF0000000
CFE0000000
CFF1000000
7FFA100000
07DF500000
ENDCHAR
STARTCHAR bar
ENCODING 124
SWIDTH 532 0
DWIDTH 13 0
BBX 3 24 5 -6
BITMAP
BF70
BF70
BF70
BF70
BF70
BF70
BF70
BF70
BF70
BF70
BF70
BF70
BF70
BF70
BF70
BF70
BF70
BF70
BF70
BF70
BF70
BF70
BF70
BF70
ENDCHAR
STARTCHAR braceright
ENCODING 125
SWIDTH 352 0
DWIDTH 8 0
BBX 9 24 -2 -6
BITMAP
00004FD700
00001AFF80
000001FFD0
000000EFD0
000000FFB0
000002FF70
000005FF30
000009FE00
00000CFA00
00000FF600
00002FF400
00000EF720
000004FFD0
00005EE630
0001EF8000
0003FF5000
0005FF4000
0006FF3000
0008FF2000
000AFE0000
000DFC0000
003FF60000
38EFD10000
7FD9200000
ENDCHAR
STARTCHAR asciitilde
ENCODING 126
SWIDTH 431 0
DWIDTH 10 0
BBX 10 3 1 13
BITMAP
0036763112
1BFFFFFFF5
4116BEEA20
ENDCHAR
STARTCHAR uni00A0
ENCODING 160
SWIDTH 217 0
DWIDTH 5 0
BBX 1 1 0 0
BITMAP
00
ENDCHAR
STARTCHAR exclamdown
ENCODING 161
SWIDTH 219 0
DWIDTH 5 0
BBX 8 19 -2 -7
BITMAP
00007EB1
0002FFF7
0002FFF7
00008EB1
00000000
00000000
0003FE00
0007FC00
000BF900
001FF700
005FF500
009FF200
00DFF000
02FFD000
07FFA000
0BFF8000
1FFF6000
4FFD3000
22000000
ENDCHAR
STARTCHAR cent
ENCODING 162
SWIDTH 384 0
DWIDTH 9 0
BBX 10 18 0 -1
BITMAP
0000007B00
000000B800
000003E710
0005DFFFF6
008FFCD5FE
06FF79A3FE
1EFD0D64D6
6FF71F2000
AFF35E0000
CFF18A0000
BFF1B70000
8FF5F30100
2EFEF35C20
03CFFFF900
000D841000
001F300000
003E000000
0036000000
ENDCHAR
STARTCHAR sterling
ENCODING 163
SWIDTH 455 0
DWIDTH 11 0
BBX 13 18 0 0
BITMAP
0000002AEFC500
000004FFD9FF20
00002EFF21FF50
00007FFA04FE10
0000DFF6015200
0001FFF2000000
0005FFE0000000
0229FFB2220000
0FFFFFFFFD0000
155FFF75530000
002FFF10000000
006FFD00000000
009FFA00000000
00CFF400000000
02FF9000004900
09FFFFEEDEFB00
5FFFFFFFFFF700
674346ADFD7000
ENDCHAR
STARTCHAR currency
ENCODING 164
SWIDTH 500 0
DWIDTH 12 0
BBX 10 9 1 4
BITMAP
0500000060
2E98EEA9E3
04FE88DF50
06E2001D80
0AB00009B0
08D0000CA0
03FB439F40
1CDDFFECC1
1A103411A2
ENDCHAR
STARTCHAR yen
ENCODING 165
SWIDTH 558 0
DWIDTH 13 0
BBX 12 18 2 0
BITMAP
5FFF900001E9
1FFFD00006F2
0CFFF1000CB0
09FFF5003F40
05FFF8009D00
01FFFC01E700
00DFFF16E100
009FFF4C9000
005FFFBF2000
002FFFFB0000
000DFFF50000
3FFFFFFFFF10
257FFFC55400
CFFFFFFFF700
45CFFF655200
00DFFF000000
01FFFC000000
03FFF9000000
ENDCHAR
STARTCHAR brokenbar
ENCODING 166
SWIDTH 532 0
DWIDTH 13 0
BBX 3 24 5 -6
BITMAP
BF70
BF70
BF70
BF70
BF70
BF70
BF70
BF70
BF70
BF70
BF70
0000
0000
BF70
BF70
BF70
BF70
BF70
BF70
BF70
BF70
BF70
BF70
BF70
ENDCHAR
STARTCHAR section
ENCODING 167
SWIDTH 542 0
DWIDTH 13 0
BBX 13 20 0 -2
BITMAP
0000004AEFD700
000008FFC8BF60
00003FFD001F80
00008FF7004F60
00008FF7006700
0004DFFE100000
005FDDFFD20000
00CF93EFFE5000
00EFE22CFFF300
00BFFD20AFFC00
003EFFE31DFF10
0003EFFE27FF10
00002EFFB6FD00
06A504FFFCF500
6FFA10DFFC4000
BF9000AFF40000
CF7000CFF10000
8FD215FF700000
19EFFFC5000000
00022100000000
ENDCHAR
STARTCHAR dieresis
ENCODING 168
SWIDTH 392 0
DWIDTH 9 0
BBX 8 3 1 14
BITMAP
3CA01AC2
9FF34FF8
4EC11CE3
ENDCHAR
STARTCHAR copyright
ENCODING 169
SWIDTH 587 0
DWIDTH 14 0
BBX 12 14 1 1
BITMAP
000001100000
0007DFFE7100
01CE9658EC10
0AD201101BB0
3E21AFFC21E4
890BD75BC079
B63F3001814C
B65F0000004C
983F4000006A
4E1CD53AC1D5
0CB3CFFE5AC0
02DD7677CE20
001AFFFFA200
000014410000
ENDCHAR
STARTCHAR ordfeminine
ENCODING 170
SWIDTH 345 0
DWIDTH 8 0
BBX 7 8 1 10
BITMAP
00011210
05EFDF80
2FE6CF40
9F60CF10
CF12FC00
EF18FA00
CFFAFF40
16405500
ENDCHAR
STARTCHAR guillemotleft
ENCODING 171
SWIDTH 589 0
DWIDTH 14 0
BBX 13 9 0 2
BITMAP
00000001000010
0000018D0018D0
00018EA318EB30
029EA328EB3000
4FA304FB300000
3DD603CD600000
006ED606DD6000
00018E9017E900
00000230001400
ENDCHAR
STARTCHAR logicalnot
ENCODING 172
SWIDTH 444 0
DWIDTH 11 0
BBX 10 7 0 1
BITMAP
0222222221
5FFFFFFFF6
255555BFF3
000000CFE0
000000EFB0
000003FF80
0000014420
ENDCHAR
STARTCHAR uni00AD
ENCODING 173
SWIDTH 290 0
DWIDTH 7 0
BBX 6 3 0 5
BITMAP
022221
5FFFF8
255551
ENDCHAR
STARTCHAR registered
ENCODING 174
SWIDTH 553 0
DWIDTH 13 0
BBX 13 14 0 1
BITMAP
00000020000000
0003AFFFB40000
004ED756BF7000
02E8222004E500
09A0BFFF806D00
0E30B857E40D30
2F00B624D50A50
2F00CFFFB00A60
0F20C85E400D40
0A90C505D14E00
03F6630075E600
006FA5348EA000
0004CFFFE70000
00000243000000
ENDCHAR
STARTCHAR macron
ENCODING 175
SWIDTH 446 0
DWIDTH 11 0
BBX 9 3 1 13
BITMAP
0222222220
2FFFFFFF90
1555555520
ENDCHAR
STARTCHAR degree
ENCODING 176
SWIDTH 314 0
DWIDTH 8 0
BBX 7 10 0 8
BITMAP
00001000
003DFE30
02EE6E90
09F40BB0
0DE00CA0
1FA00E80
1F904F30
0FC3CB00
09FFC100
00340000
ENDCHAR
STARTCHAR plusminus
ENCODING 177
SWIDTH 479 0
DWIDTH 12 0
BBX 11 13 0 2
BITMAP
000000320000
000003FB0000
000006F80000
00000AF40000
04FFFFFFFF90
06DDDFEDDD50
00005F900000
00008F600000
0000BF300000
000078000000
022222222100
4FFFFFFFF300
255555555000
ENDCHAR
STARTCHAR uni00B2
ENCODING 178
SWIDTH 328 0
DWIDTH 8 0
BBX 7 11 1 7
BITMAP
019EE900
09E8EF60
0D80AF90
0BC0AF50
0002FB00
000CC100
00AB1000
0AB10000
6F422410
BFFFFE20
45554100
ENDCHAR
STARTCHAR uni00B3
ENCODING 179
SWIDTH 336 0
DWIDTH 8 0
BBX 7 10 1 8
BITMAP
006DEA10
05FABF90
09F13FC0
03C46F70
0016D700
0005FA10
5E80BF80
BD10AF90
9E13EE20
19DDA200
ENDCHAR
STARTCHAR acute
ENCODING 180
SWIDTH 316 0
DWIDTH 8 0
BBX 5 5 3 13
BITMAP
007830
06FC00
0DE200
6F5000
D90000
ENDCHAR
STARTCHAR uni00B5
ENCODING 181
SWIDTH 505 0
DWIDTH 12 0
BBX 15 16 -2 -4
BITMAP
0007FFF008FFE000
000AFFC00BFFA000
000EFF800EFF7000
002FFF503FFF4000
005FFF206FFF1000
008FFE009FFD0000
00BFFB00CFFA0000
00EFF801FFF60040
03FFF506FFF403C0
06FFF85EFFF74D50
09FFFFF7DFFFF900
0CFFFD604DFC6000
1FFF600000000000
4FFF300000000000
7FFF000000000000
8A62000000000000
ENDCHAR
STARTCHAR paragraph
ENCODING 182
SWIDTH 542 0
DWIDTH 13 0
BBX 12 20 1 -2
BITMAP
00028DEDB400
004EFFFFEF60
02EFFFFF6FE0
0AFFFFFF3EF2
1FFFFFFF1FF2
3FFFFFFC4FF0
3FFFFFF97FC0
1FFFFFF5AF90
0BFFFFF2DF60
04FFFFE2FF20
004DFFFFFE00
0000CFA9FB00
0000EF5BF800
0003FF2EF500
0006FE2FF100
0009FA5FD000
000CF79FA000
000FF4CF7000
003FF1FF4000
006FD3FF1000
ENDCHAR
STARTCHAR periodcentered
ENCODING 183
SWIDTH 434 0
DWIDTH 10 0
BBX 6 5 2 4
BITMAP
03CE70
0DFFF4
1FFFF7
0DFFF4
03DE80
ENDCHAR
STARTCHAR cedilla
ENCODING 184
SWIDTH 227 0
DWIDTH 5 0
BBX 6 7 0 -6
BITMAP
00A500
02D210
08FFF5
021BFA
853CF7
5FFFA0
014200
ENDCHAR
STARTCHAR uni00B9
ENCODING 185
SWIDTH 229 0
DWIDTH 6 0
BBX 5 11 1 7
BITMAP
025B20
CFFE00
39FB00
07F800
0AF500
0DF200
2FE000
5FB000
8F8000
BF5000
671000
ENDCHAR
STARTCHAR ordmasculine
ENCODING 186
SWIDTH 329 0
DWIDTH 8 0
BBX 7 8 1 10
BITMAP
03CFB000
2EF8EB10
9F81E700
DF20D300
EE01E000
EE289000
AFFD1000
05610000
ENDCHAR
STARTCHAR guillemotright
ENCODING 187
SWIDTH 586 0
DWIDTH 14 0
BBX 14 9 0 2
BITMAP
00100001000000
02E6000C910000
007EC304DE6000
0002BF9108FB30
000005EC002BF2
00005BF8039EC0
028DD726CE9300
5FB401ED610000
42000240000000
ENDCHAR
STARTCHAR onequarter
ENCODING 188
SWIDTH 749 0
DWIDTH 18 0
BBX 17 18 1 0
BITMAP
025B2000000AE10000
CFFE0000004F700000
39FB000000CD100000
07F8000005F6000000
0AF500000DC0000000
0DF200007F40000000
2FE00001EB00000000
5FB00009F300000000
8F80002F9007E34A70
BF5000AE2007F6AF60
671003F80009F3DF30
00000CE1000EA2FE00
00005F60006D15FB00
0000DC0001EFEFFF50
0007F40000222CF600
001EB00000000EF200
008F300000002FE000
02F9000000005FB000
ENDCHAR
STARTCHAR onehalf
ENCODING 189
SWIDTH 745 0
DWIDTH 18 0
BBX 17 18 1 0
BITMAP
025B2000000AE10000
CFFE0000004F700000
39FB000000CD100000
07F8000005F6000000
0AF500000DC0000000
0DF200007F40000000
2FE00001EB00000000
5FB00009F300000000
8F80002F90019EE900
BF5000AE2009E8EF70
671003F8000D909F90
00000CE10009C0AF50
00005F60000002FA00
0000DC0000001DA000
0007F4000001C90000
001EB000001C900000
008F3000008F777820
02F9000000BFFFFB10
ENDCHAR
STARTCHAR threequarters
ENCODING 190
SWIDTH 836 0
DWIDTH 20 0
BBX 19 18 1 0
BITMAP
006DEA10000009F20000
05FABF9000002F900000
09F13FC00000BE100000
03C46F700004F7000000
0016D700000CD1000000
0005FA10005F60000000
5E80BF8000DC00000000
BD10AF9007F400000000
9E13EE201EB006E43A80
19DDA2009F2006F89F80
00000002F90008F4CF40
0000000AE1000DB1FF10
0000004F70005D24FC00
000000CD1000DFEFFF70
000005F60000222BF710
00000DC00000000DF300
00007F400000001FF000
0001EB000000004FC000
ENDCHAR
STARTCHAR questiondown
ENCODING 191
SWIDTH 439 0
DWIDTH 11 0
BBX 10 18 -1 -6
BITMAP
0000003DD4
000000CFFC
000000CFFC
0000004DD4
0000000000
0000000520
0000001F70
0000007F30
000003FA00
00004ED200
0006FE3000
009FF40000
07FF804DE4
1FFF202EFB
4FFF0009FB
3FFF300CF7
0BFFD8BFB0
017DEEB600
ENDCHAR
STARTCHAR Agrave
ENCODING 192
SWIDTH 668 0
DWIDTH 16 0
BBX 17 26 0 -3
BITMAP
000000000002FF4000
000000000000CF7000
0000000000007F9000
0000000000002FC000
000000000000000000
0000000000006CEE60
00000000002CDFFF60
0000000002EA6FFF20
000000002EC09FFE00
00000001DE20CFFB00
0000000AF700FFF800
0000126FD003FFF500
03AEFFFFD847FFF100
4FFB6BFD58DFFFD000
BFD02FF7000DFFA000
9FE09FF1001FFF7000
0312FFA0004FFF3000
0008FF50007FFF1000
000EFF1000AFFC0000
004FFB0000DFF90000
009FF70001FFF60000
00CFF30004FFF20000
00EFF10008FFE00000
00EFE0000000000000
008FE0000000000000
000461000000000000
ENDCHAR
STARTCHAR Aacute
ENCODING 193
SWIDTH 668 0
DWIDTH 16 0
BBX 19 27 0 -3
BITMAP
00000000000000018820
0000000000000008FC00
000000000000001EF300
000000000000007F8000
00000000000001ED1000
00000000000000000000
0000000000006CEE6000
00000000002CDFFF6000
0000000002EA6FFF2000
000000002EC09FFE0000
00000001DE20CFFB0000
0000000AF700FFF80000
0000126FD003FFF50000
03AEFFFFD847FFF10000
4FFB6BFD58DFFFD00000
BFD02FF7000DFFA00000
9FE09FF1001FFF700000
0312FFA0004FFF300000
0008FF50007FFF100000
000EFF1000AFFC000000
004FFB0000DFF9000000
009FF70001FFF6000000
00CFF30004FFF2000000
00EFF10008FFE0000000
00EFE000000000000000
008FE000000000000000
00046100000000000000
ENDCHAR
STARTCHAR Acircumflex
ENCODING 194
SWIDTH 668 0
DWIDTH 16 0
BBX 19 27 0 -3
BITMAP
00000000000000006000
000000000000001AF300
00000000000001CFF800
0000000000002DD69D00
000000000003C6000C30
00000000000000000000
0000000000006CEE6000
00000000002CDFFF6000
0000000002EA6FFF2000
000000002EC09FFE0000
00000001DE20CFFB0000
0000000AF700FFF80000
0000126FD003FFF50000
03AEFFFFD847FFF10000
4FFB6BFD58DFFFD00000
BFD02FF7000DFFA00000
9FE09FF1001FFF700000
0312FFA0004FFF300000
0008FF50007FFF100000
000EFF1000AFFC000000
004FFB0000DFF9000000
009FF70001FFF6000000
00CFF30004FFF2000000
00EFF10008FFE0000000
00EFE000000000000000
008FE000000000000000
00046100000000000000
ENDCHAR
STARTCHAR Atilde
ENCODING 195
SWIDTH 668 0
DWIDTH 16 0
BBX 20 25 0 -3
BITMAP
000000000006CEEA4132
00000000009FFFFFFF70
00000000003014676100
00000000000000000000
0000000000006CEE6000
00000000002CDFFF6000
0000000002EA6FFF2000
000000002EC09FFE0000
00000001DE20CFFB0000
0000000AF700FFF80000
0000126FD003FFF50000
03AEFFFFD847FFF10000
4FFB6BFD58DFFFD00000
BFD02FF7000DFFA00000
9FE09FF1001FFF700000
0312FFA0004FFF300000
0008FF50007FFF100000
000EFF1000AFFC000000
004FFB0000DFF9000000
009FF70001FFF6000000
00CFF30004FFF2000000
00EFF10008FFE0000000
00EFE000000000000000
008FE000000000000000
00046100000000000000
ENDCHAR
STARTCHAR Adieresis
ENCODING 196
SWIDTH 668 0
DWIDTH 16 0
BBX 19 25 0 -3
BITMAP
000000000009E605EA00
00000000000FFC0BFF10
000000000008D504D900
00000000000000000000
0000000000006CEE6000
00000000002CDFFF6000
0000000002EA6FFF2000
000000002EC09FFE0000
00000001DE20CFFB0000
0000000AF700FFF80000
0000126FD003FFF50000
03AEFFFFD847FFF10000
4FFB6BFD58DFFFD00000
BFD02FF7000DFFA00000
9FE09FF1001FFF700000
0312FFA0004FFF300000
0008FF50007FFF100000
000EFF1000AFFC000000
004FFB0000DFF9000000
009FF70001FFF6000000
00CFF30004FFF2000000
00EFF10008FFE0000000
00EFE000000000000000
008FE000000000000000
00046100000000000000
ENDCHAR
STARTCHAR Aring
ENCODING 197
SWIDTH 668 0
DWIDTH 16 0
BBX 17 27 0 -3
BITMAP
000000000000001000
00000000000008FD10
0000000000002E6B60
0000000000004C3A60
0000000000001EFE10
000000000000014100
0000000000006CEE60
00000000002CDFFF60
0000000002EA6FFF20
000000002EC09FFE00
00000001DE20CFFB00
0000000AF700FFF800
0000126FD003FFF500
03AEFFFFD847FFF100
4FFB6BFD58DFFFD000
BFD02FF7000DFFA000
9FE09FF1001FFF7000
0312FFA0004FFF3000
0008FF50007FFF1000
000EFF1000AFFC0000
004FFB0000DFF90000
009FF70001FFF60000
00CFF30004FFF20000
00EFF10008FFE00000
00EFE0000000000000
008FE0000000000000
000461000000000000
ENDCHAR
STARTCHAR AE
ENCODING 198
SWIDTH 764 0
DWIDTH 18 0
BBX 22 21 0 -3
BITMAP
0000000000006CED941147
00000000002CEFFFFFFFF6
0000000003EA6FFF9DFFB0
000000002EC18FFF001200
00000001DE20CFFC000000
0000000AF700EFF8000000
0000226FD003FFF5000000
03AEFFFFC626FFF1000000
4FFC6BFD69EEFFFFFF8000
BFD02FF7000DFFDBBB4000
9FE09FF1001FFF60000000
0422FFA0004FFF30000000
0008FF50007FFE00000000
000EFF1000AFFB00000000
004FFB0000DFF800000000
009FF70001FFFEDDDD9000
00CFF30004FFFFFFFF8000
00EFF10008FFFFFFFF5000
00EFE00000000000000000
008FE00000000000000000
0004700000000000000000
ENDCHAR
STARTCHAR Ccedilla
ENCODING 199
SWIDTH 497 0
DWIDTH 12 0
BBX 13 23 0 -5
BITMAP
0000029DFEB400
00006FFFB7CF50
0005FFF8003FB0
002EFFC0003FC0
00AFFF4000AFA0
03FFFC00007810
08FFF700000000
0DFFF200000000
1FFFE000000000
4FFFB000000000
6FFF9000000000
7FFF7000000000
8FFF7000000000
7FFF8000000120
5FFFC000001B30
1EFFF92027D700
07FFFFFFFE6000
005BEFEB710000
00000C31000000
00002FFF700000
0000118F900000
0003817F400000
0004BDB5000000
ENDCHAR
STARTCHAR Egrave
ENCODING 200
SWIDTH 459 0
DWIDTH 11 0
BBX 12 24 0 0
BITMAP
000000CFA000
0000006FC000
0000001FF000
0000000BF300
000000000000
000000000000
0000029DED60
00004EFD8BF6
0001EFD101FB
0008FF7002FB
000CFF400AF6
000CFF500440
0008FFA00000
0001CFF92000
0019EFE61000
01DFFE200000
0BFFF5000000
4FFFC0000000
9FFF70000000
CFFF60000013
CFFF800001B3
8FFFF6348E60
1DFFFFFFE500
029EFEB71000
ENDCHAR
STARTCHAR Eacute
ENCODING 201
SWIDTH 459 0
DWIDTH 11 0
BBX 13 24 0 0
BITMAP
0000000002FF50
0000000009FA00
000000002FE100
000000009F5000
00000000770000
00000000000000
0000029DED6000
00004EFD8BF600
0001EFD101FB00
0008FF7002FB00
000CFF400AF600
000CFF50044000
0008FFA0000000
0001CFF9200000
0019EFE6100000
01DFFE20000000
0BFFF500000000
4FFFC000000000
9FFF7000000000
CFFF6000001300
CFFF800001B300
8FFFF6348E6000
1DFFFFFFE50000
029EFEB7100000
ENDCHAR
STARTCHAR Ecircumflex
ENCODING 202
SWIDTH 459 0
DWIDTH 11 0
BBX 12 24 0 0
BITMAP
000000000990
00000001BFE0
0000001CFCF4
000002DB30A8
000006300016
000000000000
0000029DED60
00004EFD8BF6
0001EFD101FB
0008FF7002FB
000CFF400AF6
000CFF500440
0008FFA00000
0001CFF92000
0019EFE61000
01DFFE200000
0BFFF5000000
4FFFC0000000
9FFF70000000
CFFF60000013
CFFF800001B3
8FFFF6348E60
1DFFFFFFE500
029EFEB71000
ENDCHAR
STARTCHAR Edieresis
ENCODING 203
SWIDTH 459 0
DWIDTH 11 0
BBX 13 23 0 0
BITMAP
000000AC306D60
000004FF90EFE0
000001CE408E80
00000000000000
00000000000000
0000029DED6000
00004EFD8BF600
0001EFD101FB00
0008FF7002FB00
000CFF400AF600
000CFF50044000
0008FFA0000000
0001CFF9200000
0019EFE6100000
01DFFE20000000
0BFFF500000000
4FFFC000000000
9FFF7000000000
CFFF6000001300
CFFF800001B300
8FFFF6348E6000
1DFFFFFFE50000
029EFEB7100000
ENDCHAR
STARTCHAR Igrave
ENCODING 204
SWIDTH 375 0
DWIDTH 9 0
BBX 10 23 0 0
BITMAP
00000AFC00
000005FE00
000000EF20
0000009F40
0000000000
000016BDF6
0007EEFFF3
01BF77FFF0
0BF70AFFC0
6FD00DFF90
BF801FFF60
CF704FFF20
8F608FFE00
0550BFFB00
0000EFF800
0002FFF500
0005FFF100
0009FFD000
000CFFA000
000FFF7000
003FFF4000
006FFF1000
00AFFC0000
ENDCHAR
STARTCHAR Iacute
ENCODING 205
SWIDTH 375 0
DWIDTH 9 0
BBX 12 24 0 0
BITMAP
000000000784
000000004FE2
00000000BF70
00000004FC00
0000000BF300
000000000000
000016BDF600
0007EEFFF300
01BF77FFF000
0BF70AFFC000
6FD00DFF9000
BF801FFF6000
CF704FFF2000
8F608FFE0000
0550BFFB0000
0000EFF80000
0002FFF50000
0005FFF10000
0009FFD00000
000CFFA00000
000FFF700000
003FFF400000
006FFF100000
00AFFC000000
ENDCHAR
STARTCHAR Icircumflex
ENCODING 206
SWIDTH 375 0
DWIDTH 9 0
BBX 11 24 0 0
BITMAP
000000001500
00000002DE00
0000003EFF50
000004EC5B90
00006C5002D0
000000000000
000016BDF600
0007EEFFF300
01BF77FFF000
0BF70AFFC000
6FD00DFF9000
BF801FFF6000
CF704FFF2000
8F608FFE0000
0550BFFB0000
0000EFF80000
0002FFF50000
0005FFF10000
0009FFD00000
000CFFA00000
000FFF700000
003FFF400000
006FFF100000
00AFFC000000
ENDCHAR
STARTCHAR Idieresis
ENCODING 207
SWIDTH 375 0
DWIDTH 9 0
BBX 12 22 0 0
BITMAP
00002DC10BE4
00007FF62FFA
00002CB109C4
000000000000
000016BDF600
0007EEFFF300
01BF77FFF000
0BF70AFFC000
6FD00DFF9000
BF801FFF6000
CF704FFF2000
8F608FFE0000
0550BFFB0000
0000EFF80000
0002FFF50000
0005FFF10000
0009FFD00000
000CFFA00000
000FFF700000
003FFF400000
006FFF100000
00AFFC000000
ENDCHAR
STARTCHAR Eth
ENCODING 208
SWIDTH 663 0
DWIDTH 16 0
BBX 16 18 0 0
BITMAP
000016BDFEC93000
0007EFC978CFF900
01CFA2246009FF70
1CF909FFD002FFE1
7FE00CFF9000EFF4
CF801FFF6000DFF6
CF604FFF2000DFF7
7F618FFE2200EFF6
023AFFFFF800FFF5
0004FFF95103FFF3
0003FFF30006FFE0
0006FFF0000BFFA0
0009FFC0001FFF60
000CFF90008FFE10
001FFF6003FFF700
004FFF725EFFC000
007FFFFFFFFD1000
00AFFC4BFE810000
ENDCHAR
STARTCHAR Ntilde
ENCODING 209
SWIDTH 686 0
DWIDTH 16 0
BBX 18 22 0 0
BITMAP
0000000029DFDA6570
00000002BBEFFFFC20
000000010003674000
000000000000000000
00016BDFD400003FF2
004DFDFFF900006FE0
04FF56FFFC00009FA0
1EF509FFFF1000CF70
8FD00CFFFF4000FF40
BF901FFFFF8003FF10
CF804FFDFFB006FC00
9F907FE7FFE009F900
18B0AFA4FFF30DF600
0000EF70FFF61FF200
0002FF30BFF94FE000
0005FE008FFD7FB000
0009FB004FFFBF8000
000CF8001FFFFF4000
001FF4000CFFFF1000
004FF10009FFFD0000
007FC00005FFFA0000
00AF900002FFF60000
ENDCHAR
STARTCHAR Ograve
ENCODING 210
SWIDTH 665 0
DWIDTH 16 0
BBX 16 24 0 0
BITMAP
00000009FD000000
00000003FF100000
00000000DF300000
000000008F600000
0000000000000000
0000000000000000
0000026BDEFD9200
00029FFB879EFE40
004EF8148812EFE1
05FF40AFF500AFF6
1EF709FFA0008FF9
6FE03FFF20007FFB
9FA0CFFA00008FFB
6F93FFF400009FF9
0669FFE00000CFF8
000DFFA00001FFF4
001FFF700004FFF1
004FFF40000AFFB0
005FFF30001EFF50
006FFF20009FFC00
005FFF4003FFF300
001FFF903EFF6000
0008FFFEFFE50000
00006CFEC8100000
ENDCHAR
STARTCHAR Oacute
ENCODING 211
SWIDTH 665 0
DWIDTH 16 0
BBX 16 24 0 0
BITMAP
0000000000038710
00000000000CF800
00000000006FC000
0000000000DE2000
0000000002840000
0000000000000000
0000026BDEFD9200
00029FFB879EFE40
004EF8148812EFE1
05FF40AFF500AFF6
1EF709FFA0008FF9
6FE03FFF20007FFB
9FA0CFFA00008FFB
6F93FFF400009FF9
0669FFE00000CFF8
000DFFA00001FFF4
001FFF700004FFF1
004FFF40000AFFB0
005FFF30001EFF50
006FFF20009FFC00
005FFF4003FFF300
001FFF903EFF6000
0008FFFEFFE50000
00006CFEC8100000
ENDCHAR
STARTCHAR Ocircumflex
ENCODING 212
SWIDTH 665 0
DWIDTH 16 0
BBX 16 24 0 0
BITMAP
0000000000052000
00000000009F7000
000000002CFED000
00000004EA32E300
0000001720003400
0000000000000000
0000026BDEFD9200
00029FFB879EFE40
004EF8148812EFE1
05FF40AFF500AFF6
1EF709FFA0008FF9
6FE03FFF20007FFB
9FA0CFFA00008FFB
6F93FFF400009FF9
0669FFE00000CFF8
000DFFA00001FFF4
001FFF700004FFF1
004FFF40000AFFB0
005FFF30001EFF50
006FFF20009FFC00
005FFF4003FFF300
001FFF903EFF6000
0008FFFEFFE50000
00006CFEC8100000
ENDCHAR
STARTCHAR Otilde
ENCODING 213
SWIDTH 665 0
DWIDTH 16 0
BBX 17 22 0 0
BITMAP
000000018DFEC98910
000000198BFFFFD400
000000100026750000
000000000000000000
0000026BDEFD920000
00029FFB879EFE4000
004EF8148812EFE100
05FF40AFF500AFF600
1EF709FFA0008FF900
6FE03FFF20007FFB00
9FA0CFFA00008FFB00
6F93FFF400009FF900
0669FFE00000CFF800
000DFFA00001FFF400
001FFF700004FFF100
004FFF40000AFFB000
005FFF30001EFF5000
006FFF20009FFC0000
005FFF4003FFF30000
001FFF903EFF600000
0008FFFEFFE5000000
00006CFEC810000000
ENDCHAR
STARTCHAR Odieresis
ENCODING 214
SWIDTH 665 0
DWIDTH 16 0
BBX 16 22 0 0
BITMAP
00000009E605EA00
0000001FFC0BFF20
00000008D504D900
0000000000000000
0000026BDEFD9200
00029FFB879EFE40
004EF8148812EFE1
05FF40AFF500AFF6
1EF709FFA0008FF9
6FE03FFF20007FFB
9FA0CFFA00008FFB
6F93FFF400009FF9
0669FFE00000CFF8
000DFFA00001FFF4
001FFF700004FFF1
004FFF40000AFFB0
005FFF30001EFF50
006FFF20009FFC00
005FFF4003FFF300
001FFF903EFF6000
0008FFFEFFE50000
00006CFEC8100000
ENDCHAR
STARTCHAR multiply
ENCODING 215
SWIDTH 414 0
DWIDTH 10 0
BBX 8 8 1 4
BITMAP
2B1003B1
BFC13EF6
1CFCEF80
01CFF900
03EFFC10
3EF9CFC1
AF801CF5
06000150
ENDCHAR
STARTCHAR Oslash
ENCODING 216
SWIDTH 658 0
DWIDTH 16 0
BBX 16 19 0 -1
BITMAP
00000000009A0000
0000038CDFFC5000
0004CFE987FFFA00
008FD54BEAF6FF70
09FD15FFB7C0FFD0
3FF22EFF2A90EFF1
8FB0BFFA0D60EFF2
9F82FFF31F30FFF1
3D88FFD04E02FFF0
000DFF907B05FFC0
002FFF50A809FF80
005FFF20E50EFF30
006FFF02F25FFB00
007FFE05E0CFF400
006FFF08A6FF7000
003FFF4BCFFA0000
000BFFEFFD600000
00018DFE40000000
0000007B00000000
ENDCHAR
STARTCHAR Ugrave
ENCODING 217
SWIDTH 716 0
DWIDTH 17 0
BBX 20 24 -1 0
BITMAP
00000000002FF5000000
00000000000BF7000000
000000000006FA000000
000000000001FD000000
00000000000000000000
00000000000000000000
0000026BDED00005FFF1
00018FCDFFB00008FFC0
002DE40EFF70000CFF90
02EF303FFF30000FFF60
0AF9006FFE00003FFF30
1FF400AFFA00007FFE00
1FF200EFF60000AFFB00
0CF203FFF20000DFF800
015207FFD00002FFF500
00000AFF900005FFF100
00000EFF500009FFC000
00002FFF20000DFF8000
00004FFE00003FFF3000
00005FFD00009FFD0000
00006FFE0002EFF60000
00004FFFA57DFFC00000
00000CFFFFFFFC100000
0000018DEFEB60000000
ENDCHAR
STARTCHAR Uacute
ENCODING 218
SWIDTH 716 0
DWIDTH 17 0
BBX 20 24 -1 0
BITMAP
00000000000005FE2000
0000000000000DF70000
0000000000005FC00000
000000000000CF300000
00000000000185000000
00000000000000000000
0000026BDED00005FFF1
00018FCDFFB00008FFC0
002DE40EFF70000CFF90
02EF303FFF30000FFF60
0AF9006FFE00003FFF30
1FF400AFFA00007FFE00
1FF200EFF60000AFFB00
0CF203FFF20000DFF800
015207FFD00002FFF500
00000AFF900005FFF100
00000EFF500009FFC000
00002FFF20000DFF8000
00004FFE00003FFF3000
00005FFD00009FFD0000
00006FFE0002EFF60000
00004FFFA57DFFC00000
00000CFFFFFFFC100000
0000018DEFEB60000000
ENDCHAR
STARTCHAR Ucircumflex
ENCODING 219
SWIDTH 716 0
DWIDTH 17 0
BBX 20 24 -1 0
BITMAP
00000000000001C50000
0000000000002DFA0000
000000000003EFCE0000
00000000005E921D5000
00000000017200024000
00000000000000000000
0000026BDED00005FFF1
00018FCDFFB00008FFC0
002DE40EFF70000CFF90
02EF303FFF30000FFF60
0AF9006FFE00003FFF30
1FF400AFFA00007FFE00
1FF200EFF60000AFFB00
0CF203FFF20000DFF800
015207FFD00002FFF500
00000AFF900005FFF100
00000EFF500009FFC000
00002FFF20000DFF8000
00004FFE00003FFF3000
00005FFD00009FFD0000
00006FFE0002EFF60000
00004FFFA57DFFC00000
00000CFFFFFFFC100000
0000018DEFEB60000000
ENDCHAR
STARTCHAR Udieresis
ENCODING 220
SWIDTH 716 0
DWIDTH 17 0
BBX 20 23 -1 0
BITMAP
00000000006D702CA000
0000000000DFE08FF400
00000000008E804EC100
00000000000000000000
00000000000000000000
0000026BDED00005FFF1
00018FCDFFB00008FFC0
002DE40EFF70000CFF90
02EF303FFF30000FFF60
0AF9006FFE00003FFF30
1FF400AFFA00007FFE00
1FF200EFF60000AFFB00
0CF203FFF20000DFF800
015207FFD00002FFF500
00000AFF900005FFF100
00000EFF500009FFC000
00002FFF20000DFF8000
00004FFE00003FFF3000
00005FFD00009FFD0000
00006FFE0002EFF60000
00004FFFA57DFFC00000
00000CFFFFFFFC100000
0000018DEFEB60000000
ENDCHAR
STARTCHAR Yacute
ENCODING 221
SWIDTH 620 0
DWIDTH 15 0
BBX 17 24 0 0
BITMAP
000000000000018830
00000000000008FD00
0000000000001EF300
0000000000007F9000
000000000001ED1000
000000000000000000
000016BDF900001E80
0007EDFFFD00007F20
01BF70CFFF2000DA00
0BF7009FFF5004F300
6FD0005FFF900AB000
BF90001FFFC01F5000
CF70000CFFF17D0000
8F600008FFF5D70000
05500004FFFCE10000
00000001FFFF800000
00000000CFFF200000
00000000EFFD000000
00000002FFFA000000
00000006FFF7000000
00000009FFF4000000
0000000CFFF1000000
0000000FFFD0000000
0000003FFF90000000
ENDCHAR
STARTCHAR Thorn
ENCODING 222
SWIDTH 583 0
DWIDTH 14 0
BBX 15 18 0 0
BITMAP
00000068A5000000
000003FFF4000000
000006FFF2000000
00004CFFFFEA2000
002BEFFFC7DFE200
03ED3FFF701EFB00
1DF34FFF4008FF10
8FB07FFF1007FF30
CF70BFFC0009FF20
CF60EFF9000DFD00
5F72FFF5006FF700
0125FFF203EFC000
0008FFE37EFC2000
000CFFFFFE810000
000FFFA420000000
003FFF5000000000
006FFF1000000000
00AFFD0000000000
ENDCHAR
STARTCHAR germandbls
ENCODING 223
SWIDTH 480 0
DWIDTH 12 0
BBX 13 23 -2 -6
BITMAP
0000004BEEB200
000005FFBAFC00
00002EFE11FF00
00009FF901FE00
0001EFF505F900
0005FFF20AF300
0008FFD01FA000
000CFFA08E1000
000FFF70DF7000
003FFF403FF500
006FFF100BFE00
00AFFC0007FF40
00DFF90006FF70
01FFF60008FF60
04FFF3001DFF20
07FFE1C8CFF700
0BFFB0BFEB4000
0EFF8000000000
2FFF5000000000
5FFF1000000000
8FFD0000000000
CFFA0000000000
96300000000000
ENDCHAR
STARTCHAR agrave
ENCODING 224
SWIDTH 526 0
DWIDTH 13 0
BBX 15 18 -1 0
BITMAP
000000AFC0000000
0000004FE0000000
0000000EF2000000
00000009F5000000
0000000000000000
0000000000000000
00006CFE7FFF6000
0009FFD7DFFF3000
007FFD107FFE0000
02FFF500AFFC0000
08FFE000DFF80000
0DFF9001FFF50000
2FFF6004FFF20000
4FFF4008FFE00230
4FFF400DFFB00B40
3FFFA3AFFFD37C00
0CFFFFC6FFFFE200
01AEE9109ED91000
ENDCHAR
STARTCHAR aacute
ENCODING 225
SWIDTH 526 0
DWIDTH 13 0
BBX 15 18 -1 0
BITMAP
000000003FF40000
00000000AFA00000
00000002FE100000
00000009F6000000
0000000980000000
0000000000000000
00006CFE7FFF6000
0009FFD7DFFF3000
007FFD107FFE0000
02FFF500AFFC0000
08FFE000DFF80000
0DFF9001FFF50000
2FFF6004FFF20000
4FFF4008FFE00230
4FFF400DFFB00B40
3FFFA3AFFFD37C00
0CFFFFC6FFFFE200
01AEE9109ED91000
ENDCHAR
STARTCHAR acircumflex
ENCODING 226
SWIDTH 526 0
DWIDTH 13 0
BBX 15 18 -1 0
BITMAP
000000000A700000
00000001BFC00000
0000001CFDF20000
000002DB40C60000
0000084000270000
0000000000000000
00006CFE7FFF6000
0009FFD7DFFF3000
007FFD107FFE0000
02FFF500AFFC0000
08FFE000DFF80000
0DFF9001FFF50000
2FFF6004FFF20000
4FFF4008FFE00230
4FFF400DFFB00B40
3FFFA3AFFFD37C00
0CFFFFC6FFFFE200
01AEE9109ED91000
ENDCHAR
STARTCHAR atilde
ENCODING 227
SWIDTH 526 0
DWIDTH 13 0
BBX 15 17 -1 0
BITMAP
000003BEEA513400
00004FFFFFFFD100
00006349EFFA1000
0000000002100000
0000000000000000
00006CFE7FFF6000
0009FFD7DFFF3000
007FFD107FFE0000
02FFF500AFFC0000
08FFE000DFF80000
0DFF9001FFF50000
2FFF6004FFF20000
4FFF4008FFE00230
4FFF400DFFB00B40
3FFFA3AFFFD37C00
0CFFFFC6FFFFE200
01AEE9109ED91000
ENDCHAR
STARTCHAR adieresis
ENCODING 228
SWIDTH 526 0
DWIDTH 13 0
BBX 15 17 -1 0
BITMAP
000004EB01CD3000
00000AFF35FF8000
000003CA01BC2000
0000000000000000
0000000000000000
00006CFE7FFF6000
0009FFD7DFFF3000
007FFD107FFE0000
02FFF500AFFC0000
08FFE000DFF80000
0DFF9001FFF50000
2FFF6004FFF20000
4FFF4008FFE00230
4FFF400DFFB00B40
3FFFA3AFFFD37C00
0CFFFFC6FFFFE200
01AEE9109ED91000
ENDCHAR
STARTCHAR aring
ENCODING 229
SWIDTH 526 0
DWIDTH 13 0
BBX 15 17 -1 0
BITMAP
00000008EB000000
0000003E8C500000
0000005B3B500000
0000002EFD100000
0000000241000000
00006CFE7FFF6000
0009FFD7DFFF3000
007FFD107FFE0000
02FFF500AFFC0000
08FFE000DFF80000
0DFF9001FFF50000
2FFF6004FFF20000
4FFF4008FFE00230
4FFF400DFFB00B40
3FFFA3AFFFD37C00
0CFFFFC6FFFFE200
01AEE9109ED91000
ENDCHAR
STARTCHAR ae
ENCODING 230
SWIDTH 650 0
DWIDTH 16 0
BBX 18 12 -1 0
BITMAP
00006CEFC618DFD600
000BD87DFFEFE8EF10
00051003FFFF40AF20
00000003FFFB00DF00
00000227FFF408F900
005BFFFFFFE4AFC100
07FFF95DFFFFE80000
0EFF801FFFB3000011
2FFF305FFFA00001B1
2FFF94DFFFC0002C30
0DFFFFC7FFF97AD300
02BEEA107DFEC70000
ENDCHAR
STARTCHAR ccedilla
ENCODING 231
SWIDTH 384 0
DWIDTH 9 0
BBX 11 17 -1 -5
BITMAP
00005BEEB200
0009FFC9FA00
007FFD11FC00
01FFF602E600
08FFE0000000
0DFFA0000000
2FFF60000000
4FFF40000040
4FFF40000970
2FFFA114C900
0BFFFFFF7000
019DFF820000
00002D000000
00008EED2000
000021DF4000
000660CD1000
0008CCA20000
ENDCHAR
STARTCHAR egrave
ENCODING 232
SWIDTH 384 0
DWIDTH 9 0
BBX 11 18 -1 0
BITMAP
00001FF60000
00000AF90000
000005FB0000
000000EE0000
000000000000
000000000000
00005BEEB200
0009FFC9FA00
007FFD11FC00
02FFF505F900
08FFD01DF300
0DFFA5DF6000
2FFFFFC40000
4FFF72000010
4FFF40000590
2FFF60005B00
0BFFE88C9000
019DFDA40000
ENDCHAR
STARTCHAR eacute
ENCODING 233
SWIDTH 384 0
DWIDTH 9 0
BBX 11 18 -1 0
BITMAP
00000000BFB0
00000002FF20
00000009F800
0000002FD100
0000005B4000
000000000000
00005BEEB200
0009FFC9FA00
007FFD11FC00
02FFF505F900
08FFD01DF300
0DFFA5DF6000
2FFFFFC40000
4FFF72000010
4FFF40000590
2FFF60005B00
0BFFE88C9000
019DFDA40000
ENDCHAR
STARTCHAR ecircumflex
ENCODING 234
SWIDTH 384 0
DWIDTH 9 0
BBX 11 18 -1 0
BITMAP
00000002C400
0000002DF800
000003EFED00
00003EB32E30
0002A4000550
000000000000
00005BEEB200
0009FFC9FA00
007FFD11FC00
02FFF505F900
08FFD01DF300
0DFFA5DF6000
2FFFFFC40000
4FFF72000010
4FFF40000590
2FFF60005B00
0BFFE88C9000
019DFDA40000
ENDCHAR
STARTCHAR edieresis
ENCODING 235
SWIDTH 384 0
DWIDTH 9 0
BBX 12 17 -1 0
BITMAP
0000AE506E90
0001FFB0CFF1
00009D405D80
000000000000
000000000000
00005BEEB200
0009FFC9FA00
007FFD11FC00
02FFF505F900
08FFD01DF300
0DFFA5DF6000
2FFFFFC40000
4FFF72000010
4FFF40000590
2FFF60005B00
0BFFE88C9000
019DFDA40000
ENDCHAR
STARTCHAR igrave
ENCODING 236
SWIDTH 267 0
DWIDTH 6 0
BBX 9 18 -1 0
BITMAP
007FE00000
002FF20000
000CF40000
0006F70000
0000000000
0000000000
007FFF0000
00AFFC0000
00EFF80000
02FFF50000
05FFF20000
08FFE00000
0CFFA00000
0EFF700420
2FFF501E10
2FFF95C800
0EFFFFB000
04CEC60000
ENDCHAR
STARTCHAR iacute
ENCODING 237
SWIDTH 267 0
DWIDTH 6 0
BBX 9 18 -1 0
BITMAP
000006FE20
00000DF600
00005FC000
0000DF2000
0002850000
0000000000
007FFF0000
00AFFC0000
00EFF80000
02FFF50000
05FFF20000
08FFE00000
0CFFA00000
0EFF700420
2FFF501E10
2FFF95C800
0EFFFFB000
04CEC60000
ENDCHAR
STARTCHAR icircumflex
ENCODING 238
SWIDTH 267 0
DWIDTH 6 0
BBX 9 18 -1 0
BITMAP
000007B000
00008FF100
000AFCF600
01BC508B00
0550000700
0000000000
007FFF0000
00AFFC0000
00EFF80000
02FFF50000
05FFF20000
08FFE00000
0CFFA00000
0EFF700420
2FFF501E10
2FFF95C800
0EFFFFB000
04CEC60000
ENDCHAR
STARTCHAR idieresis
ENCODING 239
SWIDTH 267 0
DWIDTH 6 0
BBX 9 17 -1 0
BITMAP
03EC12DC10
08FF47FF60
03CB12CB10
0000000000
0000000000
007FFF0000
00AFFC0000
00EFF80000
02FFF50000
05FFF20000
08FFE00000
0CFFA00000
0EFF700420
2FFF501E10
2FFF95C800
0EFFFFB000
04CEC60000
ENDCHAR
STARTCHAR eth
ENCODING 240
SWIDTH 526 0
DWIDTH 13 0
BBX 15 18 -1 0
BITMAP
0000000169100000
00000003FFB27800
00000001BFFFEA00
000002CFFFFD0000
000000841FFF1000
000000000EFF3000
00006CFE7FFF4000
0009FFD7DFFF3000
007FFD107FFF1000
02FFF500AFFC0000
08FFE000DFF90000
0DFF9001FFF60000
2FFF6004FFF20000
4FFF4008FFE00220
4FFF400DFFB00A50
3FFFA3AFFFD37C00
0CFFFFD7FFFFE200
01AEE9109EEA2000
ENDCHAR
STARTCHAR ntilde
ENCODING 241
SWIDTH 505 0
DWIDTH 12 0
BBX 14 17 -1 0
BITMAP
00002AEEC72250
0003EFFFFFFE20
0005237DFFB200
00000000100000
00000000000000
007FFE7CED5000
00AFFFAAFFF100
00EFFB02FFF400
02FFF403FFF300
05FFF105FFF100
08FFD008FFD000
0BFFA00BFF9000
0EFF700EFF5006
3FFF402FFF304B
6FFF102FFF74D4
9FFD000DFFFF90
CFFA0003CED600
ENDCHAR
STARTCHAR ograve
ENCODING 242
SWIDTH 433 0
DWIDTH 10 0
BBX 15 18 -1 0
BITMAP
000008FE00000000
000003FF10000000
000000CF40000000
0000007F60000000
0000000000000000
0000000000000000
00006CEEA1000000
000AFFC8FA000000
008FFC00DF000420
03FFF406FF56BA10
0AFFC006FFDA4000
1FFF7001FF000000
4FFF4004FC000000
6FFF2008F8000000
7FFF201EF3000000
5FFF73CF90000000
1DFFFFFB10000000
029DEC6000000000
ENDCHAR
STARTCHAR oacute
ENCODING 243
SWIDTH 439 0
DWIDTH 11 0
BBX 15 18 -1 0
BITMAP
00000000AFC00000
00000002FF300000
00000009F9000000
0000001ED1000000
0000005B50000000
0000000000000000
00004BEEB2000000
0008FFD8EC000000
006FFD10BF200330
01EFF604FF65AC20
08FFE004FFEA5000
0DFFA000DF200000
2FFF6002FE000000
4FFF4006FA000000
5FFF400DF5000000
3FFF92AFB0000000
0CFFFFFC10000000
018DFD7100000000
ENDCHAR
STARTCHAR ocircumflex
ENCODING 244
SWIDTH 433 0
DWIDTH 10 0
BBX 15 18 -1 0
BITMAP
00000003E1000000
0000004EF5000000
000005FEEA000000
00006F915E000000
0004920008200000
0000000000000000
00006CEEA1000000
000AFFC8FA000000
008FFC00DF000420
03FFF406FF56BA10
0AFFC006FFDA4000
1FFF7001FF000000
4FFF4004FC000000
6FFF2008F8000000
7FFF201EF3000000
5FFF73CF90000000
1DFFFFFB10000000
029DEC6000000000
ENDCHAR
STARTCHAR otilde
ENCODING 245
SWIDTH 433 0
DWIDTH 10 0
BBX 15 17 -1 0
BITMAP
0003BEEB51240000
003EFFFFFFD10000
00735AFFFB100000
0000001320000000
0000000000000000
00006CEEA1000000
000AFFC8FA000000
008FFC00DF000420
03FFF406FF56BA10
0AFFC006FFDA4000
1FFF7001FF000000
4FFF4004FC000000
6FFF2008F8000000
7FFF201EF3000000
5FFF73CF90000000
1DFFFFFB10000000
029DEC6000000000
ENDCHAR
STARTCHAR odieresis
ENCODING 246
SWIDTH 433 0
DWIDTH 10 0
BBX 15 17 -1 0
BITMAP
0002DD20AE500000
0007FF62FFB00000
0002CB109D400000
0000000000000000
0000000000000000
00006CEEA1000000
000AFFC8FA000000
008FFC00DF000420
03FFF406FF56BA10
0AFFC006FFDA4000
1FFF7001FF000000
4FFF4004FC000000
6FFF2008F8000000
7FFF201EF3000000
5FFF73CF90000000
1DFFFFFB10000000
029DEC6000000000
ENDCHAR
STARTCHAR divide
ENCODING 247
SWIDTH 415 0
DWIDTH 10 0
BBX 9 12 1 2
BITMAP
0002CE5000
000AFFE000
000AFFE000
0002CE5000
1222222220
CFFFFFFF90
5555555520
0000000000
007EB10000
01FFF80000
01FFF80000
007EC10000
ENDCHAR
STARTCHAR oslash
ENCODING 248
SWIDTH 428 0
DWIDTH 10 0
BBX 14 14 -2 -2
BITMAP
000004AEEB26D1
00007FFD8FCD20
0007FFE20AF500
002FFF601CF500
009FFE00BFF400
00EFF90ABDF300
02FFF69C3FE000
04FFFCD17FA000
04FFFE22EF3000
01FFFA4CF90000
00AFFFFFA00000
02EBEFC6000000
1D800000000000
47000000000000
ENDCHAR
STARTCHAR ugrave
ENCODING 249
SWIDTH 505 0
DWIDTH 12 0
BBX 14 18 -1 0
BITMAP
000006FF100000
000001FF300000
000000AF600000
0000005F900000
00000000000000
00000000000000
007FFF008FFE00
00AFFC00BFFA00
00EFF800EFF700
02FFF503FFF400
05FFF206FFF100
08FFE009FFD000
0CFFA00DFF9000
0EFF701FFF6005
2FFF507FFF304C
2FFFA6EFFF86D4
0EFFFF5DFFFF80
04CEC404DEC500
ENDCHAR
STARTCHAR uacute
ENCODING 250
SWIDTH 505 0
DWIDTH 12 0
BBX 14 18 -1 0
BITMAP
000000005FF200
00000000CF7000
00000004FC0000
0000000BF30000
00000018600000
00000000000000
007FFF008FFE00
00AFFC00BFFA00
00EFF800EFF700
02FFF503FFF400
05FFF206FFF100
08FFE009FFD000
0CFFA00DFF9000
0EFF701FFF6005
2FFF507FFF304C
2FFFA6EFFF86D4
0EFFFF5DFFFF80
04CEC404DEC500
ENDCHAR
STARTCHAR ucircumflex
ENCODING 251
SWIDTH 505 0
DWIDTH 12 0
BBX 14 18 -1 0
BITMAP
000000007B0000
00000008FF1000
000000AFCF6000
00001BC508B000
00005500007000
00000000000000
007FFF008FFE00
00AFFC00BFFA00
00EFF800EFF700
02FFF503FFF400
05FFF206FFF100
08FFE009FFD000
0CFFA00DFF9000
0EFF701FFF6005
2FFF507FFF304C
2FFFA6EFFF86D4
0EFFFF5DFFFF80
04CEC404DEC500
ENDCHAR
STARTCHAR udieresis
ENCODING 252
SWIDTH 505 0
DWIDTH 12 0
BBX 14 17 -1 0
BITMAP
00005EA02DD200
0000AFF26FF700
00004C901BC200
00000000000000
00000000000000
007FFF008FFE00
00AFFC00BFFA00
00EFF800EFF700
02FFF503FFF400
05FFF206FFF100
08FFE009FFD000
0CFFA00DFF9000
0EFF701FFF6005
2FFF507FFF304C
2FFFA6EFFF86D4
0EFFFF5DFFFF80
04CEC404DEC500
ENDCHAR
STARTCHAR yacute
ENCODING 253
SWIDTH 505 0
DWIDTH 12 0
BBX 14 24 -1 -6
BITMAP
000000005FE200
00000000CF7000
00000005FC0000
0000000CF30000
00000018600000
00000000000000
007FFF008FFE00
00AFFC00CFFA00
00EFF800EFF700
02FFF503FFF400
05FFF206FFF100
08FFE00AFFC000
0CFFA00DFF9000
0EFF701FFF6023
2FFF507FFF30A5
2FFF97EFFE04D0
0EFFFFEFFC6E30
04CFC5EFFFB200
00006CFFF60000
001CDAFFF20000
00AB08FFE00000
00E71EFF800000
00BFEFFD100000
002BED92000000
ENDCHAR
STARTCHAR thorn
ENCODING 254
SWIDTH 473 0
DWIDTH 11 0
BBX 14 24 -3 -6
BITMAP
00000168A30000
000005FFF10000
000009FFD00000
00000CFF900000
00000FFF500000
00003FFF200000
00007FFE7CED60
0000AFFFA9FFF3
0000DFF900CFF7
0001FFF500AFF9
0005FFF100BFF9
0008FFD000CFF7
000BFFA001FFF5
000EFF7005FFF1
003FFF400CFF90
006FFF107FFE10
009FFF9AFFE300
00CFFBCEEA2000
01FFF600000000
04FFF300000000
07FFE000000000
0AFFB000000000
0EFF8000000000
19620000000000
ENDCHAR
STARTCHAR ydieresis
ENCODING 255
SWIDTH 505 0
DWIDTH 12 0
BBX 14 23 -1 -6
BITMAP
00009E605EB000
0000FFC0AFF200
00008D504C9000
00000000000000
00000000000000
007FFF008FFE00
00AFFC00CFFA00
00EFF800EFF700
02FFF503FFF400
05FFF206FFF100
08FFE00AFFC000
0CFFA00DFF9000
0EFF701FFF6023
2FFF507FFF30A5
2FFF97EFFE04D0
0EFFFFEFFC6E30
04CFC5EFFFB200
00006CFFF60000
001CDAFFF20000
00AB08FFE00000
00E71EFF800000
00BFEFFD100000
002BED92000000
ENDCHAR
STARTCHAR Amacron
ENCODING 256
SWIDTH 668 0
DWIDTH 16 0
BBX 19 26 0 -3
BITMAP
00000000000222222220
00000000001FFFFFFF90
00000000001555555520
00000000000000000000
00000000000000000000
0000000000006CEE6000
00000000002CDFFF6000
0000000002EA6FFF2000
000000002EC09FFE0000
00000001DE20CFFB0000
0000000AF700FFF80000
0000126FD003FFF50000
03AEFFFFD847FFF10000
4FFB6BFD58DFFFD00000
BFD02FF7000DFFA00000
9FE09FF1001FFF700000
0312FFA0004FFF300000
0008FF50007FFF100000
000EFF1000AFFC000000
004FFB0000DFF9000000
009FF70001FFF6000000
00CFF30004FFF2000000
00EFF10008FFE0000000
00EFE000000000000000
008FE000000000000000
00046100000000000000
ENDCHAR
STARTCHAR amacron
ENCODING 257
SWIDTH 526 0
DWIDTH 13 0
BBX 15 17 -1 0
BITMAP
00000DFFFFFFD000
0000077777775000
0000000000000000
0000000000000000
0000000000000000
00006CFE7FFF6000
0009FFD7DFFF3000
007FFD107FFE0000
02FFF500AFFC0000
08FFE000DFF80000
0DFF9001FFF50000
2FFF6004FFF20000
4FFF4008FFE00230
4FFF400DFFB00B40
3FFFA3AFFFD37C00
0CFFFFC6FFFFE200
01AEE9109ED91000
ENDCHAR
STARTCHAR Abreve
ENCODING 258
SWIDTH 668 0
DWIDTH 16 0
BBX 20 26 0 -3
BITMAP
00000000000782000385
00000000000BFA225DF4
000000000002CFFFFB30
00000000000002331000
00000000000000000000
0000000000006CEE6000
00000000002CDFFF6000
0000000002EA6FFF2000
000000002EC09FFE0000
00000001DE20CFFB0000
0000000AF700FFF80000
0000126FD003FFF50000
03AEFFFFD847FFF10000
4FFB6BFD58DFFFD00000
BFD02FF7000DFFA00000
9FE09FF1001FFF700000
0312FFA0004FFF300000
0008FF50007FFF100000
000EFF1000AFFC000000
004FFB0000DFF9000000
009FF70001FFF6000000
00CFF30004FFF2000000
00EFF10008FFE0000000
00EFE000000000000000
008FE000000000000000
00046100000000000000
ENDCHAR
STARTCHAR abreve
ENCODING 259
SWIDTH 526 0
DWIDTH 13 0
BBX 15 18 -1 0
BITMAP
0000386000068200
00003FE0002FE100
00000DF824DF6000
000003DFFFC40000
0000000231000000
0000000000000000
00006CFE7FFF6000
0009FFD7DFFF3000
007FFD107FFE0000
02FFF500AFFC0000
08FFE000DFF80000
0DFF9001FFF50000
2FFF6004FFF20000
4FFF4008FFE00230
4FFF400DFFB00B40
3FFFA3AFFFD37C00
0CFFFFC6FFFFE200
01AEE9109ED91000
ENDCHAR
STARTCHAR Aogonek
ENCODING 260
SWIDTH 668 0
DWIDTH 16 0
BBX 17 23 0 -5
BITMAP
0000000000006CEE60
00000000002CDFFF60
0000000002EA6FFF20
000000002EC09FFE00
00000001DE20CFFB00
0000000AF700FFF800
0000126FD003FFF500
03AEFFFFD847FFF100
4FFB6BFD58DFFFD000
BFD02FF7000DFFA000
9FE09FF1001FFF7000
0312FFA0004FFF3000
0008FF50007FFF1000
000EFE1000AFFC0000
004FFA0000DFF90000
009FF60001FFF60000
00CFF30004FFF20000
00EFF10008FFE00000
00EFE00004E5000000
007FE0001EB0000000
000351004FD3720000
000000001EFF700000
000000000142000000
ENDCHAR
STARTCHAR aogonek
ENCODING 261
SWIDTH 526 0
DWIDTH 13 0
BBX 15 17 -1 -5
BITMAP
00006CFE7FFF6000
0009FFD7DFFF3000
007FFD107FFE0000
02FFF500AFFC0000
08FFE000DFF80000
0DFF9001FFF50000
2FFF6004FFF20000
4FFF4008FFE00230
4FFF400DFFB00B30
3FFFA3AFFFD37A00
0CFFFFC7FFFFC100
01AEE910AFF81000
000000002D600000
00000000CF000000
00000000FF455000
00000000AFFA1000
0000000003200000
ENDCHAR
STARTCHAR Cacute
ENCODING 262
SWIDTH 497 0
DWIDTH 12 0
BBX 13 24 0 0
BITMAP
0000000001EF70
0000000007FC00
000000000EF300
000000006F8000
00000000670000
00000000000000
0000029DFEB400
00006FFFB7CF50
0005FFF8003FB0
002EFFC0003FC0
00BFFF4000BF90
03FFFC00006810
08FFF700000000
0DFFF200000000
1FFFD000000000
4FFFA000000000
6FFF8000000000
7FFF7000000000
8FFF7000000000
7FFF9000000120
5FFFD000002C20
1EFFFB4349E600
06FFFFFFFE5000
004AEFEB710000
ENDCHAR
STARTCHAR cacute
ENCODING 263
SWIDTH 384 0
DWIDTH 9 0
BBX 12 18 -1 0
BITMAP
000000003FF4
00000000AFA0
00000002FE10
00000009F600
0000000A9000
000000000000
00005BEEB200
0009FFC9FA00
007FFE11FC00
01FFF703F800
08FFF1002000
0DFFB0000000
2FFF70000000
4FFF50000000
4FFF40000380
2FFF60004C10
0BFFE88BA100
019DFDA40000
ENDCHAR
STARTCHAR Ccircumflex
ENCODING 264
SWIDTH 497 0
DWIDTH 12 0
BBX 13 24 0 0
BITMAP
00000000099000
00000001BFE000
0000001CFCF400
000002DB30A800
00000630001600
00000000000000
0000029DFEB400
00006FFFB7CF50
0005FFF8003FB0
002EFFC0003FC0
00BFFF4000BF90
03FFFC00006810
08FFF700000000
0DFFF200000000
1FFFD000000000
4FFFA000000000
6FFF8000000000
7FFF7000000000
8FFF7000000000
7FFF9000000120
5FFFD000002C20
1EFFFB4349E600
06FFFFFFFE5000
004AEFEB710000
ENDCHAR
STARTCHAR ccircumflex
ENCODING 265
SWIDTH 384 0
DWIDTH 9 0
BBX 11 18 -1 0
BITMAP
00000001C500
0000002DF900
000002DFEE00
00003EB32E30
000194000550
000000000000
00005BEEB200
0009FFC9FA00
007FFE11FC00
01FFF703F800
08FFF1002000
0DFFB0000000
2FFF70000000
4FFF50000000
4FFF40000380
2FFF60004C10
0BFFE88BA100
019DFDA40000
ENDCHAR
STARTCHAR Cdotaccent
ENCODING 266
SWIDTH 497 0
DWIDTH 12 0
BBX 13 24 0 0
BITMAP
0000000007EB10
000000002FFF70
000000002FFF70
0000000008EB10
00000000000000
00000000000000
0000029DFEB400
00006FFFB7CF50
0005FFF8003FB0
002EFFC0003FC0
00BFFF4000BF90
03FFFC00006810
08FFF700000000
0DFFF200000000
1FFFD000000000
4FFFA000000000
6FFF8000000000
7FFF7000000000
8FFF7000000000
7FFF9000000120
5FFFD000002C20
1EFFFB4349E600
06FFFFFFFE5000
004AEFEB710000
ENDCHAR
STARTCHAR cdotaccent
ENCODING 267
SWIDTH 384 0
DWIDTH 9 0
BBX 11 18 -1 0
BITMAP
0000003DE500
000000AFFE00
000000BFFE00
0000003DE500
000000000000
000000000000
00005BEEB200
0009FFC9FA00
007FFE11FC00
01FFF703F800
08FFF1002000
0DFFB0000000
2FFF70000000
4FFF50000000
4FFF40000380
2FFF60004C10
0BFFE88BA100
019DFDA40000
ENDCHAR
STARTCHAR Ccaron
ENCODING 268
SWIDTH 497 0
DWIDTH 12 0
BBX 14 24 0 0
BITMAP
0000000C3004B7
00000008D4BF60
00000003FFE400
00000000DD3000
00000000520000
00000000000000
0000029DFEB400
00006FFFB7CF50
0005FFF8003FB0
002EFFC0003FC0
00BFFF4000BF90
03FFFC00006810
08FFF700000000
0DFFF200000000
1FFFD000000000
4FFFA000000000
6FFF8000000000
7FFF7000000000
8FFF7000000000
7FFF9000000120
5FFFD000002C20
1EFFFB4349E600
06FFFFFFFE5000
004AEFEB710000
ENDCHAR
STARTCHAR ccaron
ENCODING 269
SWIDTH 384 0
DWIDTH 9 0
BBX 13 18 -1 0
BITMAP
000002C0005C40
000000D84CE300
0000008FFD2000
0000004FD20000
00000009100000
00000000000000
00005BEEB20000
0009FFC9FA0000
007FFD11FC0000
01FFF602E60000
08FFE000000000
0DFFA000000000
2FFF6000000000
4FFF4000004000
4FFF4000097000
2FFFA114CA0000
0BFFFFFF900000
019DFEA3000000
ENDCHAR
STARTCHAR Dcaron
ENCODING 270
SWIDTH 663 0
DWIDTH 16 0
BBX 16 24 0 0
BITMAP
0000000A5002A900
00000005E4AF8000
00000001FFF60000
00000000BE400000
0000000043000000
0000000000000000
000016ADEFDA3000
0007EFC978DFF700
01BFB213501CFF50
0CFA09FFD003FFD0
6FE10CFFA000EFF3
BF901FFF6000DFF6
CF704FFF3000DFF7
9F607FFE0000EFF6
0650AFFB0001FFF5
0000DFF80003FFF3
0002FFF40006FFE0
0005FFF1000BFFB0
0008FFD0001FFF50
000CFF90008FFD00
000FFF6002FFF600
003FFF725DFFB000
006FFFFFFFFD1000
00AFFC4BFE810000
ENDCHAR
STARTCHAR dcaron
ENCODING 271
SWIDTH 525 0
DWIDTH 13 0
BBX 18 18 -1 0
BITMAP
000000000000004ED1
000000000024637FF5
0000000002FFF51DF2
0000000006FFF10B90
0000000009FFD04A00
000000000CFFA00000
00006CFE7FFF700000
0009FFD8DFFF300000
007FFD108FFF000000
02FFF500AFFC000000
08FFE000EFF9000000
0DFF9002FFF5000000
2FFF6005FFF2000000
4FFF4008FFE0022000
4FFF400DFFB00B5000
3FFFA3AFFFD38C0000
0CFFFFD8FFFFE20000
01AEE910AEEA200000
ENDCHAR
STARTCHAR Dcroat
ENCODING 272
SWIDTH 663 0
DWIDTH 16 0
BBX 16 18 0 0
BITMAP
000016BDFEC93000
0007EFC978CFF900
01CFA2246009FF70
1CF909FFD002FFE1
7FE00CFF9000EFF4
CF801FFF6000DFF6
CF604FFF2000DFF7
7F618FFE2200EFF6
023AFFFFF800FFF5
0004FFF95103FFF3
0003FFF30006FFE0
0006FFF0000BFFA0
0009FFC0001FFF60
000CFF90008FFE10
001FFF6003FFF700
004FFF725EFFC000
007FFFFFFFFD1000
00AFFC4BFE810000
ENDCHAR
STARTCHAR dcroat
ENCODING 273
SWIDTH 525 0
DWIDTH 13 0
BBX 15 17 -1 0
BITMAP
0000000000002200
0000000001DFF500
0000000126FFF420
00000009FFFFFFC0
000000035CFFC530
00006CFE7EFF8000
0009FFD8DFFF5000
007FFD108FFF1000
02FFF500AFFD0000
08FFE000EFF90000
0DFF9002FFF60000
2FFF6005FFF30000
4FFF4008FFE00220
4FFF400DFFB00B50
3FFFA3AFFFC38C00
0CFFFFD8FFFFE200
01AEE910AEEA2000
ENDCHAR
STARTCHAR Emacron
ENCODING 274
SWIDTH 459 0
DWIDTH 11 0
BBX 14 23 0 0
BITMAP
00000122222221
000006FFFFFFF4
00000355555551
00000000000000
00000000000000
0000029DED6000
00004EFD8BF600
0001EFD101FB00
0008FF7002FB00
000CFF400AF600
000CFF50044000
0008FFA0000000
0001CFF9200000
0019EFE6100000
01DFFE20000000
0BFFF500000000
4FFFC000000000
9FFF7000000000
CFFF6000001300
CFFF800001B300
8FFFF6348E6000
1DFFFFFFE50000
029EFEB7100000
ENDCHAR
STARTCHAR emacron
ENCODING 275
SWIDTH 384 0
DWIDTH 9 0
BBX 11 17 -1 0
BITMAP
000DFFFFFFD0
000777777750
000000000000
000000000000
000000000000
00005BEEB200
0009FFC9FA00
007FFD11FC00
02FFF505F900
08FFD01DF300
0DFFA5DF6000
2FFFFFC40000
4FFF72000010
4FFF40000590
2FFF60005B00
0BFFE88C9000
019DFDA40000
ENDCHAR
STARTCHAR Ebreve
ENCODING 276
SWIDTH 459 0
DWIDTH 11 0
BBX 14 23 0 0
BITMAP
000009F80003FD
000005FE425DF5
0000008FFFFB30
00000001331000
00000000000000
0000029DED6000
00004EFD8BF600
0001EFD101FB00
0008FF7002FB00
000CFF400AF600
000CFF50044000
0008FFA0000000
0001CFF9200000
0019EFE6100000
01DFFE20000000
0BFFF500000000
4FFFC000000000
9FFF7000000000
CFFF6000001300
CFFF800001B300
8FFFF6348E6000
1DFFFFFFE50000
029EFEB7100000
ENDCHAR
STARTCHAR ebreve
ENCODING 277
SWIDTH 384 0
DWIDTH 9 0
BBX 12 18 -1 0
BITMAP
002870000583
002FF1001EF2
000CFA23CF70
0002CFFFD500
000002320000
000000000000
00005BEEB200
0009FFC9FA00
007FFD11FC00
02FFF505F900
08FFD01DF300
0DFFA5DF6000
2FFFFFC40000
4FFF72000010
4FFF40000590
2FFF60005B00
0BFFE88C9000
019DFDA40000
ENDCHAR
STARTCHAR Edotaccent
ENCODING 278
SWIDTH 459 0
DWIDTH 11 0
BBX 12 24 0 0
BITMAP
000000008EB1
00000002FFF7
00000003FFF7
000000008EB1
000000000000
000000000000
0000029DED60
00004EFD8BF6
0001EFD101FB
0008FF7002FB
000CFF400AF6
000CFF500440
0008FFA00000
0001CFF92000
0019EFE61000
01DFFE200000
0BFFF5000000
4FFFC0000000
9FFF70000000
CFFF60000013
CFFF800001B3
8FFFF6348E60
1DFFFFFFE500
029EFEB71000
ENDCHAR
STARTCHAR edotaccent
ENCODING 279
SWIDTH 384 0
DWIDTH 9 0
BBX 11 18 -1 0
BITMAP
0000004DD400
000000CFFC00
000000CFFC00
0000004DD400
000000000000
000000000000
00005BEEB200
0009FFC9FA00
007FFD11FC00
02FFF505F900
08FFD01DF300
0DFFA5DF6000
2FFFFFC40000
4FFF72000010
4FFF40000590
2FFF60005B00
0BFFE88C9000
019DFDA40000
ENDCHAR
STARTCHAR Eogonek
ENCODING 280
SWIDTH 459 0
DWIDTH 11 0
BBX 12 23 0 -5
BITMAP
00003ADFDA30
0007FFF97CF5
004FFF3002FD
009FFA0001FE
00BFF80008FC
009FFB000692
002FFF500000
0005EFF81000
0017DFFA2000
02DFFE500000
0DFFF5000000
6FFFC0000000
AFFF80000000
BFFF80000002
8FFFE1000095
3FFFFC424AA0
07FFFFFFF900
005BEFEF6000
000000A90000
000006F50000
00000AF93700
000005FFD300
000000240000
ENDCHAR
STARTCHAR eogonek
ENCODING 281
SWIDTH 384 0
DWIDTH 9 0
BBX 11 17 -1 -5
BITMAP
00005BEEB200
0009FFC9FA00
007FFD11FC00
02FFF505F900
08FFD01DF300
0DFFA5DF6000
2FFFFFC40000
4FFF72000020
4FFF40000790
2FFF9002AB00
0BFFFEEF9000
019DFFE50000
00003E300000
0000DD000000
0002FF354000
0000CFF90000
000003200000
ENDCHAR
STARTCHAR Ecaron
ENCODING 282
SWIDTH 459 0
DWIDTH 11 0
BBX 14 24 0 0
BITMAP
0000000A5002A9
00000005E4AF80
00000001FFF600
00000000BE4000
00000000430000
00000000000000
0000029DED6000
00004EFD8BF600
0001EFD101FB00
0008FF7002FB00
000CFF400AF600
000CFF50044000
0008FFA0000000
0001CFF9200000
0019EFE6100000
01DFFE20000000
0BFFF500000000
4FFFC000000000
9FFF7000000000
CFFF6000001300
CFFF800001B300
8FFFF6348E6000
1DFFFFFFE50000
029EFEB7100000
ENDCHAR
STARTCHAR ecaron
ENCODING 283
SWIDTH 384 0
DWIDTH 9 0
BBX 13 18 -1 0
BITMAP
000003B0006C30
000000E75DD200
0000009FFD2000
0000004FC10000
00000009100000
00000000000000
00005BEEB20000
0009FFC9FA0000
007FFD11FB0000
02FFF504F90000
08FFE00CF20000
0DFFA3BF500000
2FFFFFA2000000
4FFF5000002000
4FFF4000068000
2FFF60006B0000
0BFFE88C900000
019DFEA4000000
ENDCHAR
STARTCHAR Gcircumflex
ENCODING 284
SWIDTH 578 0
DWIDTH 14 0
BBX 14 29 0 -5
BITMAP
00000000007B00
0000000008FF10
000000009FDF50
0000000AD609A0
00000066000080
00000000000000
0000039CEED920
00019FFFB79FE3
002DFFE4000BF8
00BFFF40000DF8
07FFF800005EC2
0EFFE100000000
4FFFA000000000
7FFF6000006770
8FFF400000EFD0
7FFF300005FFA0
5FFF40000BFF70
1EFF80005FFF40
07FFF637FFFF10
007EFFFC8FFC00
000144209FF900
00000000CFF500
00026611FFF100
007FFFC4FFC000
02FE3158FF6000
05FB001EFD1000
02FE53BFF40000
005DFFFD400000
00003430000000
ENDCHAR
STARTCHAR gcircumflex
ENCODING 285
SWIDTH 507 0
DWIDTH 12 0
BBX 14 24 -1 -6
BITMAP
000000000A7000
00000001BFC000
0000001CFDF200
000002DB40C600
00000840002700
00000000000000
00006CFE7FFF60
0009FFD7DFFF30
007FFD107FFE00
02FFF500AFFB00
08FFE000DFF800
0DFF9001FFF500
2FFF6005FFF200
4FFF4008FFE003
4FFF400DFFA02D
3FFFA3AFFF70A7
0CFFFFFFFF6AB0
01AEEA8FFFE800
000018EFFD1000
0006EBEFFA0000
003F70FFF60000
006E05FFF10000
004F8DFF700000
0007DEC5000000
ENDCHAR
STARTCHAR Gbreve
ENCODING 286
SWIDTH 578 0
DWIDTH 14 0
BBX 16 28 0 -5
BITMAP
0000003FE0000CF4
0000000EF823AFA0
00000004DFFFD700
0000000002320000
0000000000000000
0000039CEED81000
00019FFFB7AFE200
002DFFE4000BF800
00BFFF40000CF900
07FFF800005FF500
0EFFE10000275000
4FFFA00000000000
7FFF600000111000
8FFF400000EFE000
7FFF300003FFB000
5FFF40000AFF8000
1EFF80004FFF4000
07FFF637EFFF1000
007EFFFC8FFD0000
000144209FF90000
00000000CFF60000
00026611FFF20000
007FFFC4FFD00000
02FE3158FF700000
05FB001EFE100000
02FE53BFF5000000
005DFFFD50000000
0000343000000000
ENDCHAR
STARTCHAR gbreve
ENCODING 287
SWIDTH 507 0
DWIDTH 12 0
BBX 14 23 -1 -6
BITMAP
00004FD0000EF3
00001EF723BF90
000004DFFFD600
00000002320000
00000000000000
00006CFE7FFF60
0009FFD7DFFF30
007FFD107FFE00
02FFF500AFFB00
08FFE000DFF800
0DFF9001FFF500
2FFF6005FFF200
4FFF4008FFE003
4FFF400DFFA02D
3FFFA3AFFF70A7
0CFFFFFFFF6AB0
01AEEA8FFFE800
000018EFFD1000
0006EBEFFA0000
003F70FFF60000
006E05FFF10000
004F8DFF700000
0007DEC5000000
ENDCHAR
STARTCHAR Gdotaccent
ENCODING 288
SWIDTH 578 0
DWIDTH 14 0
BBX 14 29 0 -5
BITMAP
000000004DD400
00000000CFFC00
00000000CFFC00
000000004DD400
00000000000000
00000000000000
0000039CEED810
00019FFFB7AFE2
002DFFE4000BF8
00BFFF40000CF9
07FFF800005FF5
0EFFE100002750
4FFFA000000000
7FFF6000001110
8FFF400000EFE0
7FFF300003FFB0
5FFF40000AFF80
1EFF80004FFF40
07FFF637EFFF10
007EFFFC8FFD00
000144209FF900
00000000CFF600
00026611FFF200
007FFFC4FFD000
02FE3158FF7000
05FB001EFE1000
02FE53BFF50000
005DFFFD500000
00003430000000
ENDCHAR
STARTCHAR gdotaccent
ENCODING 289
SWIDTH 507 0
DWIDTH 12 0
BBX 14 24 -1 -6
BITMAP
00000002CE5000
00000009FFE000
0000000AFFE000
00000002CE6000
00000000000000
00000000000000
00006CFE7FFF60
0009FFD7DFFF30
007FFD107FFE00
02FFF500AFFB00
08FFE000DFF800
0DFF9001FFF500
2FFF6005FFF200
4FFF4008FFE003
4FFF400DFFA02D
3FFFA3AFFF70A7
0CFFFFFFFF6AB0
01AEEA8FFFE800
000018EFFD1000
0006EBEFFA0000
003F70FFF60000
006E05FFF10000
004F8DFF700000
0007DEC5000000
ENDCHAR
STARTCHAR Gcommaaccent
ENCODING 290
SWIDTH 578 0
DWIDTH 14 0
BBX 13 24 0 -6
BITMAP
0000018DFDA200
00005EFFA8FE20
0006FFF500BF80
004FFF9000CF90
00DFFE1004FF50
06FFF800017500
0DFFF200000000
3FFFC000000000
7FFF9000000000
AFFF600001FFB0
CFFF400004FF80
DFFF300008FF50
CFFF20000DFF10
BFFF30004FFD00
7FFF6000BFFA00
2FFFB006FFF700
07FFF99FFFF300
006CFEA4FFF000
00000000000000
00000560000000
00002FF6000000
00000BF4000000
000007B0000000
00000910000000
ENDCHAR
STARTCHAR gcommaaccent
ENCODING 291
SWIDTH 507 0
DWIDTH 12 0
BBX 14 24 -1 -6
BITMAP
00000000380000
00000001E40000
00000008F70000
00000009FD0000
00000001730000
00000000000000
00006CFE7FFF60
0009FFD7DFFF30
007FFD107FFE00
02FFF500AFFB00
08FFE000DFF800
0DFF9001FFF500
2FFF6005FFF200
4FFF4008FFE003
4FFF400DFFA02D
3FFFA3AFFF70A7
0CFFFFFFFF6AB0
01AEEA8FFFE800
000018EFFD1000
0006EBEFFA0000
003F70FFF60000
006E05FFF10000
004F8DFF700000
0007DEC5000000
ENDCHAR
STARTCHAR Hcircumflex
ENCODING 292
SWIDTH 665 0
DWIDTH 16 0
BBX 17 24 0 0
BITMAP
000000000000160000
000000000002DE1000
00000000003EFF5000
0000000004EC5BA000
000000005C5001D000
000000000000000000
000015ADF8000EFF80
0005DEFFF6002FFF50
009F95FFF2005FFF20
09FA07FFE0008FFE00
4FF10BFFB000BFFB00
9FB00EFF8000EFF700
AF902FFF5003FFF400
6F805FFFCBBCFFF100
05609FFFFFFFFFD000
0000CFFA000CFFA000
0000FFF7001FFF6000
0003FFF4004FFF3000
0006FFF1007FFF0000
000AFFC000AFFC0000
000DFF9000DFF90000
001FFF6001FFF60000
004FFF3004FFF20000
007FFE0008FFE00000
ENDCHAR
STARTCHAR hcircumflex
ENCODING 293
SWIDTH 505 0
DWIDTH 12 0
BBX 14 22 -1 0
BITMAP
00000006000000
0000009F500000
00001BFF900000
0001CE78E00000
002C7100B40000
00000240000000
0007FFE0000000
000BFFB0000000
000EFF70000000
003FFF40000000
006FFF4CFD5000
009FFFFFFFF100
00DFFF56FFF400
01FFF802FFF300
04FFF204FFF100
07FFE007FFD000
0BFFB00AFF9000
0EFF800DFF5003
2FFF401FFF304C
5FFF102FFF74D5
9FFD000DFFFFA0
CFFA0003CED700
ENDCHAR
STARTCHAR Hbar
ENCODING 294
SWIDTH 665 0
DWIDTH 16 0
BBX 18 18 0 0
BITMAP
000005ADF8000DFF80
0004DFFFF6001FFF60
007FC6FFF3004FFF30
07FC16FFF0007FFF00
3FF309FFC000AFFC00
8FC0DFFFFFFFFFFFFA
AF903FFF7334FFF731
8F804FFF5225FFF300
1A907FFFFFFFFFE000
0000AFFC555DFFB000
0000EFF8000EFF8000
0002FFF4003FFF4000
0006FFF1006FFF1000
0009FFD0009FFD0000
000CFF9000DFF90000
001FFF6001FFF60000
004FFF3004FFF30000
007FFE0008FFE00000
ENDCHAR
STARTCHAR hbar
ENCODING 295
SWIDTH 505 0
DWIDTH 12 0
BBX 14 18 -1 0
BITMAP
00000130000000
0007EFE0000000
012BFFC2200000
09FFFFFFD00000
036FFF85300000
005FFF30000000
008FFF4CFD5000
00BFFFFFFFF100
00EFFF56FFF400
02FFF802FFF300
05FFF204FFF100
08FFE007FFD000
0CFFB00AFF9000
0EFF800DFF5003
3FFF401FFF304C
6FFF102FFF74D5
9FFD000DFFFFA0
CFFA0003CED700
ENDCHAR
STARTCHAR Itilde
ENCODING 296
SWIDTH 375 0
DWIDTH 9 0
BBX 13 22 0 0
BITMAP
00003AEEC62140
0004FFFFFFFB10
00031136773000
00000000000000
000016BDF60000
0007EEFFF30000
01BF77FFF00000
0BF70AFFC00000
6FD00DFF900000
BF801FFF600000
CF704FFF200000
8F608FFE000000
0550BFFB000000
0000EFF8000000
0002FFF5000000
0005FFF1000000
0009FFD0000000
000CFFA0000000
000FFF70000000
003FFF40000000
006FFF10000000
00AFFC00000000
ENDCHAR
STARTCHAR itilde
ENCODING 297
SWIDTH 267 0
DWIDTH 6 0
BBX 9 17 -1 0
BITMAP
004DE93410
02FFFFFB00
0425DFB100
0000010000
0000000000
007FFF0000
00AFFC0000
00EFF80000
02FFF50000
05FFF20000
08FFE00000
0CFFA00000
0EFF700420
2FFF501E10
2FFF95C800
0EFFFFB000
04CEC60000
ENDCHAR
STARTCHAR Imacron
ENCODING 298
SWIDTH 375 0
DWIDTH 9 0
BBX 12 23 0 0
BITMAP
000022222221
0002FFFFFFF9
000155555552
000000000000
000000000000
000016BDF600
0007EEFFF300
01BF77FFF000
0BF70AFFC000
6FD00DFF9000
BF801FFF6000
CF704FFF2000
8F608FFE0000
0550BFFB0000
0000EFF80000
0002FFF50000
0005FFF10000
0009FFD00000
000CFFA00000
000FFF700000
003FFF400000
006FFF100000
00AFFC000000
ENDCHAR
STARTCHAR imacron
ENCODING 299
SWIDTH 267 0
DWIDTH 6 0
BBX 9 17 -1 0
BITMAP
04FFFFFF10
0377777600
0000000000
0000000000
0000000000
007FFF0000
00AFFC0000
00EFF80000
02FFF50000
05FFF20000
08FFE00000
0CFFA00000
0EFF700420
2FFF501E10
2FFF95C800
0EFFFFB000
04CEC60000
ENDCHAR
STARTCHAR Ibreve
ENCODING 300
SWIDTH 375 0
DWIDTH 9 0
BBX 13 23 0 0
BITMAP
00006830002860
00009FB315DF50
00001BFFFFB400
00000013310000
00000000000000
000016BDF60000
0007EEFFF30000
01BF77FFF00000
0BF70AFFC00000
6FD00DFF900000
BF801FFF600000
CF704FFF200000
8F608FFE000000
0550BFFB000000
0000EFF8000000
0002FFF5000000
0005FFF1000000
0009FFD0000000
000CFFA0000000
000FFF70000000
003FFF40000000
006FFF10000000
00AFFC00000000
ENDCHAR
STARTCHAR ibreve
ENCODING 301
SWIDTH 267 0
DWIDTH 6 0
BBX 9 18 -1 0
BITMAP
0184000660
01FA002FA0
00CE43CE20
003EFFC300
0000320000
0000000000
007FFF0000
00AFFC0000
00EFF80000
02FFF50000
05FFF20000
08FFE00000
0CFFA00000
0EFF700420
2FFF501E10
2FFF95C800
0EFFFFB000
04CEC60000
ENDCHAR
STARTCHAR Iogonek
ENCODING 302
SWIDTH 375 0
DWIDTH 9 0
BBX 10 29 0 -6
BITMAP
0000BFB000
00005FD000
00001EF100
00000AF300
0000000000
000016BDF6
0007EEFFF3
01BF77FFF0
0BF70AFFC0
6FD00DFF90
BF801FFF60
CF604FFF20
8F608FFE00
0550BFFB00
0000EFF800
0002FFF500
0005FFF100
0009FFD000
000CFFA000
000FFF7000
003FFF4000
006FFF1000
00AFFC0000
006E200000
03F8000000
08F7000000
07FC36A000
01DFFC2000
0014300000
ENDCHAR
STARTCHAR iogonek
ENCODING 303
SWIDTH 267 0
DWIDTH 6 0
BBX 9 23 -1 -6
BITMAP
0003DD4000
000CFFC000
000CFFC000
0004DD4000
0000000000
007FFF0000
00AFFC0000
00EFF80000
02FFF50000
05FFF20000
08FFE00000
0BFFA00000
0EFF700420
2FFF501E10
2FFF95C800
0EFFFFB000
05FEC60000
1C70000000
AF10000000
EF00000000
EF83A40000
6FFF700000
0241000000
ENDCHAR
STARTCHAR Idotaccent
ENCODING 304
SWIDTH 375 0
DWIDTH 9 0
BBX 11 23 0 0
BITMAP
00000009EA00
0000003FFF60
0000004FFF60
00000009EB00
000000000000
000016BDF600
0007EEFFF300
01BF77FFF000
0BF70AFFC000
6FD00DFF9000
BF801FFF6000
CF704FFF2000
8F608FFE0000
0550BFFB0000
0000EFF80000
0002FFF50000
0005FFF10000
0009FFD00000
000CFFA00000
000FFF700000
003FFF400000
006FFF100000
00AFFC000000
ENDCHAR
STARTCHAR dotlessi
ENCODING 305
SWIDTH 267 0
DWIDTH 6 0
BBX 9 12 -1 0
BITMAP
007FFF0000
00AFFC0000
00EFF80000
02FFF50000
05FFF20000
08FFE00000
0CFFA00000
0EFF700420
2FFF501E10
2FFF95C800
0EFFFFB000
04CEC60000
ENDCHAR
STARTCHAR IJ
ENCODING 306
SWIDTH 663 0
DWIDTH 16 0
BBX 17 23 0 -5
BITMAP
000016BDF60027AD10
0007EEFFF3009FFC00
01BF77FFF000DFF900
0BF70AFFC001FFF600
6FD00DFF9005FFF300
BF801FFF6008FFE000
CF604FFF200BFFB000
8F608FFE000FFF8000
0550BFFB003FFF5000
0000EFF8007FFF1000
0002FFF500AFFD0000
0005FFF100EFFA0000
0009FFD002FFF60000
000CFFA005FFF30000
000FFF7009FFF00000
003FFF400CFFC00000
006FFF401FFF800000
00AFFFF74FFF400000
002FE4138FFE000000
004FB000DFF7000000
001FF639FFB0000000
0005EFFFF910000000
000003441000000000
ENDCHAR
STARTCHAR ij
ENCODING 307
SWIDTH 507 0
DWIDTH 12 0
BBX 15 23 -1 -6
BITMAP
0003DD4002CE6000
000CFFC009FFF100
000CFFC009FFF100
0004DD4002CE6000
0000000000000000
007FFF001FFF6000
00AFFC004FFF3000
00EFF8007FFE0000
02FFF500AFFB0000
05FFF200DFF80000
08FFE002FFF50000
0CFFA005FFF20000
0EFF7008FFD00510
2FFF500BFFA03D00
2FFF950EFF70B600
0EFFFB2FFF6BA000
04CEB26FFFE70000
000018EFFD000000
0005E9DFFA000000
002E41FFF6000000
006E08FFF1000000
004FEFFF70000000
0007DEC500000000
ENDCHAR
STARTCHAR Jcircumflex
ENCODING 308
SWIDTH 536 0
DWIDTH 13 0
BBX 16 29 0 -5
BITMAP
0000000000003E10
000000000005EF60
00000000006FEDB0
0000000008E713E1
0000000036100042
0000000000000000
00000000049DEC00
00000003CFFFF800
0000006FC3FFF500
000006FC14FFF200
00001EF408FFD000
00006FE00BFFA000
00007FC00EFF7000
00004FB03FFF4000
000004807FFF1000
00000000AFFC0000
00000000EFF90000
00000002FFF50000
00000006FFF20000
00000009FFE00000
0000000DFFB00000
0000001FFF700000
0056514FFF400000
0CFFF98FFF100000
6FC214CFFA000000
8F7002FFF3000000
5FD44CFF80000000
08FFFFD600000000
0014420000000000
ENDCHAR
STARTCHAR jcircumflex
ENCODING 309
SWIDTH 240 0
DWIDTH 6 0
BBX 12 24 -5 -6
BITMAP
000000000A80
00000001BFC0
0000002DFCF2
000003DA30B7
000007300016
000000000000
0000007FFF00
000000AFFC00
000000DFF900
000001FFF600
000004FFF300
000008FFE000
00000BFFB000
00000EFF8001
00002FFF5078
00005FFF21D2
00009FFE0A70
0000CFFEC500
004AFFF90000
09FEFFF40000
7F55FFF10000
C80AFFA00000
AD9FFE200000
1AEEA2000000
ENDCHAR
STARTCHAR Kcommaaccent
ENCODING 310
SWIDTH 601 0
DWIDTH 14 0
BBX 16 24 0 -6
BITMAP
000027BDF6002DF7
0019FCFFF300CF80
03DE37FFE009F900
2EF30AFFB07F9000
9FB00DFF74FA0000
CF702FFF6EB00000
AF605FFFDB100000
29608FFFFEDA2000
0000BFFA29FFC000
0000EFF603FFF000
0002FFF303FFF000
0006FFF006FFD000
0009FFC009FFA000
000CFF900DFF6000
000FFF602FFF3000
003FFF305FFF0000
007FFF005FFE0000
00AFFC001CFF5000
0000000000000000
000000AE40000000
000000DF80000000
0000004F40000000
0000009800000000
0000002000000000
ENDCHAR
STARTCHAR kcommaaccent
ENCODING 311
SWIDTH 518 0
DWIDTH 12 0
BBX 15 23 -1 -6
BITMAP
0002579000000000
0009FFD000000000
000CFFA000000000
001FFF6000000000
004FFF3000000000
007FFF001AF91000
00AFFC02CE400000
00DFF84EA1000000
01FFFCFEA7000000
05FFFFFFFF800000
08FFFA4CFFD00000
0BFFB009FFE00000
0EFF800BFFB00220
2FFF400EFF801D20
6FFF100EFFB3AA00
9FFD000BFFFFD100
CFFA0002AEEA2000
0000000000000000
0000273000000000
0000AFD000000000
00004FB000000000
00001E4000000000
0000650000000000
ENDCHAR
STARTCHAR kgreenlandic
ENCODING 312
SWIDTH 518 0
DWIDTH 12 0
BBX 15 12 -1 0
BITMAP
007FFF001AF91000
00AFFC02CE400000
00EFF84EA1000000
02FFFCFEA7000000
05FFFFFFFF800000
08FFFA4CFFD00000
0BFFB009FFE00000
0EFF800BFFB00220
3FFF400EFF801D20
6FFF100EFFB3AA00
9FFD000BFFFFD100
CFFA0002AEEA2000
ENDCHAR
STARTCHAR Lacute
ENCODING 313
SWIDTH 379 0
DWIDTH 9 0
BBX 16 30 0 -6
BITMAP
0000000005870000
000000001EF60000
000000007FB00000
00000001EE200000
00000007F7000000
0000000000000000
000016BDF6000000
0007EEFFF3000000
01CF77FFF0000000
0CF70AFFC0000000
7FD00DFF80000000
CF801FFF50000000
CF605FFF20000000
7F608FFE00000000
0330BFFA00000000
0000EFF700000000
0003FFF400000000
0006FFF100000000
0009FFC000000000
000DFF9000000000
001FFF6000000000
004FFF2000000000
008FFE0000000000
00BFFFB300000000
00016DFF80000000
0000018FFC300000
00000004EFFA4114
000000003DFFFFFA
0000000001BFFFF5
000000000006DE80
ENDCHAR
STARTCHAR lacute
ENCODING 314
SWIDTH 267 0
DWIDTH 6 0
BBX 10 23 -1 0
BITMAP
0000001883
0000007FD0
000001EF30
000007F900
00000DD100
0000000000
000279B000
0009FFD000
000DFF9000
001FFF6000
004FFF3000
007FFE0000
00AFFB0000
00EFF80000
02FFF50000
05FFF10000
08FFD00000
0CFFA00000
0EFF700520
2FFF402E10
2FFFB8E800
0EFFFFB000
04CEC60000
ENDCHAR
STARTCHAR Lcommaaccent
ENCODING 315
SWIDTH 379 0
DWIDTH 9 0
BBX 16 24 0 -6
BITMAP
000016BDF6000000
0007EEFFF3000000
01CF77FFF0000000
0CF70AFFC0000000
7FD00DFF80000000
CF801FFF50000000
CF605FFF20000000
7F608FFE00000000
0330BFFA00000000
0000EFF700000000
0003FFF400000000
0006FFF100000000
0009FFC000000000
000DFF9000000000
001FFF6000000000
004FFF2000000000
008FFE0000000000
00BFFFB300000000
00016DFF80000000
0057118FFC300000
01FF7004EFFA4114
00CF50003DFFFFFA
005D000001BFFFF5
00A200000006DE80
ENDCHAR
STARTCHAR lcommaaccent
ENCODING 316
SWIDTH 267 0
DWIDTH 6 0
BBX 9 23 -1 -6
BITMAP
000279B000
0009FFD000
000DFF9000
001FFF6000
004FFF3000
007FFE0000
00AFFB0000
00EFF80000
02FFF50000
05FFF10000
08FFD00000
0CFFA00000
0EFF700520
2FFF402E10
2FFFB8E800
0EFFFFB000
04CEC60000
0000000000
0371000000
0EF8000000
08F7000000
04D1000000
0820000000
ENDCHAR
STARTCHAR Lcaron
ENCODING 317
SWIDTH 379 0
DWIDTH 9 0
BBX 16 30 0 -6
BITMAP
0000001600005400
0000000D505CB100
00000008ECF90000
00000003FF700000
00000000D6000000
0000000000000000
000016BDF6000000
0007EEFFF3000000
01CF77FFF0000000
0CF70AFFC0000000
7FD00DFF80000000
CF801FFF50000000
CF605FFF20000000
7F608FFE00000000
0330BFFA00000000
0000EFF700000000
0003FFF400000000
0006FFF100000000
0009FFC000000000
000DFF9000000000
001FFF6000000000
004FFF2000000000
008FFE0000000000
00BFFFB300000000
00016DFF80000000
0000018FFC300000
00000004EFFA4114
000000003DFFFFFA
0000000001BFFFF5
000000000006DE80
ENDCHAR
STARTCHAR lcaron
ENCODING 318
SWIDTH 267 0
DWIDTH 6 0
BBX 11 18 -1 0
BITMAP
00000001CE40
00001353FF90
0008FFE0AF70
000BFFA07D10
000EFF71C300
003FFF400000
006FFF100000
00AFFC000000
00DFF9000000
01FFF6000000
05FFF2000000
08FFE0000000
0BFFB0000000
0EFF70032000
2FFF501D1000
2FFF95C90000
0EFFFFC10000
04CEC6000000
ENDCHAR
STARTCHAR Ldot
ENCODING 319
SWIDTH 605 0
DWIDTH 15 0
BBX 16 24 0 -6
BITMAP
000016BDF6000000
0006EEFFF3000000
00BF87FFF0000000
0BF80AFFC0000000
6FE00DFF80000000
BF901FFF50000000
CF705FFF20000000
9F608FFE00000000
1860BFFA00000000
0000EFF700000000
0003FFF4009EA000
0006FFF104FFF500
0009FFC004FFF500
000DFF90009EA000
001FFF6000000000
004FFF3000000000
008FFE0000000000
00BFFF9200000000
00016DFE70000000
0000018FFC300000
00000004EFF93114
000000003DFFFFFA
0000000001BFFFF5
000000000006DE80
ENDCHAR
STARTCHAR ldot
ENCODING 320
SWIDTH 353 0
DWIDTH 8 0
BBX 10 17 -1 0
BITMAP
0005BDE000
000AFFC000
000DFF9000
001FFF6000
005FFF3000
008FFE0000
00BFFB0000
00EFF84EB0
02FFF5AFF3
05FFF25EB1
09FFE00000
0CFFB00000
0FFF700000
2FFF500000
2FFF930000
0DFFFB0000
03CEB20000
ENDCHAR
STARTCHAR Lslash
ENCODING 321
SWIDTH 392 0
DWIDTH 9 0
BBX 16 24 0 -6
BITMAP
000016BDF6000000
0007EEFFF4000000
01CF77FFF1000000
0CF70AFFC0000000
7FD00DFF90100000
CF801FFF67D00000
CF604FFFED500000
7F608FFF81000000
0330BFFB00000000
0019FFF700000000
00ACFFF400000000
0026FFF100000000
0009FFC000000000
000CFF9000000000
001FFF6000000000
004FFF2000000000
008FFE0000000000
00BFFFB300000000
00016DFF80000000
0000018FFC300000
00000004EFF93114
000000003DFFFFFA
0000000001BFFFF5
000000000006DE80
ENDCHAR
STARTCHAR lslash
ENCODING 322
SWIDTH 286 0
DWIDTH 7 0
BBX 9 17 -1 0
BITMAP
000279B100
0009FFD000
000DFF9000
001FFF6000
004FFF3270
007FFF8F80
00AFFFC400
00EFFA0000
05FFF50000
9FFFF10000
7AFFD00000
0CFFA00000
0FFF700520
2FFF402E10
2FFFB8E800
0DFFFFB000
04CEC60000
ENDCHAR
STARTCHAR Nacute
ENCODING 323
SWIDTH 702 0
DWIDTH 17 0
BBX 18 24 0 0
BITMAP
000000000000007830
00000000000006FE10
0000000000000DF500
0000000000006FA000
000000000000DE1000
000000000000000000
00016BDFD400003FF2
004DFDFFF900006FE0
04FF56FFFC00009FA0
1EF509FFFF1000CF70
8FD00CFFFF4000FF40
BF901FFFFF8003FF10
CF804FFDFFB006FC00
9F907FE7FFE009F900
18B0AFA4FFF30DF600
0000EF70FFF61FF200
0002FF30BFF94FE000
0005FE008FFD7FB000
0009FB004FFFBF8000
000CF8001FFFFF4000
001FF4000CFFFF1000
004FF10009FFFD0000
007FC00005FFFA0000
00AF900002FFF60000
ENDCHAR
STARTCHAR nacute
ENCODING 324
SWIDTH 505 0
DWIDTH 12 0
BBX 14 18 -1 0
BITMAP
000000000BFB00
000000003FE200
00000000AF7000
00000002FC0000
00000004830000
00000000000000
007FFE7CED5000
00AFFFAAFFF100
00EFFB02FFF400
02FFF403FFF300
05FFF105FFF100
08FFD008FFD000
0BFFA00BFF9000
0EFF700EFF5006
3FFF402FFF304B
6FFF102FFF74D4
9FFD000DFFFF90
CFFA0003CED600
ENDCHAR
STARTCHAR Ncommaaccent
ENCODING 325
SWIDTH 668 0
DWIDTH 16 0
BBX 18 24 0 -6
BITMAP
00016BDFD400003FF2
004DFDFFF900006FE0
04FF56FFFC00009FA0
1EF509FFFF1000CF70
8FD00CFFFF4000FF40
BF901FFFFF8003FF10
CF804FFDFFB006FC00
9F907FE7FFE009F900
18B0AFA4FFF30DF600
0000EF70FFF61FF200
0002FF30BFF94FE000
0005FE008FFD7FB000
0009FB004FFFBF8000
000CF8001FFFFF4000
001FF4000CFFFF1000
004FF10009FFFD0000
007FC00005FFFA0000
00AF900002FFF60000
000000000000000000
000000471000000000
000001FF6000000000
000000AF5000000000
0000006C0000000000
000000910000000000
ENDCHAR
STARTCHAR ncommaaccent
ENCODING 326
SWIDTH 505 0
DWIDTH 12 0
BBX 14 18 -1 -6
BITMAP
007FFE7CED5000
00AFFFAAFFF100
00EFFB02FFF400
02FFF403FFF300
05FFF105FFF100
08FFD008FFD000
0BFFA00BFF9000
0EFF700EFF5006
3FFF402FFF304B
6FFF102FFF74D4
9FFD000DFFFF90
CFFA0003CED600
00000000000000
00006500000000
0005FF20000000
0001DF10000000
0000B800000000
00028000000000
ENDCHAR
STARTCHAR Ncaron
ENCODING 327
SWIDTH 668 0
DWIDTH 16 0
BBX 18 24 0 0
BITMAP
000000000034000162
00000000002E207E70
00000000000CDDF600
000000000007FE4000
000000000002E30000
000000000000000000
00016BDFD400003FF2
004DFDFFF900006FE0
04FF56FFFC00009FA0
1EF509FFFF1000CF70
8FD00CFFFF4000FF40
BF901FFFFF8003FF10
CF804FFDFFB006FC00
9F907FE7FFE009F900
18B0AFA4FFF30DF600
0000EF70FFF61FF200
0002FF30BFF94FE000
0005FE008FFD7FB000
0009FB004FFFBF8000
000CF8001FFFFF4000
001FF4000CFFFF1000
004FF10009FFFD0000
007FC00005FFFA0000
00AF900002FFF60000
ENDCHAR
STARTCHAR ncaron
ENCODING 328
SWIDTH 505 0
DWIDTH 12 0
BBX 14 18 -1 0
BITMAP
00000960029A10
000004F49F9000
000000EFF80000
0000009F600000
00000034000000
00000000000000
007FFE7CED5000
00AFFFAAFFF100
00EFFB02FFF400
02FFF403FFF300
05FFF105FFF100
08FFD008FFD000
0BFFA00BFF9000
0EFF700EFF5006
3FFF402FFF304B
6FFF102FFF74D4
9FFD000DFFFF90
CFFA0003CED600
ENDCHAR
STARTCHAR napostrophe
ENCODING 329
SWIDTH 505 0
DWIDTH 12 0
BBX 14 18 -1 0
BITMAP
00BE6000000000
01FFC000000000
006F8000000000
005E1000000000
00A30000000000
00000000000000
007FFE7CED5000
00AFFFAAFFF100
00EFFB02FFF400
02FFF403FFF300
05FFF105FFF100
08FFD008FFD000
0BFFA00BFF9000
0EFF700EFF5006
3FFF402FFF304B
6FFF102FFF74D4
9FFD000DFFFF90
CFFA0003CED600
ENDCHAR
STARTCHAR Eng
ENCODING 330
SWIDTH 723 0
DWIDTH 17 0
BBX 18 23 1 -5
BITMAP
00005ADFE600000EF6
003CFEFFFC00002FF2
03EF83FFFE00006FE0
1EF806FFFF30009FA0
7FE109FFFF6000CF70
AFB00DFFFFA001FF30
BF901FFDFFD004FF00
8FB05FF6FFF107FB00
08B18FB1FFF40AF800
0000CF80CFF80EF400
0000FF408FFB2FF100
0003FF104FFE5FC000
0007FD000EFFBF9000
000AF9000BFFFF5000
000EF60007FFFF2000
002FF20003FFFD0000
006FE00000EFF90000
009FA00000AFF50000
000009B400AFD00000
00004FD101FF500000
00002FD12CF9000000
000006EFFE70000000
000000022000000000
ENDCHAR
STARTCHAR eng
ENCODING 331
SWIDTH 505 0
DWIDTH 12 0
BBX 12 18 -1 -6
BITMAP
007FFD5CFD40
00BFFEFFFFE0
00EFFE57FFF1
02FFF703FFF1
05FFF205FFF0
08FFE007FFC0
0CFFA00AFF90
0FFF700EFF60
3FFF402FFF30
6FFF105FFF00
9FFD008FFC00
DFF900CFF800
00005BFFF500
000A96FFF200
007707FFD000
00C10DFF7000
00A9BFFC0000
002BEEA10000
ENDCHAR
STARTCHAR Omacron
ENCODING 332
SWIDTH 665 0
DWIDTH 16 0
BBX 16 23 0 0
BITMAP
0000000222222210
0000005FFFFFFF60
0000002555555510
0000000000000000
0000000000000000
0000026BDEFD9200
00029FFB879EFE40
004EF8148812EFE1
05FF40AFF500AFF6
1EF709FFA0008FF9
6FE03FFF20007FFB
9FA0CFFA00008FFB
6F93FFF400009FF9
0669FFE00000CFF8
000DFFA00001FFF4
001FFF700004FFF1
004FFF40000AFFB0
005FFF30001EFF50
006FFF20009FFC00
005FFF4003FFF300
001FFF903EFF6000
0008FFFEFFE50000
00006CFEC8100000
ENDCHAR
STARTCHAR omacron
ENCODING 333
SWIDTH 433 0
DWIDTH 10 0
BBX 15 17 -1 0
BITMAP
0007FFFFFFF30000
0004777777700000
0000000000000000
0000000000000000
0000000000000000
00006CEEA1000000
000AFFC8FA000000
008FFC00DF000420
03FFF406FF56BA10
0AFFC006FFDA4000
1FFF7001FF000000
4FFF4004FC000000
6FFF2008F8000000
7FFF201EF3000000
5FFF73CF90000000
1DFFFFFB10000000
029DEC6000000000
ENDCHAR
STARTCHAR Obreve
ENCODING 334
SWIDTH 665 0
DWIDTH 16 0
BBX 16 23 0 0
BITMAP
0000000584000187
00000007FD314BF8
00000000AFFFFC50
0000000001331000
0000000000000000
0000026BDEFD9200
00029FFB879EFE40
004EF8148812EFE1
05FF40AFF500AFF6
1EF709FFA0008FF9
6FE03FFF20007FFB
9FA0CFFA00008FFB
6F93FFF400009FF9
0669FFE00000CFF8
000DFFA00001FFF4
001FFF700004FFF1
004FFF40000AFFB0
005FFF30001EFF50
006FFF20009FFC00
005FFF4003FFF300
001FFF903EFF6000
0008FFFEFFE50000
00006CFEC8100000
ENDCHAR
STARTCHAR obreve
ENCODING 335
SWIDTH 433 0
DWIDTH 10 0
BBX 15 18 -1 0
BITMAP
0003850000781000
0005FD0003FE0000
0001EF725DF50000
00004DFFFB300000
0000002310000000
0000000000000000
00006CEEA1000000
000AFFC8FA000000
008FFC00DF000420
03FFF406FF56BA10
0AFFC006FFDA4000
1FFF7001FF000000
4FFF4004FC000000
6FFF2008F8000000
7FFF201EF3000000
5FFF73CF90000000
1DFFFFFB10000000
029DEC6000000000
ENDCHAR
STARTCHAR Ohungarumlaut
ENCODING 336
SWIDTH 665 0
DWIDTH 16 0
BBX 18 23 0 0
BITMAP
00000000003FF35FE2
0000000000BF50DF40
0000000004F706F600
000000000CA01D8000
000000000000000000
0000026BDEFD920000
00029FFB879EFE4000
004EF8148812EFE100
05FF40AFF500AFF600
1EF709FFA0008FF900
6FE03FFF20007FFB00
9FA0CFFA00008FFB00
6F93FFF400009FF900
0669FFE00000CFF800
000DFFA00001FFF400
001FFF700004FFF100
004FFF40000AFFB000
005FFF30001EFF5000
006FFF20009FFC0000
005FFF4003FFF30000
001FFF903EFF600000
0008FFFEFFE5000000
00006CFEC810000000
ENDCHAR
STARTCHAR ohungarumlaut
ENCODING 337
SWIDTH 433 0
DWIDTH 10 0
BBX 15 18 -1 0
BITMAP
000000AFA0CF9000
000003FC15FB0000
00000CD20DC10000
00005E306E200000
0000000000000000
0000000000000000
00006CEEA1000000
000AFFC8FA000000
008FFC00DF000420
03FFF406FF56BA10
0AFFC006FFDA4000
1FFF7001FF000000
4FFF4004FC000000
6FFF2008F8000000
7FFF201EF3000000
5FFF73CF90000000
1DFFFFFB10000000
029DEC6000000000
ENDCHAR
STARTCHAR OE
ENCODING 338
SWIDTH 846 0
DWIDTH 20 0
BBX 22 18 0 0
BITMAP
0000026BDEFEBCEFFFFFFC
00029FFB879EFFFFFFFFF6
004EF817BA12FFE479BC70
05FF41CFF300AFF5000000
1EF60AFF80008FF9000000
7FE05FFF20007FFB000000
9FA0DFFA00008FFB000000
6F94FFF400009FFA000000
0569FFE10000BFFFFFA000
000DFFB00000EFFCBB5000
001FFF800003FFF1000000
004FFF500008FFB0000000
005FFF30000DFF50000000
006FFF20006FFD00000000
005FFF3001DFF400000000
001FFF600AFFD888883000
0008FFE8CFFFFFFFFF3000
00006CFFFFFFFFFFFE0000
ENDCHAR
STARTCHAR oe
ENCODING 339
SWIDTH 663 0
DWIDTH 16 0
BBX 19 12 -1 0
BITMAP
00005BEEA106CFE91000
001AFFA8F89FFD8F8000
009FF900DFFFE10CB000
03FFE108FFFF700D8000
09FFA00BFFFF105E2000
0DFF6002EFFB06E40000
0FFF3001FFFED9200000
2FFF1004FFF600000A10
2FFF100AFFF400009700
1FFF937FFFF9002A9000
0BFFFFFB6FFFDCF80000
019EFD7005CFEA400000
ENDCHAR
STARTCHAR Racute
ENCODING 340
SWIDTH 601 0
DWIDTH 14 0
BBX 14 24 0 0
BITMAP
00000000003FF4
0000000000AF90
0000000003FD10
000000000AF500
00000000076000
00000000000000
000027BDFEC810
0019FFB978DFE3
02DF9246700CFC
1EF709FFC008FF
9FD00DFF800BFB
CF801FFF405FF3
BF604FFF38FE40
2B707FFFFFFD40
0000BFFB5BFFD0
0000EFF603FFF1
0002FFF303FFF0
0005FFF005FFD0
0008FFC009FFA0
000CFF900DFF60
000FFF601FFF30
003FFF304FFF00
006FFF005FFE00
00AFFC001CFF50
ENDCHAR
STARTCHAR racute
ENCODING 341
SWIDTH 376 0
DWIDTH 9 0
BBX 11 18 -1 0
BITMAP
00000002FF40
0000000AFA00
0000002FE100
0000009F6000
000000870000
000000000000
007FFE4BEB10
00AFFFDDFF40
00EFFA03EB10
02FFF4000000
05FFF1000000
08FFD0000000
0BFFA0000000
0EFF70000000
3FFF40000000
6FFF10000000
9FFD00000000
CFFA00000000
ENDCHAR
STARTCHAR Rcommaaccent
ENCODING 342
SWIDTH 601 0
DWIDTH 14 0
BBX 14 24 0 -6
BITMAP
000027BDFEC810
0019FFB978DFE3
02DF9246700CFC
1EF709FFC008FF
9FD00DFF800BFB
CF801FFF405FF3
BF604FFF38FE40
2B707FFFFFFD40
0000BFFB5BFFD0
0000EFF603FFF1
0002FFF303FFF0
0005FFF005FFD0
0008FFC009FFA0
000CFF900DFF60
000FFF601FFF30
003FFF304FFF00
006FFF005FFE00
00AFFC001CFF50
00000000000000
000003EC000000
000005FF100000
000000BC000000
000002D2000000
00000110000000
ENDCHAR
STARTCHAR rcommaaccent
ENCODING 343
SWIDTH 376 0
DWIDTH 9 0
BBX 11 18 -1 -6
BITMAP
007FFE4BEB10
00AFFFDDFF40
00EFFA03EB10
02FFF4000000
05FFF1000000
08FFD0000000
0BFFA0000000
0EFF70000000
3FFF40000000
6FFF10000000
9FFD00000000
CFFA00000000
000000000000
003710000000
00DF90000000
007F80000000
003E10000000
008300000000
ENDCHAR
STARTCHAR Rcaron
ENCODING 344
SWIDTH 601 0
DWIDTH 14 0
BBX 15 24 0 0
BITMAP
0000000096002AA0
000000004E49F800
000000000EFF7000
000000000AF50000
0000000003300000
0000000000000000
000027BDFEC81000
0019FFB978DFE300
02DF9246700CFC00
1EF709FFC008FF00
9FD00DFF800BFB00
CF801FFF405FF300
BF604FFF38FE4000
2B707FFFFFFD4000
0000BFFB5BFFD000
0000EFF603FFF100
0002FFF303FFF000
0005FFF005FFD000
0008FFC009FFA000
000CFF900DFF6000
000FFF601FFF3000
003FFF304FFF0000
006FFF005FFE0000
00AFFC001CFF5000
ENDCHAR
STARTCHAR rcaron
ENCODING 345
SWIDTH 376 0
DWIDTH 9 0
BBX 11 18 -1 0
BITMAP
0000C2004B70
00008C4BF500
00003FFE4000
00000DE30000
000005200000
000000000000
007FFE4BEB10
00AFFFDDFF40
00EFFA03EB10
02FFF4000000
05FFF1000000
08FFD0000000
0BFFA0000000
0EFF70000000
3FFF40000000
6FFF10000000
9FFD00000000
CFFA00000000
ENDCHAR
STARTCHAR Sacute
ENCODING 346
SWIDTH 570 0
DWIDTH 14 0
BBX 14 24 0 0
BITMAP
00000000007FE1
0000000001EF50
0000000007FA00
000000000DE100
00000000284000
00000000000000
0000018CEEC600
00003EFFA8DF90
0000DFF7002FF2
0004FFF2002FF3
0005FFF3009FE1
0002FFFA005940
0000BFFF700000
00002EFFF60000
000003FFFF5000
0000005FFFE200
00389408FFFB00
04FFFE10CFFF20
0DFF60006FFF50
2FFA00005FFF30
2FF900008FFE10
0DFE2003EFF600
03EFEBCFFE6000
0029DFEC820000
ENDCHAR
STARTCHAR sacute
ENCODING 347
SWIDTH 382 0
DWIDTH 9 0
BBX 11 18 -1 0
BITMAP
00000000EF70
00000006FD00
0000000DF400
0000005F9000
000000791000
000014680000
0000CFFF1000
0002FFFF2000
0007EFFF2000
000D8FFF3000
006D4FFF5000
00D62FFF6000
05E01FFF7000
4FE10FFF8000
AFE10FFF8880
A9104FFFE600
5E88EFFB2000
05CFEB500000
ENDCHAR
STARTCHAR Scircumflex
ENCODING 348
SWIDTH 570 0
DWIDTH 14 0
BBX 14 24 0 0
BITMAP
00000000007B00
0000000009FF10
00000001BFCF60
0000001CC407A0
00000054000060
00000000000000
0000018CEEC600
00003EFFA8DF90
0000DFF7002FF2
0004FFF2002FF3
0005FFF3009FE1
0002FFFA005940
0000BFFF700000
00002EFFF60000
000003FFFF5000
0000005FFFE200
00389408FFFB00
04FFFE10CFFF20
0DFF60006FFF50
2FFA00005FFF30
2FF900008FFE10
0DFE2003EFF600
03EFEBCFFE6000
0029DFEC820000
ENDCHAR
STARTCHAR scircumflex
ENCODING 349
SWIDTH 382 0
DWIDTH 9 0
BBX 11 18 -1 0
BITMAP
0000001B6000
000002CFA000
00002DFDE100
0003EA31D500
001830003500
000014680000
0000CFFF1000
0002FFFF2000
0007EFFF2000
000D8FFF3000
006D4FFF5000
00D62FFF6000
05E01FFF7000
4FE10FFF8000
AFE10FFF8880
A9104FFFE600
5E88EFFB2000
05CFEB500000
ENDCHAR
STARTCHAR Scedilla
ENCODING 350
SWIDTH 570 0
DWIDTH 14 0
BBX 14 24 0 -6
BITMAP
0000018CEEC600
00003EFFA8DF90
0000DFF7003FF2
0004FFF2002FF3
0005FFF3009FF1
0003FFFA006A50
0000BFFF700000
00002EFFF50000
000004FFFF4000
0000007FFFE200
00167209FFFA00
03EFFE11DFFF20
0CFF82007FFF50
2FFB00005FFF40
2FF900007FFE10
0EFD0001DFF700
05FFC89EFF8000
003AEFFDA40000
00000C40000000
00003FEF700000
0000228FE00000
0005639FB00000
0002DFFD200000
00000430000000
ENDCHAR
STARTCHAR scedilla
ENCODING 351
SWIDTH 382 0
DWIDTH 9 0
BBX 11 19 -1 -6
BITMAP
0000379B0000
0000CFFF1000
0002FFFF2000
0008DFFF3000
000E6FFF4000
006B3FFF5000
00D32FFF6000
06C00FFF7000
4FF20EFF8160
AED11FFF9B30
AC11AFFFD300
4FFFFFF91000
05DFEB500000
006A00000000
00DEFB100000
0122FF400000
1935FF200000
0AFFE6000000
003410000000
ENDCHAR
STARTCHAR Scaron
ENCODING 352
SWIDTH 570 0
DWIDTH 14 0
BBX 16 24 0 0
BITMAP
00000000870029B1
000000003F58FA00
000000000DFF8000
0000000008F60000
0000000002400000
0000000000000000
0000018CEEC60000
00003EFFA8DF9000
0000DFF7002FF200
0004FFF2002FF300
0005FFF3009FE100
0002FFFA00594000
0000BFFF70000000
00002EFFF6000000
000003FFFF500000
0000005FFFE20000
00389408FFFB0000
04FFFE10CFFF2000
0DFF60006FFF5000
2FFA00005FFF3000
2FF900008FFE1000
0DFE2003EFF60000
03EFEBCFFE600000
0029DFEC82000000
ENDCHAR
STARTCHAR scaron
ENCODING 353
SWIDTH 369 0
DWIDTH 9 0
BBX 12 18 -1 0
BITMAP
0000870029B1
00003F48F900
00000DFF8000
000009F60000
000003400000
000025790000
0000CFFF1000
0002FFFF2000
0008EFFF3000
000D7FFF4000
006C3FFF5000
00D42FFF6000
06D01FFF7000
4FF20EFF8050
ADA00FFFAC50
AB008FFFD400
5FEEFFF91000
05CFEB500000
ENDCHAR
STARTCHAR uni0162
ENCODING 354
SWIDTH 481 0
DWIDTH 12 0
BBX 18 24 0 -6
BITMAP
00015ADEFEB8410282
005EEA7EFFFFFFFFF1
05FC101FFFFFFFFFA0
2EF1004FFFA8ACC810
7FA0007FFF40000000
BF7000AFFF10000000
CF6000DFFC00000000
BF6001FFF900000000
3C8004FFF500000000
000007FFF200000000
00000AFFE000000000
00000EFFA000000000
00002FFF7000000000
00005FFF3000000000
00008FFF0000000000
0000BFFC0000000000
0000EFF80000000000
0002FFF50000000000
00001E100000000000
00007DCA2000000000
000055DF8000000000
000843CF6000000000
0006FFFA0000000000
000024200000000000
ENDCHAR
STARTCHAR uni0163
ENCODING 355
SWIDTH 267 0
DWIDTH 6 0
BBX 9 22 -1 -6
BITMAP
0003688000
000CFFA000
001FFF6000
004FFF3000
03FFFFF700
02CFFE7300
00CFFA0000
01FFF60000
04FFF30000
07FFE00000
0BFFB00000
0EFF800210
2FFF501D20
2FFF94B900
0EFFFFC100
04EFC60000
01E1000000
07EDC20000
044CF90000
844CF60000
6FFFA00000
0242000000
ENDCHAR
STARTCHAR Tcaron
ENCODING 356
SWIDTH 481 0
DWIDTH 12 0
BBX 18 24 0 0
BITMAP
000000025000063000
00000001E306D80000
00000000BDDF600000
000000006FF5000000
000000001E30000000
000000000000000000
00015ADEFEB8410282
005EEA7EFFFFFFFFF1
05FC101FFFFFFFFFA0
2EF1004FFFA8ACC810
7FA0007FFF40000000
BF7000AFFF10000000
CF6000DFFC00000000
BF6001FFF900000000
3C8004FFF500000000
000007FFF200000000
00000AFFE000000000
00000EFFA000000000
00002FFF7000000000
00005FFF3000000000
00008FFF0000000000
0000BFFC0000000000
0000EFF80000000000
0002FFF50000000000
ENDCHAR
STARTCHAR tcaron
ENCODING 357
SWIDTH 267 0
DWIDTH 6 0
BBX 11 18 -1 0
BITMAP
000000009E80
00000000EFD0
000146605FA0
000CFFA04E20
001FFF709400
004FFF300000
03FFFFF70000
02CFFE730000
00CFFA000000
01FFF6000000
04FFF3000000
07FFE0000000
0BFFB0000000
0EFF80021000
2FFF501D2000
2FFF94B90000
0EFFFFC10000
04DEC6000000
ENDCHAR
STARTCHAR Tbar
ENCODING 358
SWIDTH 481 0
DWIDTH 12 0
BBX 18 18 0 0
BITMAP
00016BDEFEB8410282
006EE97EFFFFFFFFF1
08FA101FFFDFFFFFA0
3FE1004FFF517BC810
9F90007FFF10000000
CF7000AFFD00000000
CF6000DFFA00000000
7F7001FFF600000000
033004FFF300000000
002228FFF222200000
00EFFFFFFFFFA00000
00555EFFA555200000
00001FFF5000000000
00005FFF2000000000
00008FFE0000000000
0000BFFB0000000000
0000EFF80000000000
0002FFF50000000000
ENDCHAR
STARTCHAR tbar
ENCODING 359
SWIDTH 267 0
DWIDTH 6 0
BBX 9 16 -1 0
BITMAP
0003688000
000CFFA000
001FFF6000
004FFF3000
03FFFFF700
04DFFD9300
4FFFFFF300
27FFF75000
06FFF10000
09FFD00000
0CFFA00000
0FFF700520
2FFF502E10
2FFFA6D800
0DFFFFB000
03CEC60000
ENDCHAR
STARTCHAR Utilde
ENCODING 360
SWIDTH 716 0
DWIDTH 17 0
BBX 20 22 -1 0
BITMAP
00000000004BEFDA8860
000000000599DFFFF900
00000000010004762000
00000000000000000000
0000026BDED00005FFF1
00018FCDFFB00008FFC0
002DE40EFF70000CFF90
02EF303FFF30000FFF60
0AF9006FFE00003FFF30
1FF400AFFA00007FFE00
1FF200EFF60000AFFB00
0CF203FFF20000DFF800
015207FFD00002FFF500
00000AFF900005FFF100
00000EFF500009FFC000
00002FFF20000DFF8000
00004FFE00003FFF3000
00005FFD00009FFD0000
00006FFE0002EFF60000
00004FFFA57DFFC00000
00000CFFFFFFFC100000
0000018DEFEB60000000
ENDCHAR
STARTCHAR utilde
ENCODING 361
SWIDTH 505 0
DWIDTH 12 0
BBX 14 17 -1 0
BITMAP
00002AEEC72250
0003EFFFFFFE20
0005237DFFB200
00000000100000
00000000000000
007FFF008FFE00
00AFFC00BFFA00
00EFF800EFF700
02FFF503FFF400
05FFF206FFF100
08FFE009FFD000
0CFFA00DFF9000
0EFF701FFF6005
2FFF507FFF304C
2FFFA6EFFF86D4
0EFFFF5DFFFF80
04CEC404DEC500
ENDCHAR
STARTCHAR Umacron
ENCODING 362
SWIDTH 716 0
DWIDTH 17 0
BBX 20 23 -1 0
BITMAP
00000000002222222200
0000000000EFFFFFFB00
00000000015555555300
00000000000000000000
00000000000000000000
0000026BDED00005FFF1
00018FCDFFB00008FFC0
002DE40EFF70000CFF90
02EF303FFF30000FFF60
0AF9006FFE00003FFF30
1FF400AFFA00007FFE00
1FF200EFF60000AFFB00
0CF203FFF20000DFF800
015207FFD00002FFF500
00000AFF900005FFF100
00000EFF500009FFC000
00002FFF20000DFF8000
00004FFE00003FFF3000
00005FFD00009FFD0000
00006FFE0002EFF60000
00004FFFA57DFFC00000
00000CFFFFFFFC100000
0000018DEFEB60000000
ENDCHAR
STARTCHAR umacron
ENCODING 363
SWIDTH 505 0
DWIDTH 12 0
BBX 14 17 -1 0
BITMAP
0001FFFFFFFA00
00017777777300
00000000000000
00000000000000
00000000000000
007FFF008FFE00
00AFFC00BFFA00
00EFF800EFF700
02FFF503FFF400
05FFF206FFF100
08FFE009FFD000
0CFFA00DFF9000
0EFF701FFF6005
2FFF507FFF304C
2FFFA6EFFF86D4
0EFFFF5DFFFF80
04CEC404DEC500
ENDCHAR
STARTCHAR Ubreve
ENCODING 364
SWIDTH 716 0
DWIDTH 17 0
BBX 20 23 -1 0
BITMAP
00000000007810004840
0000000000CF9226EE30
00000000003CFFFFA200
00000000000023300000
00000000000000000000
0000026BDED00005FFF1
00018FCDFFB00008FFC0
002DE40EFF70000CFF90
02EF303FFF30000FFF60
0AF9006FFE00003FFF30
1FF400AFFA00007FFE00
1FF200EFF60000AFFB00
0CF203FFF20000DFF800
015207FFD00002FFF500
00000AFF900005FFF100
00000EFF500009FFC000
00002FFF20000DFF8000
00004FFE00003FFF3000
00005FFD00009FFD0000
00006FFE0002EFF60000
00004FFFA57DFFC00000
00000CFFFFFFFC100000
0000018DEFEB60000000
ENDCHAR
STARTCHAR ubreve
ENCODING 365
SWIDTH 505 0
DWIDTH 12 0
BBX 14 18 -1 0
BITMAP
00018700005830
0001FF1001DF30
0000BFA23BF800
00002BFFFD5000
00000023200000
00000000000000
007FFF008FFE00
00AFFC00BFFA00
00EFF800EFF700
02FFF503FFF400
05FFF206FFF100
08FFE009FFD000
0CFFA00DFF9000
0EFF701FFF6005
2FFF507FFF304C
2FFFA6EFFF86D4
0EFFFF5DFFFF80
04CEC404DEC500
ENDCHAR
STARTCHAR Uring
ENCODING 366
SWIDTH 716 0
DWIDTH 17 0
BBX 20 24 -1 0
BITMAP
00000000000001000000
0000000000007FE20000
000000000001E6980000
000000000002D3880000
000000000000CFE20000
00000000000014100000
0000026BDED00005FFF1
00018FCDFFB00008FFC0
002DE40EFF70000CFF90
02EF303FFF30000FFF60
0AF9006FFE00003FFF30
1FF400AFFA00007FFE00
1FF200EFF60000AFFB00
0CF203FFF20000DFF800
015207FFD00002FFF500
00000AFF900005FFF100
00000EFF500009FFC000
00002FFF20000DFF8000
00004FFE00003FFF3000
00005FFD00009FFD0000
00006FFE0002EFF60000
00004FFFA57DFFC00000
00000CFFFFFFFC100000
0000018DEFEB60000000
ENDCHAR
STARTCHAR uring
ENCODING 367
SWIDTH 505 0
DWIDTH 12 0
BBX 14 17 -1 0
BITMAP
0000005EC20000
000001E8B70000
000002D3870000
000000DFE20000
00000014100000
007FFF008FFE00
00AFFC00BFFA00
00EFF800EFF700
02FFF503FFF400
05FFF206FFF100
08FFE009FFD000
0CFFA00DFF9000
0EFF701FFF6005
2FFF507FFF304C
2FFFA6EFFF86D4
0EFFFF5DFFFF80
04CEC404DEC500
ENDCHAR
STARTCHAR Uhungarumlaut
ENCODING 368
SWIDTH 716 0
DWIDTH 17 0
BBX 20 24 -1 0
BITMAP
0000000000001EF52FF4
0000000000008F80AF60
000000000002FA03F800
00000000000AC10BA000
00000000000000000000
00000000000000000000
0000026BDED00005FFF1
00018FCDFFB00008FFC0
002DE40EFF70000CFF90
02EF303FFF30000FFF60
0AF9006FFE00003FFF30
1FF400AFFA00007FFE00
1FF200EFF60000AFFB00
0CF203FFF20000DFF800
015207FFD00002FFF500
00000AFF900005FFF100
00000EFF500009FFC000
00002FFF20000DFF8000
00004FFE00003FFF3000
00005FFD00009FFD0000
00006FFE0002EFF60000
00004FFFA57DFFC00000
00000CFFFFFFFC100000
0000018DEFEB60000000
ENDCHAR
STARTCHAR uhungarumlaut
ENCODING 369
SWIDTH 505 0
DWIDTH 12 0
BBX 14 18 -1 0
BITMAP
0000008FC0AFA0
000002FD13FC10
00000AE30CD200
00003F405E3000
00000000000000
00000000000000
007FFF008FFE00
00AFFC00BFFA00
00EFF800EFF700
02FFF503FFF400
05FFF206FFF100
08FFE009FFD000
0CFFA00DFF9000
0EFF701FFF6005
2FFF507FFF304C
2FFFA6EFFF86D4
0EFFFF5DFFFF80
04CEC404DEC500
ENDCHAR
STARTCHAR Uogonek
ENCODING 370
SWIDTH 716 0
DWIDTH 17 0
BBX 20 29 -1 -6
BITMAP
00000000002FF5000000
00000000000BF7000000
000000000006FA000000
000000000001FD000000
00000000000000000000
0000016BDED00005FFF1
00018FCDFFB00008FFC0
002DE40EFF70000CFF90
02EF302FFF30000FFF60
0AF9006FFE00003FFF30
1FF400AFFA00006FFE00
1FF200EFF60000AFFC00
0DF203FFF20000DFF800
017206FFD00001FFF500
00000AFF900005FFF200
00000DFF500009FFD000
00001FFF20000DFF9000
00004FFE00002FFF4000
00005FFD00008FFD0000
00006FFE0001EFF70000
00004FFF834CFFC00000
00000CFFFFFFFD200000
000002AEFFEC71000000
00000002D60000000000
0000000BF00000000000
0000001FE00000000000
0000001FF73B20000000
00000007FFE600000000
00000000241000000000
ENDCHAR
STARTCHAR uogonek
ENCODING 371
SWIDTH 505 0
DWIDTH 12 0
BBX 14 17 -1 -5
BITMAP
007FFF008FFE00
00AFFC00BFFA00
00EFF800EFF700
02FFF503FFF400
05FFF206FFF100
08FFE009FFD000
0CFFA00DFF9000
0EFF701FFF6005
2FFF507FFF304C
2FFFA6EFFF86D4
0EFFFF5DFFFF80
04CEC404DFC500
00000002E60000
0000000CE00000
0000001FE00210
0000000EFB9D20
00000004DEB200
ENDCHAR
STARTCHAR Wcircumflex
ENCODING 372
SWIDTH 962 0
DWIDTH 23 0
BBX 25 24 0 0
BITMAP
00000000000000000340000000
00000000000000004EB0000000
0000000000000006FFF1000000
000000000000007FA4E5000000
00000000000009A3005A000000
00000000000000000000000000
000016BDF800006FFD00001F90
0007EDFFF80000BFFD00006F30
01BF71FFF90001FFFD0000BD00
0BF700FFF90006FFFD0002F700
6FD000FFF9000BFFFD0007F200
BF9000EFF9001FFFFE000CB000
CF7000EFF9006FBFFE002F5000
8F6000EFFA00BB9FFE007E1000
055000DFFA02F59FFE00C90000
000000DFFA07E08FFF02F40000
000000DFFA0C908FFF07D00000
000000CFFB2F308FFF0C800000
000000CFFB7D007FFF2F200000
000000CFFBC7007FFF8B000000
000000BFFDF2007FFFD6000000
000000BFFFB0006FFFE1000000
000000AFFF50006FFFA0000000
000000AFFE10006FFF40000000
ENDCHAR
STARTCHAR wcircumflex
ENCODING 373
SWIDTH 661 0
DWIDTH 16 0
BBX 17 18 -1 0
BITMAP
00000000005D000000
0000000005FF300000
000000005FFF700000
00000006FA29B00000
0000005B3001C10000
000000000000000000
007FFF008FFE04ED20
00AFFC00BFFA05FF70
00EFF800EFF7002E70
02FFF503FFF4001F50
05FFF206FFF1004F30
08FFE009FFD0009E00
0CFFA00DFF9000EA00
0EFF701FFF6007F400
2FFF507FFF302EC000
2FFF96EFFF86DE2000
0EFFFF7EFFFFF50000
04CFC504CFEA300000
ENDCHAR
STARTCHAR Ycircumflex
ENCODING 374
SWIDTH 620 0
DWIDTH 15 0
BBX 17 24 0 0
BITMAP
000000000000060000
000000000001BF2000
00000000002CFF7000
0000000003DD6AC000
000000004C6001D200
000000000000000000
000016BDF900001E80
0007EDFFFD00007F20
01BF70CFFF2000DA00
0BF7009FFF5004F300
6FD0005FFF900AB000
BF90001FFFC01F5000
CF70000CFFF17D0000
8F600008FFF5D70000
05500004FFFCE10000
00000001FFFF800000
00000000CFFF200000
00000000EFFD000000
00000002FFFA000000
00000006FFF7000000
00000009FFF4000000
0000000CFFF1000000
0000000FFFD0000000
0000003FFF90000000
ENDCHAR
STARTCHAR ycircumflex
ENCODING 375
SWIDTH 505 0
DWIDTH 12 0
BBX 14 24 -1 -6
BITMAP
000000008A0000
0000000AFE0000
000001BFCF4000
00001CC4099000
00006400007000
00000000000000
007FFF008FFE00
00AFFC00CFFA00
00EFF800EFF700
02FFF503FFF400
05FFF206FFF100
08FFE00AFFC000
0CFFA00DFF9000
0EFF701FFF6023
2FFF507FFF30A5
2FFF97EFFE04D0
0EFFFFEFFC6E30
04CFC5EFFFB200
00006CFFF60000
001CDAFFF20000
00AB08FFE00000
00E71EFF800000
00BFEFFD100000
002BED92000000
ENDCHAR
STARTCHAR Ydieresis
ENCODING 376
SWIDTH 620 0
DWIDTH 15 0
BBX 17 22 0 0
BITMAP
0000000007E803EC10
000000000DFF08FF40
0000000006D703CB10
000000000000000000
000016BDF900001E80
0007EDFFFD00007F20
01BF70CFFF2000DA00
0BF7009FFF5004F300
6FD0005FFF900AB000
BF90001FFFC01F5000
CF70000CFFF17D0000
8F600008FFF5D70000
05500004FFFCE10000
00000001FFFF800000
00000000CFFF200000
00000000EFFD000000
00000002FFFA000000
00000006FFF7000000
00000009FFF4000000
0000000CFFF1000000
0000000FFFD0000000
0000003FFF90000000
ENDCHAR
STARTCHAR Zacute
ENCODING 377
SWIDTH 542 0
DWIDTH 13 0
BBX 14 24 0 0
BITMAP
00000000002882
00000000009FC0
0000000002FF20
0000000008F700
000000001EC000
00000000000000
0019EFFFFFFFE1
009FC877BFFF70
00DF9000DFFE10
00AF6006FFF700
0000000DFFE100
0000006FFF7000
000000DFFE1000
000006FFF70000
00000DFFE10000
00006FFF700000
0000EFFE100000
0007FFF7000000
001EFFE1000000
007FFF70000000
01EFFE1005FB00
07FFF70009FE00
1EFFF8778CF900
7FFFFFFFFE8000
ENDCHAR
STARTCHAR zacute
ENCODING 378
SWIDTH 428 0
DWIDTH 10 0
BBX 11 18 0 0
BITMAP
00000007FE10
0000000EF500
0000006FA000
000000DE2000
000002850000
000000000000
007EFFFFFE10
05FC77FFF600
0AFA07FFD000
04A32EFF4000
0000AFFB0000
0003FFF30000
000CFF900000
006FFE100000
01EFF7046000
08FFD01FF400
2FFFC77EE100
BFFFFFFC3000
ENDCHAR
STARTCHAR Zdotaccent
ENCODING 379
SWIDTH 530 0
DWIDTH 13 0
BBX 14 22 0 0
BITMAP
00000006E90000
0000000CFF1000
00000005D80000
00000000000000
0019EFFFFFFFE1
009FC877BFFF70
00DF9000DFFE10
00AF6006FFF700
0000000DFFE100
0000006FFF7000
000000DFFE1000
000006FFF70000
00000DFFE10000
00006FFF700000
0000EFFE100000
0007FFF7000000
001EFFE1000000
007FFF70000000
01EFFE1005FB00
07FFF70009FE00
1EFFF8778CF900
7FFFFFFFFE8000
ENDCHAR
STARTCHAR zdotaccent
ENCODING 380
SWIDTH 428 0
DWIDTH 10 0
BBX 11 17 0 0
BITMAP
000005EA0000
00000BFF2000
000004D90000
000000000000
000000000000
007EFFFFFE10
05FC77FFF600
0AFA07FFD000
04A32EFF4000
0000AFFB0000
0003FFF30000
000CFF900000
006FFE100000
01EFF7046000
08FFD01FF400
2FFFC77EE100
BFFFFFFC3000
ENDCHAR
STARTCHAR Zcaron
ENCODING 381
SWIDTH 542 0
DWIDTH 13 0
BBX 15 24 0 0
BITMAP
0000000520002710
00000006C029E400
00000001FCFD3000
00000000BFC20000
000000006B100000
0000000000000000
0019EFFFFFFFE100
009FC877BFFF7000
00DF9000DFFE1000
00AF6006FFF70000
0000000DFFE10000
0000006FFF700000
000000DFFE100000
000006FFF7000000
00000DFFE1000000
00006FFF70000000
0000EFFE10000000
0007FFF700000000
001EFFE100000000
007FFF7000000000
01EFFE1005FB0000
07FFF70009FE0000
1EFFF8778CF90000
7FFFFFFFFE800000
ENDCHAR
STARTCHAR zcaron
ENCODING 382
SWIDTH 428 0
DWIDTH 10 0
BBX 12 18 0 0
BITMAP
0000590018C2
00001F67EC10
00000BFFA100
000006F90000
000001600000
000000000000
007EFFFFFE10
05FC77FFF600
0AFA07FFD000
04A32EFF4000
0000AFFB0000
0003FFF30000
000CFF900000
006FFE100000
01EFF7046000
08FFD01FF400
2FFFC77EE100
BFFFFFFC3000
ENDCHAR
STARTCHAR longs
ENCODING 383
SWIDTH 267 0
DWIDTH 6 0
BBX 15 24 -5 -6
BITMAP
0000000018DEC300
00000001CFFB9E10
00000007FFC00E30
0000000CFF800300
0000001FFF400000
0000004FFF100000
00000BFFFD000000
000005CFFA000000
000000CFF7000000
000000FFF4000000
000003FFF1000000
000007FFD0000000
00000AFFA0000000
00000DFF70000000
00001FFF30000000
00005FFF10000000
00008FFC00000000
0000BFF900000000
017AFFF600000000
3D53FFF300000000
C707FFE000000000
E93EFF9000000000
AFFFFE2000000000
1AED920000000000
ENDCHAR
STARTCHAR uni018F
ENCODING 399
SWIDTH 544 0
DWIDTH 13 0
BBX 13 18 0 0
BITMAP
00017CEFD92000
001DFFFFFFE400
008FFEDFFFFE10
00AE5001CFFF70
003400003FFFB0
000000000FFFD0
000000000FFFE0
000000002FFFD0
000016BFFFFFB0
0005DFE8AFFF80
007FFA10AFFF40
06FFB000EFFD00
1EFF2004FFF600
6FFB000AFFC000
7FF8003FFE3000
6FF801DFF50000
1DFD8DFE400000
019DFC81000000
ENDCHAR
STARTCHAR florin
ENCODING 402
SWIDTH 267 0
DWIDTH 6 0
BBX 17 24 -6 -6
BITMAP
000000000004BEE900
00000000006FFBDF60
0000000003FFD0AF70
000000000BFF71EE20
000000003FFF202100
000000009FFC000000
0000009FFFFFFF4000
00000058FFF9771000
00000006FFF1000000
0000000AFFC0000000
0000000EFF70000000
0000004FFF30000000
0000008FFE00000000
000000CFF900000000
000002FFF500000000
000006FFF100000000
00000AFFB000000000
00000EFF6000000000
00004FFF1000000000
01009FFA0000000000
7F70EFF30000000000
EF35FF900000000000
EF7DFC100000000000
4CFD81000000000000
ENDCHAR
STARTCHAR Ohorn
ENCODING 416
SWIDTH 665 0
DWIDTH 16 0
BBX 18 21 0 0
BITMAP
000000000000000BE3
000000000000000DF5
000000000000000EF2
0000026BDEEC713FA0
00029FFB879EFCDE10
004EF8148812EFF200
05FF40AFF500AFF300
1EF709FFA0008FF800
6FE03FFF20007FFA00
9FA0CFFA00008FFB00
6F93FFF400009FFA00
0669FFE00000CFF800
000DFFA00001FFF500
001FFF700004FFF100
004FFF40000AFFC000
005FFF30001EFF6000
006FFF20009FFD0000
005FFF4003FFF40000
001FFF903EFF600000
0008FFFEFFE5000000
00006CFEC820000000
ENDCHAR
STARTCHAR ohorn
ENCODING 417
SWIDTH 439 0
DWIDTH 11 0
BBX 13 15 -1 0
BITMAP
00000000004E80
00000000005FA0
00000000007F60
00004AEEB3DD00
0007FFD8FFD200
007FFE10AF3000
02FFF6009F5000
09FFE000AF5000
0EFFA000DF3000
3FFF6002FF1000
4FFF5008FB0000
4FFF402EF40000
1FFFA4DFA00000
0AFFFFFB100000
019EFC60000000
ENDCHAR
STARTCHAR Uhorn
ENCODING 431
SWIDTH 716 0
DWIDTH 17 0
BBX 22 22 -1 0
BITMAP
00000000000000000004EB
00000000000000000005FD
00000000000000000007F9
0000000000000000002DF2
0000026BDED00005FFFF50
00018FCDFFB00008FFE300
002DE40EFF70000CFFA000
02EF303FFF30000FFF7000
0AF9006FFE00003FFF4000
1FF400AFFA00007FFF1000
1FF200EFF60000AFFC0000
0CF203FFF20000DFF90000
015207FFD00002FFF50000
00000AFF900005FFF20000
00000EFF500009FFD00000
00002FFF20000DFF900000
00004FFE00003FFF400000
00005FFD00009FFD000000
00006FFE0002EFF6000000
00004FFFA57DFFC0000000
00000CFFFFFFFC10000000
0000018DEFEB6000000000
ENDCHAR
STARTCHAR uhorn
ENCODING 432
SWIDTH 505 0
DWIDTH 12 0
BBX 15 16 -1 0
BITMAP
000000000000CE10
000000000000FF10
000000000001FC00
000000000007F400
007FFF008FFF6000
00AFFC00BFFA0000
00EFF800EFF70000
02FFF503FFF40000
05FFF206FFF10000
08FFE009FFC00000
0CFFA00DFF900000
0EFF701FFF600500
2FFF507FFF304C00
2FFFA6EFFF86D400
0EFFFF5DFFFF8000
04CEC404DEC50000
ENDCHAR
STARTCHAR uni01B7
ENCODING 439
SWIDTH 555 0
DWIDTH 13 0
BBX 14 18 0 0
BITMAP
0006DFFFFFFFF6
004FE8777EFFA0
008FE0008FFD10
004EA005FFF300
0000002EFF6000
000000CFFA0000
000009FFD10000
00001FFFC50000
00003BEFFFB100
0000001AFFF800
00000001FFFD00
00000000DFFF10
01300000DFFF00
1DF70001FFFC00
7FF00005FFF600
7FE1002DFFB000
2EFC78EFFA1000
029DEED9300000
ENDCHAR
STARTCHAR uni01CD
ENCODING 461
SWIDTH 668 0
DWIDTH 16 0
BBX 21 27 0 -3
BITMAP
0000000000000330001720
00000000000003E217E600
00000000000000DCEE5000
000000000000008FE30000
000000000000003D200000
0000000000000000000000
0000000000006CEE600000
00000000002CDFFF600000
0000000002EA6FFF200000
000000002EC09FFE000000
00000001DE20CFFB000000
0000000AF700FFF8000000
0000126FD003FFF5000000
03AEFFFFD847FFF1000000
4FFB6BFD58DFFFD0000000
BFD02FF7000DFFA0000000
9FE09FF1001FFF70000000
0312FFA0004FFF30000000
0008FF50007FFF10000000
000EFF1000AFFC00000000
004FFB0000DFF900000000
009FF70001FFF600000000
00CFF30004FFF200000000
00EFF10008FFE000000000
00EFE00000000000000000
008FE00000000000000000
0004610000000000000000
ENDCHAR
STARTCHAR uni01CE
ENCODING 462
SWIDTH 526 0
DWIDTH 13 0
BBX 15 18 -1 0
BITMAP
0000003B0006C300
0000000D75DD2000
00000009FFC20000
00000004FB100000
0000000081000000
0000000000000000
00006CFE7FFF6000
0009FFD7DFFF3000
007FFD107FFE0000
02FFF500AFFC0000
08FFE000DFF80000
0DFF9001FFF50000
2FFF6004FFF20000
4FFF4008FFE00230
4FFF400DFFB00B40
3FFFA3AFFFD37C00
0CFFFFC6FFFFE200
01AEE9109ED91000
ENDCHAR
STARTCHAR uni01CF
ENCODING 463
SWIDTH 375 0
DWIDTH 9 0
BBX 14 24 0 0
BITMAP
00000042000171
0000005C118E50
0000001ECEE300
0000000AFD2000
00000005C10000
00000000000000
000016BDF60000
0007EEFFF30000
01BF77FFF00000
0BF70AFFC00000
6FD00DFF900000
BF801FFF600000
CF704FFF200000
8F608FFE000000
0550BFFB000000
0000EFF8000000
0002FFF5000000
0005FFF1000000
0009FFD0000000
000CFFA0000000
000FFF70000000
003FFF40000000
006FFF10000000
00AFFC00000000
ENDCHAR
STARTCHAR uni01D0
ENCODING 464
SWIDTH 267 0
DWIDTH 6 0
BBX 10 18 -1 0
BITMAP
001D1005C5
000BA5CE40
0006FFD300
0001FC2000
0000610000
0000000000
007FFF0000
00AFFC0000
00EFF80000
02FFF50000
05FFF20000
08FFE00000
0CFFA00000
0EFF700420
2FFF501E10
2FFF95C800
0EFFFFB000
04CEC60000
ENDCHAR
STARTCHAR uni01D1
ENCODING 465
SWIDTH 665 0
DWIDTH 16 0
BBX 17 24 0 0
BITMAP
000000000150000640
0000000000D517E800
00000000008FEE5000
00000000002FD20000
000000000006100000
000000000000000000
0000026BDEFD920000
00029FFB879EFE4000
004EF8148812EFE100
05FF40AFF500AFF600
1EF709FFA0008FF900
6FE03FFF20007FFB00
9FA0CFFA00008FFB00
6F93FFF400009FF900
0669FFE00000CFF800
000DFFA00001FFF400
001FFF700004FFF100
004FFF40000AFFB000
005FFF30001EFF5000
006FFF20009FFC0000
005FFF4003FFF30000
001FFF903EFF600000
0008FFFEFFE5000000
00006CFEC810000000
ENDCHAR
STARTCHAR uni01D2
ENCODING 466
SWIDTH 433 0
DWIDTH 10 0
BBX 15 18 -1 0
BITMAP
00000860019B1000
000004E38EA00000
000000EFF9000000
000000AF80000000
0000004700000000
0000000000000000
00006CEEA1000000
000AFFC8FA000000
008FFC00DF000420
03FFF406FF56BA10
0AFFC006FFDA4000
1FFF7001FF000000
4FFF4004FC000000
6FFF2008F8000000
7FFF201EF3000000
5FFF73CF90000000
1DFFFFFB10000000
029DEC6000000000
ENDCHAR
STARTCHAR uni01D3
ENCODING 467
SWIDTH 716 0
DWIDTH 17 0
BBX 20 24 -1 0
BITMAP
000000000000C3003B80
0000000000007D4BF600
0000000000002FFE5000
0000000000000CE30000
00000000000004200000
00000000000000000000
0000026BDED00005FFF1
00018FCDFFB00008FFC0
002DE40EFF70000CFF90
02EF303FFF30000FFF60
0AF9006FFE00003FFF30
1FF400AFFA00007FFE00
1FF200EFF60000AFFB00
0CF203FFF20000DFF800
015207FFD00002FFF500
00000AFF900005FFF100
00000EFF500009FFC000
00002FFF20000DFF8000
00004FFE00003FFF3000
00005FFD00009FFD0000
00006FFE0002EFF60000
00004FFFA57DFFC00000
00000CFFFFFFFC100000
0000018DEFEB60000000
ENDCHAR
STARTCHAR uni01D4
ENCODING 468
SWIDTH 505 0
DWIDTH 12 0
BBX 14 18 -1 0
BITMAP
000001C1005C40
000000C95DE300
0000007FFD2000
0000002FC10000
00000007100000
00000000000000
007FFF008FFE00
00AFFC00BFFA00
00EFF800EFF700
02FFF503FFF400
05FFF206FFF100
08FFE009FFD000
0CFFA00DFF9000
0EFF701FFF6005
2FFF507FFF304C
2FFFA6EFFF86D4
0EFFFF5DFFFF80
04CEC404DEC500
ENDCHAR
STARTCHAR uni01D5
ENCODING 469
SWIDTH 716 0
DWIDTH 17 0
BBX 20 25 -1 0
BITMAP
00000000000222222210
00000000006FFFFFFF50
00000000003555555510
00000000006D7006D700
0000000000DFE00DFE00
00000000008E8007E900
00000000000000000000
0000026BDED00005FFF1
00018FCDFFB00008FFC0
002DE40EFF70000CFF90
02EF303FFF30000FFF60
0AF9006FFE00003FFF30
1FF400AFFA00007FFE00
1FF200EFF60000AFFB00
0CF203FFF20000DFF800
015207FFD00002FFF500
00000AFF900005FFF100
00000EFF500009FFC000
00002FFF20000DFF8000
00004FFE00003FFF3000
00005FFD00009FFD0000
00006FFE0002EFF60000
00004FFFA57DFFC00000
00000CFFFFFFFC100000
0000018DEFEB60000000
ENDCHAR
STARTCHAR uni01D6
ENCODING 470
SWIDTH 505 0
DWIDTH 12 0
BBX 14 21 -1 0
BITMAP
00000222222210
00004FFFFFFF70
00002555555510
00000000000000
00005EA02DD200
0000AFF26FF700
00004C901BC200
00000000000000
00000000000000
007FFF008FFE00
00AFFC00BFFA00
00EFF800EFF700
02FFF503FFF400
05FFF206FFF100
08FFE009FFD000
0CFFA00DFF9000
0EFF701FFF6005
2FFF507FFF304C
2FFFA6EFFF86D4
0EFFFF5DFFFF80
04CEC404DEC500
ENDCHAR
STARTCHAR uni01D7
ENCODING 471
SWIDTH 716 0
DWIDTH 17 0
BBX 20 24 -1 0
BITMAP
00000000000001EF6000
0000000008D408FB4C90
000000001FFC1EE2AFF2
000000000AE68F605EB0
00000000000044000000
00000000000000000000
0000026BDED00005FFF1
00018FCDFFB00008FFC0
002DE40EFF70000CFF90
02EF303FFF30000FFF60
0AF9006FFE00003FFF30
1FF400AFFA00007FFE00
1FF200EFF60000AFFB00
0CF203FFF20000DFF800
015207FFD00002FFF500
00000AFF900005FFF100
00000EFF500009FFC000
00002FFF20000DFF8000
00004FFE00003FFF3000
00005FFD00009FFD0000
00006FFE0002EFF60000
00004FFFA57DFFC00000
00000CFFFFFFFC100000
0000018DEFEB60000000
ENDCHAR
STARTCHAR uni01D8
ENCODING 472
SWIDTH 505 0
DWIDTH 12 0
BBX 14 23 -1 0
BITMAP
00000000058600
000000002FF400
000000009F9000
00000001EE1000
00000008F50000
00000000000000
00005EA02DD200
0000AFF26FF700
00004C901BC200
00000000000000
00000000000000
007FFF008FFE00
00AFFC00BFFA00
00EFF800EFF700
02FFF503FFF400
05FFF206FFF100
08FFE009FFD000
0CFFA00DFF9000
0EFF701FFF6005
2FFF507FFF304C
2FFFA6EFFF86D4
0EFFFF5DFFFF80
04CEC404DEC500
ENDCHAR
STARTCHAR uni01D9
ENCODING 473
SWIDTH 716 0
DWIDTH 17 0
BBX 20 24 -1 0
BITMAP
000000000002B004B600
000000000593C9BE6960
000000001FFB8FE3AFF2
000000000AE63D205EB0
00000000000000000000
00000000000000000000
0000026BDED00005FFF1
00018FCDFFB00008FFC0
002DE40EFF70000CFF90
02EF303FFF30000FFF60
0AF9006FFE00003FFF30
1FF400AFFA00007FFE00
1FF200EFF60000AFFB00
0CF203FFF20000DFF800
015207FFD00002FFF500
00000AFF900005FFF100
00000EFF500009FFC000
00002FFF20000DFF8000
00004FFE00003FFF3000
00005FFD00009FFD0000
00006FFE0002EFF60000
00004FFFA57DFFC00000
00000CFFFFFFFC100000
0000018DEFEB60000000
ENDCHAR
STARTCHAR uni01DA
ENCODING 474
SWIDTH 505 0
DWIDTH 12 0
BBX 14 22 -1 0
BITMAP
000000870029B1
0000003F59FA00
0000000DFF8000
00000008F60000
00000002400000
00005EA02DD200
0000AFF26FF700
00004C901BC200
00000000000000
00000000000000
007FFF008FFE00
00AFFC00BFFA00
00EFF800EFF700
02FFF503FFF400
05FFF206FFF100
08FFE009FFD000
0CFFA00DFF9000
0EFF701FFF6005
2FFF507FFF304C
2FFFA6EFFF86D4
0EFFFF5DFFFF80
04CEC404DEC500
ENDCHAR
STARTCHAR uni01DB
ENCODING 475
SWIDTH 716 0
DWIDTH 17 0
BBX 20 24 -1 0
BITMAP
0000000000009FD00000
0000000008D44FF04C90
000000001FFC0DF3AFF2
000000000AE608F55EB0
00000000000000000000
00000000000000000000
0000026BDED00005FFF1
00018FCDFFB00008FFC0
002DE40EFF70000CFF90
02EF303FFF30000FFF60
0AF9006FFE00003FFF30
1FF400AFFA00007FFE00
1FF200EFF60000AFFB00
0CF203FFF20000DFF800
015207FFD00002FFF500
00000AFF900005FFF100
00000EFF500009FFC000
00002FFF20000DFF8000
00004FFE00003FFF3000
00005FFD00009FFD0000
00006FFE0002EFF60000
00004FFFA57DFFC00000
00000CFFFFFFFC100000
0000018DEFEB60000000
ENDCHAR
STARTCHAR uni01DC
ENCODING 476
SWIDTH 505 0
DWIDTH 12 0
BBX 14 22 -1 0
BITMAP
000004FF200000
000000EF500000
0000008F800000
0000003FA00000
00000000000000
00005EA02DD200
0000AFF26FF700
00004C901BC200
00000000000000
00000000000000
007FFF008FFE00
00AFFC00BFFA00
00EFF800EFF700
02FFF503FFF400
05FFF206FFF100
08FFE009FFD000
0CFFA00DFF9000
0EFF701FFF6005
2FFF507FFF304C
2FFFA6EFFF86D4
0EFFFF5DFFFF80
04CEC404DEC500
ENDCHAR
STARTCHAR uni01E4
ENCODING 484
SWIDTH 601 0
DWIDTH 14 0
BBX 15 23 0 -5
BITMAP
0000039CEED82000
00019FFFB79FE200
002DFFE4000BF800
00BFFF40000CF900
07FFF800005FF400
0EFFE10000164000
4FFFA00000000000
7FFF600000344000
8FFF400000EFE000
7FFF300DFFFFFF10
5FFF40033CFF8200
1EFF80005FFF4000
07FFF637FFFF1000
007EFFFC8FFC0000
000144209FF90000
00000000CFF50000
00026611FFF20000
007FFFC4FFC00000
02FE3158FF600000
05FB001EFE100000
02FE53BFF4000000
005DFFFD40000000
0000343000000000
ENDCHAR
STARTCHAR uni01E5
ENCODING 485
SWIDTH 507 0
DWIDTH 12 0
BBX 14 18 -1 -6
BITMAP
00006CFE7FFF60
0009FFD7DFFF30
007FFD107FFE00
02FFF500AFFB00
08FFE000DFF800
0DFF9001FFF500
2FFF6005FFF200
4FFF4008FFE003
4FFF400DFFA02D
3FFFA3AFFF70A7
0CFFFFFFFF6AB0
01AEEA8FFFE800
000018EFFD1000
0004EAEFFA0000
06FFFFFFFFE000
018E38FFE42000
005F9EFF700000
0008EEC6000000
ENDCHAR
STARTCHAR Gcaron
ENCODING 486
SWIDTH 578 0
DWIDTH 14 0
BBX 16 29 0 -5
BITMAP
00000000690018C2
000000001F67EB10
000000000BFFA000
0000000006F80000
0000000001500000
0000000000000000
0000039CEED81000
00019FFFB7AFE200
002DFFE4000BF800
00BFFF40000CF900
07FFF800005FF500
0EFFE10000275000
4FFFA00000000000
7FFF600000111000
8FFF400000EFE000
7FFF300003FFB000
5FFF40000AFF8000
1EFF80004FFF4000
07FFF637EFFF1000
007EFFFC8FFD0000
000144209FF90000
00000000CFF60000
00026611FFF20000
007FFFC4FFD00000
02FE3158FF700000
05FB001EFE100000
02FE53BFF5000000
005DFFFD50000000
0000343000000000
ENDCHAR
STARTCHAR gcaron
ENCODING 487
SWIDTH 507 0
DWIDTH 12 0
BBX 14 24 -1 -6
BITMAP
0000003B0006C3
0000000D75DD20
00000009FFC200
00000004FB1000
00000000810000
00000000000000
00006CFE7FFF60
0009FFD7DFFF30
007FFD107FFE00
02FFF500AFFB00
08FFE000DFF800
0DFF9001FFF500
2FFF6005FFF200
4FFF4008FFE003
4FFF400DFFA02D
3FFFA3AFFF70A7
0CFFFFFFFF6AB0
01AEEA8FFFE800
000018EFFD1000
0006EBEFFA0000
003F70FFF60000
006E05FFF10000
004F8DFF700000
0007DEC5000000
ENDCHAR
STARTCHAR uni01E8
ENCODING 488
SWIDTH 601 0
DWIDTH 14 0
BBX 17 24 0 0
BITMAP
000000000060000360
00000000009903BD20
00000000005FBFB100
00000000000EFA0000
00000000000A800000
000000000000000000
000027BDF6002DF700
0019FCFFF300CF8000
03DE37FFE009F90000
2EF30AFFB07F900000
9FB00DFF74FA000000
CF702FFF6EB0000000
AF605FFFDB10000000
29608FFFFEDA200000
0000BFFA29FFC00000
0000EFF603FFF00000
0002FFF303FFF00000
0006FFF006FFD00000
0009FFC009FFA00000
000CFF900DFF600000
000FFF602FFF300000
003FFF305FFF000000
007FFF005FFE000000
00AFFC001CFF500000
ENDCHAR
STARTCHAR uni01E9
ENCODING 489
SWIDTH 518 0
DWIDTH 12 0
BBX 15 22 -1 0
BITMAP
0000000520002710
00000006B029E400
00000002FCFD2000
00000000CFC10000
000000007B100000
0002579000000000
0009FFD000000000
000CFFA000000000
001FFF6000000000
004FFF3000000000
007FFF001AF91000
00AFFC02CE400000
00DFF84EA1000000
01FFFCFEA7000000
05FFFFFFFF800000
08FFFA4CFFD00000
0BFFB009FFE00000
0EFF800BFFB00220
2FFF400EFF801D20
6FFF100EFFB3AA00
9FFD000BFFFFD100
CFFA0002AEEA2000
ENDCHAR
STARTCHAR uni01EA
ENCODING 490
SWIDTH 665 0
DWIDTH 16 0
BBX 16 30 0 -6
BITMAP
0000000CF9000000
00000007FC000000
00000002FE000000
00000000BF200000
0000000000000000
0000000000000000
0000026BDEFD9200
00029FFB879EFE40
004EF8148812EFE1
05FF40AFF500AFF6
1EF709FFA0008FF9
6FE03FFF20007FFB
9FA0CFFA00008FFB
6F93FFF400009FF9
0669FFE00000CFF8
000DFFA00001FFF4
001FFF700004FFF1
004FFF40000AFFB0
005FFF30001EFF50
006FFF20009FFC00
004FFF4003FFF300
001EFF903EFF6000
0008FFFEFFE50000
00006CFEC8200000
00000B9000000000
00008F3000000000
0000CF2000000000
0000CF9396000000
00004FFF90000000
0000014200000000
ENDCHAR
STARTCHAR uni01EB
ENCODING 491
SWIDTH 433 0
DWIDTH 10 0
BBX 15 18 -1 -6
BITMAP
00006CEEA1000000
000AFFC8FA000000
008FFC00DF000420
03FFF406FF56BA10
0AFFC006FFDA4000
1FFF7001FF000000
4FFF4004FC000000
6FFF2008F8000000
7FFF201EF3000000
5FFF73CF90000000
0DFFFFFB10000000
02AFFC6000000000
009C000000000000
06F6000000000000
0BF4000000000000
0AFB388000000000
03EFFA1000000000
0014200000000000
ENDCHAR
STARTCHAR uni01EE
ENCODING 494
SWIDTH 525 0
DWIDTH 13 0
BBX 14 24 0 0
BITMAP
00000016000054
0000000D505CB1
00000008ECF900
00000003FF7000
00000000D60000
00000000000000
0006DFFFFFFFF6
004FE8777EFFA0
008FE0008FFD10
004EA005FFF300
0000002EFF6000
000000CFFA0000
000009FFD10000
00001FFFC50000
00003BEFFFB100
0000001AFFF800
00000001FFFD00
00000000DFFF10
01300000DFFF00
1DF70001FFFC00
7FF00005FFF600
7FE1002DFFB000
2EFC78EFFA1000
029DEED9300000
ENDCHAR
STARTCHAR uni01EF
ENCODING 495
SWIDTH 600 0
DWIDTH 14 0
BBX 12 24 0 -6
BITMAP
000033000172
00003D118E60
00000DCEE400
000009FE3000
000004D20000
000000000000
03CFFFFFF700
1EE77BFFD000
4FF11EFF4000
19709FFA0000
0003FFF20000
000CFF800000
006FFD100000
00CFF7000000
007FFE200097
000AFF9002E1
0006FFE01C70
0005FFF8D700
0018FFF92000
07EDFFF20000
8E47FFE00000
E60CFF900000
DCAFFD100000
3CFE91000000
ENDCHAR
STARTCHAR uni01F4
ENCODING 500
SWIDTH 578 0
DWIDTH 14 0
BBX 14 29 0 -5
BITMAP
00000000002FF6
00000000008FB0
0000000001EF20
0000000007F800
0000000009A000
00000000000000
0000039CEED920
00019FFFB79FE3
002DFFE4000BF8
00BFFF40000DF8
07FFF800005EC2
0EFFE100000000
4FFFA000000000
7FFF6000006770
8FFF400000EFD0
7FFF300005FFA0
5FFF40000BFF70
1EFF80005FFF40
07FFF637FFFF10
007EFFFC8FFC00
000144209FF900
00000000CFF500
00026611FFF100
007FFFC4FFC000
02FE3158FF6000
05FB001EFD1000
02FE53BFF40000
005DFFFD400000
00003430000000
ENDCHAR
STARTCHAR uni01F5
ENCODING 501
SWIDTH 507 0
DWIDTH 12 0
BBX 14 24 -1 -6
BITMAP
000000003FF400
00000000AFA000
00000002FE1000
00000009F60000
00000009800000
00000000000000
00006CFE7FFF60
0009FFD7DFFF30
007FFD107FFE00
02FFF500AFFB00
08FFE000DFF800
0DFF9001FFF500
2FFF6005FFF200
4FFF4008FFE003
4FFF400DFFA02D
3FFFA3AFFF70A7
0CFFFFFFFF6AB0
01AEEA8FFFE800
000018EFFD1000
0006EBEFFA0000
003F70FFF60000
006E05FFF10000
004F8DFF700000
0007DEC5000000
ENDCHAR
STARTCHAR Aringacute
ENCODING 506
SWIDTH 668 0
DWIDTH 16 0
BBX 19 27 0 -3
BITMAP
00000000000000005860
0000000000000001EE30
0000000000000008F500
00000000000002DFA000
00000000000009C8E000
0000000000000AB8C000
00000000000007FF6000
000000000006CFFF7000
0000000000AA6FFF4000
000000000BC09FFF1000
00000000BE20CFFC0000
00000008F700FFF90000
0000125FD003FFF50000
03AEFFFFD847FFF20000
4FFB6BFD58DFFFE00000
BFD02FF7000DFFB00000
9FE09FF1001FFF700000
0312FFA0004FFF400000
0008FF50007FFF100000
000EFF1000AFFC000000
004FFB0000DFF9000000
009FF70001FFF6000000
00CFF30004FFF3000000
00EFF10008FFE0000000
00EFE000000000000000
008FE000000000000000
00046100000000000000
ENDCHAR
STARTCHAR aringacute
ENCODING 507
SWIDTH 526 0
DWIDTH 13 0
BBX 15 19 -1 0
BITMAP
000000000BF50000
000000003FA00000
00000004CF100000
0000002B1A400000
0000005B3B500000
0000002EFD100000
0000000241000000
00006CFE7FFF6000
0009FFD7DFFF3000
007FFD107FFE0000
02FFF500AFFC0000
08FFE000DFF80000
0DFF9001FFF50000
2FFF6004FFF20000
4FFF4008FFE00230
4FFF400DFFB00B40
3FFFA3AFFFD37C00
0CFFFFC6FFFFE200
01AEE9109ED91000
ENDCHAR
STARTCHAR AEacute
ENCODING 508
SWIDTH 764 0
DWIDTH 18 0
BBX 22 27 0 -3
BITMAP
0000000000000000058600
00000000000000001FF300
00000000000000008F6000
0000000000000001EA0000
0000000000000008D10000
0000000000000000000000
0000000000006CED941147
00000000002CEFFFFFFFF6
0000000003EA6FFF9DFFB0
000000002EC18FFF001200
00000001DE20CFFC000000
0000000AF700EFF8000000
0000226FD003FFF5000000
03AEFFFFC626FFF1000000
4FFC6BFD69EEFFFFFF8000
BFD02FF7000DFFDBBB4000
9FE09FF1001FFF60000000
0422FFA0004FFF30000000
0008FF50007FFE00000000
000EFF1000AFFB00000000
004FFB0000DFF800000000
009FF70001FFFEDDDD9000
00CFF30004FFFFFFFF8000
00EFF10008FFFFFFFF5000
00EFE00000000000000000
008FE00000000000000000
0004700000000000000000
ENDCHAR
STARTCHAR aeacute
ENCODING 509
SWIDTH 650 0
DWIDTH 16 0
BBX 18 18 -1 0
BITMAP
000000000000CFA000
000000000004FE1000
00000000000BF60000
00000000003FC00000
00000000005A300000
000000000000000000
00006CEFC618DFD600
000BD87DFFEFE8EF10
00051003FFFF40AF20
00000003FFFB00DF00
00000227FFF408F900
005BFFFFFFE4AFC100
07FFF95DFFFFE80000
0EFF801FFFB3000011
2FFF305FFFA00001B1
2FFF94DFFFC0002C30
0DFFFFC7FFF97AD300
02BEEA107DFEC70000
ENDCHAR
STARTCHAR Oslashacute
ENCODING 510
SWIDTH 658 0
DWIDTH 16 0
BBX 16 25 0 -1
BITMAP
0000000000003870
000000000000DF70
000000000006FB00
00000000001EE100
0000000000383000
0000000000000000
00000000009A0000
0000038CDFFC5000
0004CFE987FFFA00
008FD54BEAF6FF70
09FD15FFB7C0FFD0
3FF22EFF2A90EFF1
8FB0BFFA0D60EFF2
9F82FFF31F30FFF1
3D88FFD04E02FFF0
000DFF907B05FFC0
002FFF50A809FF80
005FFF20E50EFF30
006FFF02F25FFB00
007FFE05E0CFF400
006FFF08A6FF7000
003FFF4BCFFA0000
000BFFEFFD600000
00018DFE40000000
0000007B00000000
ENDCHAR
STARTCHAR oslashacute
ENCODING 511
SWIDTH 428 0
DWIDTH 10 0
BBX 14 20 -2 -2
BITMAP
0000000005FF20
000000000CF700
000000004FD000
00000000BF4000
00000001A70000
00000000000000
000004AEEB26D1
00007FFD8FCD20
0007FFE20AF500
002FFF601CF500
009FFE00BFF400
00EFF90ABDF300
02FFF69C3FE000
04FFFCD17FA000
04FFFE22EF3000
01FFFA4CF90000
00AFFFFFA00000
02EBEFC6000000
1D800000000000
47000000000000
ENDCHAR
STARTCHAR uni0200
ENCODING 512
SWIDTH 668 0
DWIDTH 16 0
BBX 17 26 0 -3
BITMAP
000000003EF34FF200
0000000005FB06FA00
00000000007F509F30
000000000009D00BB0
000000000000000000
0000000000006CEE60
00000000002CDFFF60
0000000002EA6FFF20
000000002EC09FFE00
00000001DE20CFFB00
0000000AF700FFF800
0000126FD003FFF500
03AEFFFFD847FFF100
4FFB6BFD58DFFFD000
BFD02FF7000DFFA000
9FE09FF1001FFF7000
0312FFA0004FFF3000
0008FF50007FFF1000
000EFF1000AFFC0000
004FFB0000DFF90000
009FF70001FFF60000
00CFF30004FFF20000
00EFF10008FFE00000
00EFE0000000000000
008FE0000000000000
000461000000000000
ENDCHAR
STARTCHAR uni0201
ENCODING 513
SWIDTH 526 0
DWIDTH 13 0
BBX 15 18 -1 0
BITMAP
001CF81DF6000000
0002DE23EE100000
00003E904F700000
000005F306E10000
0000000000000000
0000000000000000
00006CFE7FFF6000
0009FFD7DFFF3000
007FFD107FFE0000
02FFF500AFFC0000
08FFE000DFF80000
0DFF9001FFF50000
2FFF6004FFF20000
4FFF4008FFE00230
4FFF400DFFB00B40
3FFFA3AFFFD37C00
0CFFFFC6FFFFE200
01AEE9109ED91000
ENDCHAR
STARTCHAR uni0202
ENCODING 514
SWIDTH 668 0
DWIDTH 16 0
BBX 20 27 0 -3
BITMAP
00000000000000021000
0000000000003BFFFC30
000000000005FE75AFE1
00000000001EF2000DF4
00000000001430000342
00000000000000000000
0000000000006CEE6000
00000000002CDFFF6000
0000000002EA6FFF2000
000000002EC09FFE0000
00000001DE20CFFB0000
0000000AF700FFF80000
0000126FD003FFF50000
03AEFFFFD847FFF10000
4FFB6BFD58DFFFD00000
BFD02FF7000DFFA00000
9FE09FF1001FFF700000
0312FFA0004FFF300000
0008FF50007FFF100000
000EFF1000AFFC000000
004FFB0000DFF9000000
009FF70001FFF6000000
00CFF30004FFF2000000
00EFF10008FFE0000000
00EFE000000000000000
008FE000000000000000
00046100000000000000
ENDCHAR
STARTCHAR uni0203
ENCODING 515
SWIDTH 526 0
DWIDTH 13 0
BBX 15 17 -1 0
BITMAP
0000017CEEB30000
00002DFB7AFE2000
0000BF7000BF7000
0000881000485000
0000000000000000
00006CFE7FFF6000
0009FFD7DFFF3000
007FFD107FFE0000
02FFF500AFFC0000
08FFE000DFF80000
0DFF9001FFF50000
2FFF6004FFF20000
4FFF4008FFE00230
4FFF400DFFB00B40
3FFFA3AFFFD37C00
0CFFFFC6FFFFE200
01AEE9109ED91000
ENDCHAR
STARTCHAR uni0204
ENCODING 516
SWIDTH 459 0
DWIDTH 11 0
BBX 12 24 0 0
BITMAP
002EF53EF400
0003ED04FC00
00005F706F50
000007E109D0
000000000000
000000000000
0000029DED60
00004EFD8BF6
0001EFD101FB
0008FF7002FB
000CFF400AF6
000CFF500440
0008FFA00000
0001CFF92000
0019EFE61000
01DFFE200000
0BFFF5000000
4FFFC0000000
9FFF70000000
CFFF60000013
CFFF800001B3
8FFFF6348E60
1DFFFFFFE500
029EFEB71000
ENDCHAR
STARTCHAR uni0205
ENCODING 517
SWIDTH 384 0
DWIDTH 9 0
BBX 11 18 -1 0
BITMAP
05FE17FD0000
008F809F7000
000AF20BE100
0001CA01D800
000000000000
000000000000
00005BEEB200
0009FFC9FA00
007FFD11FC00
02FFF505F900
08FFD01DF300
0DFFA5DF6000
2FFFFFC40000
4FFF72000020
4FFF40000880
2FFF9114BB00
0BFFFFFF9000
019DFEA40000
ENDCHAR
STARTCHAR uni0206
ENCODING 518
SWIDTH 459 0
DWIDTH 11 0
BBX 14 24 0 0
BITMAP
00000000021000
0000002AEFFD40
000004EE859FE2
00000EF4000BF6
00001440000342
00000000000000
0000029DED6000
00004EFD8BF600
0001EFD101FB00
0008FF7002FB00
000CFF400AF600
000CFF50044000
0008FFA0000000
0001CFF9200000
0019EFE6100000
01DFFE20000000
0BFFF500000000
4FFFC000000000
9FFF7000000000
CFFF6000001300
CFFF800001B300
8FFFF6348E6000
1DFFFFFFE50000
029EFEB7100000
ENDCHAR
STARTCHAR uni0207
ENCODING 519
SWIDTH 384 0
DWIDTH 9 0
BBX 11 17 -1 0
BITMAP
00005BEEC500
000AFC89FF50
007FB0008FB0
007930003970
000000000000
00005BEEB200
0009FFC9FA00
007FFD11FC00
02FFF505F900
08FFD01DF300
0DFFA5DF6000
2FFFFFC40000
4FFF72000010
4FFF40000590
2FFF60005B00
0BFFE88C9000
019DFDA40000
ENDCHAR
STARTCHAR uni0208
ENCODING 520
SWIDTH 375 0
DWIDTH 9 0
BBX 10 23 0 0
BITMAP
02EF43EF30
004FC05FB0
0006F607F4
00008E10AC
0000000000
000015BDF6
0005EFFFF3
00AFD9FFF0
0AFC18FFC0
5FF20CFF90
BFA00FFF60
CF703FFF20
BF607FFE00
3C70AFFB00
0000DFF800
0001FFF500
0005FFF100
0008FFD000
000BFFA000
000EFF7000
003FFF4000
006FFF1000
00AFFC0000
ENDCHAR
STARTCHAR uni0209
ENCODING 521
SWIDTH 267 0
DWIDTH 6 0
BBX 11 18 -3 0
BITMAP
1DF62EF50000
02EE14FD0000
004F805F6000
0006F208E100
000000000000
000000000000
00007FFF0000
0000AFFC0000
0000EFF80000
0002FFF50000
0005FFF20000
0008FFE00000
000CFFA00000
000EFF700420
002FFF501E10
002FFF95C800
000EFFFFB000
0004CEC60000
ENDCHAR
STARTCHAR uni020A
ENCODING 522
SWIDTH 375 0
DWIDTH 9 0
BBX 12 24 0 0
BITMAP
000000011000
000017DFFE80
0001CFA67EF7
0008F90006FC
000341000144
000000000000
000016BDF600
0007EEFFF300
01BF77FFF000
0BF70AFFC000
6FD00DFF9000
BF801FFF6000
CF704FFF2000
8F608FFE0000
0550BFFB0000
0000EFF80000
0002FFF50000
0005FFF10000
0009FFD00000
000CFFA00000
000FFF700000
003FFF400000
006FFF100000
00AFFC000000
ENDCHAR
STARTCHAR uni020B
ENCODING 523
SWIDTH 267 0
DWIDTH 6 0
BBX 9 17 -1 0
BITMAP
003AEEA200
04FD8AFB00
0DE100CF10
1740004710
0000000000
007FFF0000
00AFFC0000
00EFF80000
02FFF50000
05FFF20000
08FFE00000
0CFFA00000
0EFF700420
2FFF501E10
2FFF95C800
0EFFFFB000
04CEC60000
ENDCHAR
STARTCHAR uni020C
ENCODING 524
SWIDTH 665 0
DWIDTH 16 0
BBX 16 24 0 0
BITMAP
00002EF53EF30000
000003FD05FB0000
0000005F607F5000
00000008E109D000
0000000000000000
0000000000000000
0000026BDEFD9200
00029FFB879EFE40
004EF8148812EFE1
05FF40AFF500AFF6
1EF709FFA0008FF9
6FE03FFF20007FFB
9FA0CFFA00008FFB
6F93FFF400009FF9
0669FFE00000CFF8
000DFFA00001FFF4
001FFF700004FFF1
004FFF40000AFFB0
005FFF30001EFF50
006FFF20009FFC00
005FFF4003FFF300
001FFF903EFF6000
0008FFFEFFE50000
00006CFEC8100000
ENDCHAR
STARTCHAR uni020D
ENCODING 525
SWIDTH 433 0
DWIDTH 10 0
BBX 15 18 -1 0
BITMAP
07FD09FC00000000
00AF60BF50000000
000BE11DD0000000
0001D802E6000000
0000000000000000
0000000000000000
00006CEEA1000000
000AFFC8FA000000
008FFC00DF000420
03FFF406FF56BA10
0AFFC006FFDA4000
1FFF7001FF000000
4FFF4004FC000000
6FFF2008F8000000
7FFF201EF3000000
5FFF73CF90000000
1DFFFFFB10000000
029DEC6000000000
ENDCHAR
STARTCHAR uni020E
ENCODING 526
SWIDTH 665 0
DWIDTH 16 0
BBX 16 24 0 0
BITMAP
0000000000011000
0000000029EFFD60
00000003EF958FF3
0000000CF6000AF8
0000000440000243
0000000000000000
0000026BDEFD9200
00029FFB879EFE40
004EF8148812EFE1
05FF40AFF500AFF6
1EF709FFA0008FF9
6FE03FFF20007FFB
9FA0CFFA00008FFB
6F93FFF400009FF9
0669FFE00000CFF8
000DFFA00001FFF4
001FFF700004FFF1
004FFF40000AFFB0
005FFF30001EFF50
006FFF20009FFC00
005FFF4003FFF300
001FFF903EFF6000
0008FFFEFFE50000
00006CFEC8100000
ENDCHAR
STARTCHAR uni020F
ENCODING 527
SWIDTH 433 0
DWIDTH 10 0
BBX 15 17 -1 0
BITMAP
000018DFDA200000
0003EFA7CFD00000
000DF5000DF50000
0019800006940000
0000000000000000
00006CEEA1000000
000AFFC8FA000000
008FFC00DF000420
03FFF406FF56BA10
0AFFC006FFDA4000
1FFF7001FF000000
4FFF4004FC000000
6FFF2008F8000000
7FFF201EF3000000
5FFF73CF90000000
1DFFFFFB10000000
029DEC6000000000
ENDCHAR
STARTCHAR uni0210
ENCODING 528
SWIDTH 601 0
DWIDTH 14 0
BBX 14 24 0 0
BITMAP
000CF91DF70000
0001DF22EE1000
00002EA04F8000
000004F405F200
00000000000000
00000000000000
000027BDFEC810
0019FFB978DFE3
02DF9246700CFC
1EF709FFC008FF
9FD00DFF800BFB
CF801FFF405FF3
BF604FFF38FE40
2B707FFFFFFD40
0000BFFB5BFFD0
0000EFF603FFF1
0002FFF303FFF0
0005FFF005FFD0
0008FFC009FFA0
000CFF900DFF60
000FFF601FFF30
003FFF304FFF00
006FFF005FFE00
00AFFC001CFF50
ENDCHAR
STARTCHAR uni0211
ENCODING 529
SWIDTH 376 0
DWIDTH 9 0
BBX 11 18 -1 0
BITMAP
6FE18FC00000
09F80AF60000
00BE11CD1000
001C901D7000
000000000000
000000000000
007FFE4BEB10
00AFFFDDFF40
00EFFA03EB10
02FFF4000000
05FFF1000000
08FFD0000000
0BFFA0000000
0EFF70000000
3FFF40000000
6FFF10000000
9FFD00000000
CFFA00000000
ENDCHAR
STARTCHAR uni0212
ENCODING 530
SWIDTH 601 0
DWIDTH 14 0
BBX 14 24 0 0
BITMAP
00000000011000
0000002AEFFD40
000004EE859FF2
00000DF4000BF7
00000440000342
00000000000000
000027BDFEC810
0019FFB978DFE3
02DF9246700CFC
1EF709FFC008FF
9FD00DFF800BFB
CF801FFF405FF3
BF604FFF38FE40
2B707FFFFFFD40
0000BFFB5BFFD0
0000EFF603FFF1
0002FFF303FFF0
0005FFF005FFD0
0008FFC009FFA0
000CFF900DFF60
000FFF601FFF30
003FFF304FFF00
006FFF005FFE00
00AFFC001CFF50
ENDCHAR
STARTCHAR uni0213
ENCODING 531
SWIDTH 376 0
DWIDTH 9 0
BBX 11 17 -1 0
BITMAP
00005BEED700
0009FD88EF70
006FC0006FD0
005730001770
000000000000
007FFE4BEB10
00AFFFDDFF40
00EFFA03EB10
02FFF4000000
05FFF1000000
08FFD0000000
0BFFA0000000
0EFF70000000
3FFF40000000
6FFF10000000
9FFD00000000
CFFA00000000
ENDCHAR
STARTCHAR uni0214
ENCODING 532
SWIDTH 716 0
DWIDTH 17 0
BBX 20 24 -1 0
BITMAP
00000002EF53EF300000
000000003FD05FC00000
0000000005F607F50000
00000000007E109D0000
00000000000000000000
00000000000000000000
0000026BDED00005FFF1
00018FCDFFB00008FFC0
002DE40EFF70000CFF90
02EF303FFF30000FFF60
0AF9006FFE00003FFF30
1FF400AFFA00007FFE00
1FF200EFF60000AFFB00
0CF203FFF20000DFF800
015207FFD00002FFF500
00000AFF900005FFF100
00000EFF500009FFC000
00002FFF20000DFF8000
00004FFE00003FFF3000
00005FFD00009FFD0000
00006FFE0002EFF60000
00004FFFA57DFFC00000
00000CFFFFFFFC100000
0000018DEFEB60000000
ENDCHAR
STARTCHAR uni0215
ENCODING 533
SWIDTH 505 0
DWIDTH 12 0
BBX 14 18 -1 0
BITMAP
03EF44FF200000
004FC06FA00000
0006F508F30000
00009D00AB0000
00000000000000
00000000000000
007FFF008FFE00
00AFFC00BFFA00
00EFF800EFF700
02FFF503FFF400
05FFF206FFF100
08FFE009FFD000
0CFFA00DFF9000
0EFF701FFF6005
2FFF507FFF304C
2FFFA6EFFF86D4
0EFFFF5DFFFF80
04CEC404DEC500
ENDCHAR
STARTCHAR uni0216
ENCODING 534
SWIDTH 716 0
DWIDTH 17 0
BBX 20 24 -1 0
BITMAP
00000000000001200000
000000000006CFFF9100
0000000000BFC66DF900
0000000006FB0004FE00
00000000034200004400
00000000000000000000
0000026BDED00005FFF1
00018FCDFFB00008FFC0
002DE40EFF70000CFF90
02EF303FFF30000FFF60
0AF9006FFE00003FFF30
1FF400AFFA00007FFE00
1FF200EFF60000AFFB00
0CF203FFF20000DFF800
015207FFD00002FFF500
00000AFF900005FFF100
00000EFF500009FFC000
00002FFF20000DFF8000
00004FFE00003FFF3000
00005FFD00009FFD0000
00006FFE0002EFF60000
00004FFFA57DFFC00000
00000CFFFFFFFC100000
0000018DEFEB60000000
ENDCHAR
STARTCHAR uni0217
ENCODING 535
SWIDTH 505 0
DWIDTH 12 0
BBX 14 17 -1 0
BITMAP
000006BEEC5000
0001BFC89FF400
0008F90008FA00
00067200037500
00000000000000
007FFF008FFE00
00AFFC00BFFA00
00EFF800EFF700
02FFF503FFF400
05FFF206FFF100
08FFE009FFD000
0CFFA00DFF9000
0EFF701FFF6005
2FFF507FFF304C
2FFFA6EFFF86D4
0EFFFF5DFFFF80
04CEC404DEC500
ENDCHAR
STARTCHAR Scommaaccent
ENCODING 536
SWIDTH 570 0
DWIDTH 14 0
BBX 14 24 0 -6
BITMAP
0000018CEEC600
00003EFFA8DF90
0000DFF7002FF2
0004FFF2002FF3
0005FFF3009FE1
0002FFFA005940
0000BFFF700000
00002EFFF60000
000003FFFF5000
0000005FFFE200
00389408FFFB00
04FFFE10CFFF20
0DFF60006FFF50
2FFA00005FFF30
2FF900008FFE10
0DFE2003EFF600
03EFEBCFFE6000
0029DFEC820000
00000000000000
0000CE30000000
0001EF70000000
00006F20000000
0000B600000000
00002000000000
ENDCHAR
STARTCHAR scommaaccent
ENCODING 537
SWIDTH 382 0
DWIDTH 9 0
BBX 11 19 -1 -6
BITMAP
0000379B0000
0000DFFF1000
0003FFFF2000
0009DFFF3000
000E6FFF4000
006B3FFF5000
00D32FFF6000
06C01FFF7000
5FF20FFF8160
BED10FFF9B30
AA004FFFC300
4F88EFF80000
05CFEB400000
000000000000
002720000000
00BFB0000000
005FA0000000
002E30000000
007400000000
ENDCHAR
STARTCHAR uni021A
ENCODING 538
SWIDTH 481 0
DWIDTH 12 0
BBX 18 24 0 -6
BITMAP
00015ADEFEB8410282
005EEA7EFFFFFFFFF1
05FC101FFFFFFFFFA0
2EF1004FFFA8ACC810
7FA0007FFF40000000
BF7000AFFF10000000
CF6000DFFC00000000
BF6001FFF900000000
3C8004FFF500000000
000007FFF200000000
00000AFFE000000000
00000EFFA000000000
00002FFF7000000000
00005FFF3000000000
00008FFF0000000000
0000BFFC0000000000
0000EFF80000000000
0002FFF50000000000
000000000000000000
000047100000000000
0001FF600000000000
0000AF500000000000
00006C000000000000
000091000000000000
ENDCHAR
STARTCHAR uni021B
ENCODING 539
SWIDTH 267 0
DWIDTH 6 0
BBX 9 22 -1 -6
BITMAP
0003688000
000CFFA000
001FFF6000
004FFF3000
03FFFFF700
02CFFE7300
00CFFA0000
01FFF60000
04FFF30000
07FFE00000
0BFFB00000
0EFF800210
2FFF501D20
2FFF94B900
0EFFFFC100
04DEC60000
0000000000
0371000000
0EF8000000
08F7000000
04D1000000
0820000000
ENDCHAR
STARTCHAR uni021E
ENCODING 542
SWIDTH 665 0
DWIDTH 16 0
BBX 17 24 0 0
BITMAP
000000000060000360
00000000009903BD20
00000000005FBFB100
00000000000EFA0000
00000000000A800000
000000000000000000
000015ADF8000EFF80
0005DEFFF6002FFF50
009F95FFF2005FFF20
09FA07FFE0008FFE00
4FF10BFFB000BFFB00
9FB00EFF8000EFF700
AF902FFF5003FFF400
6F805FFFCBBCFFF100
05609FFFFFFFFFD000
0000CFFA000CFFA000
0000FFF7001FFF6000
0003FFF4004FFF3000
0006FFF1007FFF0000
000AFFC000AFFC0000
000DFF9000DFF90000
001FFF6001FFF60000
004FFF3004FFF20000
007FFE0008FFE00000
ENDCHAR
STARTCHAR uni021F
ENCODING 543
SWIDTH 600 0
DWIDTH 14 0
BBX 15 22 -1 0
BITMAP
0000000150000540
00000000E405D900
000000009EDF8000
000000004FF60000
000000000E400000
0001468000000000
0009FFD000000000
000CFFA000000000
000FFF7000000000
003FFF3000000000
007FFF4CFD500000
00AFFFFFFFF10000
00DFFF56FFF40000
01FFF802FFF30000
04FFF204FFF10000
08FFE007FFD00000
0BFFB00AFF900000
0EFF800DFF500300
2FFF401FFF304C00
6FFF102FFF74D500
9FFD000DFFFFA000
CFFA0003CED70000
ENDCHAR
STARTCHAR uni0237
ENCODING 567
SWIDTH 240 0
DWIDTH 6 0
BBX 12 18 -5 -6
BITMAP
0000007FFF00
000000AFFC00
000000DFF900
000001FFF600
000004FFF300
000008FFE000
00000BFFB000
00000EFF8001
00002FFF5078
00005FFF21D2
00009FFE0A70
0000CFFEC500
004AFFF90000
09FEFFF40000
7F55FFF10000
C80AFFA00000
AD9FFE200000
1AEEA2000000
ENDCHAR
STARTCHAR uni0259
ENCODING 601
SWIDTH 404 0
DWIDTH 10 0
BBX 10 12 0 0
BITMAP
007CEFC600
09D89FFF70
081008FFE0
000005FFF3
000006FFF3
003BFFFFF1
07FE8CFFD0
4FD10EFF80
CF405FFE10
EF01DFF500
CF9CFF5000
3CFE920000
ENDCHAR
STARTCHAR uni0292
ENCODING 658
SWIDTH 442 0
DWIDTH 11 0
BBX 12 18 0 -6
BITMAP
03CFFFFFF700
1EE77BFFD000
4FF11EFF4000
19709FFA0000
0003FFF20000
000CFF800000
006FFD100000
00CFF7000000
007FFE200097
000AFF9002E1
0006FFE01C70
0005FFF8D700
0018FFF92000
07EDFFF20000
8E47FFE00000
E60CFF900000
DCAFFD100000
3CFE91000000
ENDCHAR
STARTCHAR uni02BB
ENCODING 699
SWIDTH 241 0
DWIDTH 6 0
BBX 4 6 3 12
BITMAP
0050
0880
5F30
DFD1
FFF3
8EA0
ENDCHAR
STARTCHAR uni02BC
ENCODING 700
SWIDTH 228 0
DWIDTH 5 0
BBX 4 5 3 13
BITMAP
2DD3
5FF7
0CF4
09B0
2C10
ENDCHAR
STARTCHAR circumflex
ENCODING 710
SWIDTH 293 0
DWIDTH 7 0
BBX 7 5 0 13
BITMAP
00001500
0002DE00
004EFF30
05FC5D80
7C4002C0
ENDCHAR
STARTCHAR caron
ENCODING 711
SWIDTH 294 0
DWIDTH 7 0
BBX 8 5 2 13
BITMAP
43000171
4D118E50
0ECEE400
0AFD2000
05C10000
ENDCHAR
STARTCHAR uni02C9
ENCODING 713
SWIDTH 421 0
DWIDTH 10 0
BBX 8 3 3 13
BITMAP
12222222
DFFFFFFC
55555553
ENDCHAR
STARTCHAR uni02CA
ENCODING 714
SWIDTH 256 0
DWIDTH 6 0
BBX 6 5 2 13
BITMAP
001882
008FB0
01EE10
07F400
1E7000
ENDCHAR
STARTCHAR uni02CB
ENCODING 715
SWIDTH 274 0
DWIDTH 7 0
BBX 4 4 3 13
BITMAP
1EF5
08F8
01FA
009D
ENDCHAR
STARTCHAR breve
ENCODING 728
SWIDTH 431 0
DWIDTH 10 0
BBX 10 5 1 13
BITMAP
1430000341
4FD0002EF2
1EF946DF70
04DFFFC500
0002310000
ENDCHAR
STARTCHAR dotaccent
ENCODING 729
SWIDTH 250 0
DWIDTH 6 0
BBX 5 4 1 14
BITMAP
1CE600
8FFF10
8FFF10
2CE600
ENDCHAR
STARTCHAR ring
ENCODING 730
SWIDTH 156 0
DWIDTH 4 0
BBX 4 6 0 12
BITMAP
0110
4EF4
DAAA
E7AA
AFF4
0420
ENDCHAR
STARTCHAR ogonek
ENCODING 731
SWIDTH 291 0
DWIDTH 7 0
BBX 6 6 1 -5
BITMAP
007200
1C8000
9F2000
DF2011
CFC8D4
3CEC40
ENDCHAR
STARTCHAR tilde
ENCODING 732
SWIDTH 403 0
DWIDTH 10 0
BBX 10 3 1 13
BITMAP
0047752012
3DFFFFFFE2
4127CFD810
ENDCHAR
STARTCHAR hungarumlaut
ENCODING 733
SWIDTH 436 0
DWIDTH 10 0
BBX 9 4 2 13
BITMAP
01EF62FF40
08F80AF600
2EA03F9000
9C10BB0000
ENDCHAR
STARTCHAR gravecomb
ENCODING 768
SWIDTH 0 0
DWIDTH 0 0
BBX 4 4 -5 13
BITMAP
1EF5
08F8
01FB
009D
ENDCHAR
STARTCHAR acutecomb
ENCODING 769
SWIDTH 0 0
DWIDTH 0 0
BBX 5 5 -5 13
BITMAP
005860
01EF40
07F700
1EB000
7E1000
ENDCHAR
STARTCHAR uni0302
ENCODING 770
SWIDTH 0 0
DWIDTH 0 0
BBX 8 5 -7 13
BITMAP
00000600
0000AF40
001BFF90
02DE78D0
3C7100B3
ENDCHAR
STARTCHAR tildecomb
ENCODING 771
SWIDTH 0 0
DWIDTH 0 0
BBX 10 3 -9 13
BITMAP
0036763103
1AFFFFFFF6
4215BEEB30
ENDCHAR
STARTCHAR uni0304
ENCODING 772
SWIDTH 0 0
DWIDTH 0 0
BBX 9 3 -8 13
BITMAP
0222222220
0EFFFFFFB0
1555555530
ENDCHAR
STARTCHAR uni0306
ENCODING 774
SWIDTH 0 0
DWIDTH 0 0
BBX 9 5 -8 13
BITMAP
2420000440
7FA0004FD0
3FF747EE40
06EFFFB300
0002310000
ENDCHAR
STARTCHAR uni0307
ENCODING 775
SWIDTH 0 0
DWIDTH 0 0
BBX 4 4 -3 14
BITMAP
3DD4
CFFC
CFFD
4DD4
ENDCHAR
STARTCHAR uni0308
ENCODING 776
SWIDTH 0 0
DWIDTH 0 0
BBX 8 3 -7 14
BITMAP
2CB109C3
7FF52FFA
3DD20BE5
ENDCHAR
STARTCHAR hookabovecomb
ENCODING 777
SWIDTH 0 0
DWIDTH 0 0
BBX 6 7 -6 13
BITMAP
001100
3DFF90
195BF4
0004F4
023A90
07D200
023000
ENDCHAR
STARTCHAR uni030A
ENCODING 778
SWIDTH 0 0
DWIDTH 0 0
BBX 4 6 -3 12
BITMAP
0110
5FE4
DABA
F6AA
BFF4
0420
ENDCHAR
STARTCHAR uni030B
ENCODING 779
SWIDTH 0 0
DWIDTH 0 0
BBX 10 4 -8 13
BITMAP
005FE26FD1
00DF41EE20
06F608F400
1E802E6000
ENDCHAR
STARTCHAR uni030C
ENCODING 780
SWIDTH 0 0
DWIDTH 0 0
BBX 8 5 -6 13
BITMAP
52000271
6C029E40
1FCFD300
0BFC2000
06B10000
ENDCHAR
STARTCHAR uni030F
ENCODING 783
SWIDTH 0 0
DWIDTH 0 0
BBX 9 4 -8 13
BITMAP
BF91CF7000
1DF32EE100
02EB03E900
004F405F20
ENDCHAR
STARTCHAR uni0311
ENCODING 785
SWIDTH 0 0
DWIDTH 0 0
BBX 10 5 -9 13
BITMAP
0000021000
003BFFFC30
06FE75AFD1
1EF2000DF4
1440000342
ENDCHAR
STARTCHAR uni031B
ENCODING 795
SWIDTH 0 0
DWIDTH 0 0
BBX 4 6 -3 10
BITMAP
06E6
07F8
08F4
2EB0
BC10
2000
ENDCHAR
STARTCHAR dotbelowcomb
ENCODING 803
SWIDTH 0 0
DWIDTH 0 0
BBX 5 4 -5 -5
BITMAP
0AE900
5FFF40
5FFF50
0AE900
ENDCHAR
STARTCHAR uni0324
ENCODING 804
SWIDTH 0 0
DWIDTH 0 0
BBX 8 3 -11 -5
BITMAP
1BB108C4
7FF62FFB
2DD20BE5
ENDCHAR
STARTCHAR uni0326
ENCODING 806
SWIDTH 0 0
DWIDTH 0 0
BBX 3 5 -6 -6
BITMAP
6E80
9FC0
1E80
5C00
2000
ENDCHAR
STARTCHAR uni0327
ENCODING 807
SWIDTH 0 0
DWIDTH 0 0
BBX 6 7 -9 -6
BITMAP
007800
00D310
05FFF7
0218FC
663BFA
3EFFC1
014300
ENDCHAR
STARTCHAR uni0328
ENCODING 808
SWIDTH 0 0
DWIDTH 0 0
BBX 6 6 -9 -5
BITMAP
004500
08D100
4F7000
8F7002
6FE8A9
09ED70
ENDCHAR
STARTCHAR uni032E
ENCODING 814
SWIDTH 0 0
DWIDTH 0 0
BBX 8 4 -11 -5
BITMAP
15400045
0EE659FB
05EFFE81
00011000
ENDCHAR
STARTCHAR uni0331
ENCODING 817
SWIDTH 0 0
DWIDTH 0 0
BBX 8 3 -11 -5
BITMAP
12222222
CFFFFFFD
55555553
ENDCHAR
STARTCHAR uni0335
ENCODING 821
SWIDTH 0 0
DWIDTH 0 0
BBX 9 3 -10 5
BITMAP
0222222220
1FFFFFFFD0
1555555530
ENDCHAR
STARTCHAR uni0394
ENCODING 916
SWIDTH 619 0
DWIDTH 15 0
BBX 15 18 0 0
BITMAP
000000000AFF4000
000000003FFF6000
00000000CFFF8000
00000006FCBFB000
0000001EF39FD000
0000008F907FF000
000002FE205FF200
00000AF7003FF500
00004FD0000FF700
0000CF50000DF900
0006FB00000BFB00
001EF3000009FE00
008F90000007FF10
02FE10000005FF30
0BF700000003FF50
4FD000000001FF80
AFEDDDDDDDDDFF90
AFFFFFFFFFFFFF90
ENDCHAR
STARTCHAR uni03A9
ENCODING 937
SWIDTH 745 0
DWIDTH 18 0
BBX 17 19 0 0
BITMAP
000000000001000000
000000016BFFFB4000
0000004DFFFFFFF600
000006FF93114DFE10
00005FE4000001EF70
0002EF400000009FB0
000BF8000000006FC0
002FF1000000005FC0
007FA0000000006FB0
00BF70000000008F80
00CF5000000000BF40
00CF4000000002FD00
00AF5000000008F600
007F800000002FC000
002FD0000000CE2000
0008F600000AE40000
0000AE3001AD300000
0DDDEFA00AFEDDD700
3FFFFF700EFFFFF500
ENDCHAR
STARTCHAR uni03BC
ENCODING 956
SWIDTH 505 0
DWIDTH 12 0
BBX 15 16 -2 -4
BITMAP
0007FFF008FFE000
000AFFC00BFFA000
000EFF800EFF7000
002FFF503FFF4000
005FFF206FFF1000
008FFE009FFD0000
00BFFB00CFF90000
00EFF701FFF60070
03FFF506FFF404B0
06FFF85EFFF74D40
09FFFFF7DFFFF800
0CFFFD504DFC5000
0FFF600000000000
3FFF300000000000
7FFF000000000000
9A73000000000000
ENDCHAR
STARTCHAR pi
ENCODING 960
SWIDTH 530 0
DWIDTH 13 0
BBX 14 13 -1 -1
BITMAP
1DDDDDDDDDDDD9
4FFFFFFFFFFFF7
001FD0001FD000
004FA0004FA000
007F60007F6000
00BF3000BF3000
00EF0000EF0000
02FC0002FC0000
05F90005F90000
08F50008F60000
0CF2000AF41000
0EE00006FE3000
03200000210000
ENDCHAR
STARTCHAR uni0400
ENCODING 1024
SWIDTH 459 0
DWIDTH 11 0
BBX 12 23 0 0
BITMAP
0000007FE000
0000001EF100
00000008F400
00000001E700
000000000000
0000029DED60
00004EFD8BF6
0001EFD101FB
0008FF7002FB
000CFF400AF6
000CFF500440
0008FFA00000
0001CFF92000
0019EFE61000
01DFFE200000
0BFFF5000000
4FFFC0000000
9FFF70000000
CFFF60000013
CFFF800001B3
8FFFF6348E60
1DFFFFFFE500
029EFEB71000
ENDCHAR
STARTCHAR uni0401
ENCODING 1025
SWIDTH 459 0
DWIDTH 11 0
BBX 13 23 0 0
BITMAP
000001BC208D50
000005FF70FFC0
000002DD30AE60
00000000000000
00000000000000
0000029DED6000
00004EFD8BF600
0001EFD101FB00
0008FF7002FB00
000CFF400AF600
000CFF50044000
0008FFA0000000
0001CFF9200000
0019EFE6100000
01DFFE20000000
0BFFF500000000
4FFFC000000000
9FFF7000000000
CFFF6000001300
CFFF800001B300
8FFFF6348E6000
1DFFFFFFE50000
029EFEB7100000
ENDCHAR
STARTCHAR uni0402
ENCODING 1026
SWIDTH 725 0
DWIDTH 17 0
BBX 18 23 0 -5
BITMAP
00005ACEFEC8520274
004DFA7DFFFFFFFFF3
04FD200EFFDEFFFFC0
0EF3002FFF816BC910
5FC0005FFF50000000
9F90008FFF20000000
AF8000BFFE00000000
8F8000EFFB00200000
1BA002FFFCCFFF8000
000005FFFC67FFF500
000008FFF100BFF900
00000BFFC000AFFA00
00000EFF9000CFF900
00003FFF6000EFF600
00006FFF2003FFF300
00009FFE0007FFE000
0000CFFB000BFFA000
0000FFF7001FFF4000
00000000007FFD0000
0000000001EFF50000
000000444CFFB00000
0000007FFFFC100000
0000001BED81000000
ENDCHAR
STARTCHAR uni0403
ENCODING 1027
SWIDTH 400 0
DWIDTH 10 0
BBX 16 24 0 0
BITMAP
0000000000006850
000000000002FE20
000000000009F500
00000000002F9000
00000000009C0000
0000000000000000
00005ADEFFFFFFF2
005EFEFFFFFFFFC0
06FE44FFF89BCB30
2FF507FFF0000000
7FE00AFFC0000000
AFC00EFF80000000
AFC02FFF50000000
5FC05FFF20000000
03608FFE00000000
0000BFFB00000000
0000EFF700000000
0003FFF400000000
0006FFF100000000
0009FFD000000000
000CFF9000000000
001FFF6000000000
004FFF3000000000
007FFE0000000000
ENDCHAR
STARTCHAR uni0404
ENCODING 1028
SWIDTH 497 0
DWIDTH 12 0
BBX 13 18 0 0
BITMAP
0000029DFEB500
00006FFFB7CF60
0005FFF7003FC0
002EFFB0004FC0
00BFFF2000CF70
03FFFA00002300
08FFF622220000
0DFFFFFFF90000
1FFFC555520000
4FFF9000000000
6FFF8000000000
7FFF7000000000
8FFF7000000000
7FFF9000000340
5FFFE000003D10
1EFFFB4359F500
06FFFFFFFE4000
004AEFEB610000
ENDCHAR
STARTCHAR uni0405
ENCODING 1029
SWIDTH 570 0
DWIDTH 14 0
BBX 14 18 0 0
BITMAP
0000018CEEC600
00003EFFA8DF90
0000DFF7002FF2
0004FFF2002FF3
0005FFF3009FE1
0002FFFA005940
0000BFFF700000
00002EFFF60000
000003FFFF5000
0000005FFFE200
00389408FFFB00
04FFFE10CFFF20
0DFF60006FFF50
2FFA00005FFF30
2FF900008FFE10
0DFE2003EFF600
03EFEBCFFE6000
0029DFEC820000
ENDCHAR
STARTCHAR uni0406
ENCODING 1030
SWIDTH 374 0
DWIDTH 9 0
BBX 10 18 0 0
BITMAP
000015ADF8
0005DEFFF5
009F95FFF2
09F908FFE0
4FF10BFFB0
9FB00EFF80
AF902FFF50
6F805FFF10
05609FFD00
0000CFFA00
0000FFF700
0003FFF400
0006FFF100
000AFFC000
000DFF9000
001FFF6000
004FFF3000
007FFE0000
ENDCHAR
STARTCHAR uni0407
ENCODING 1031
SWIDTH 375 0
DWIDTH 9 0
BBX 12 23 0 0
BITMAP
00001BB208D5
00006FF71FFC
00002DD20AE6
000000000000
000000000000
000016BDF600
0007EEFFF300
01BF77FFF000
0BF70AFFC000
6FD00DFF9000
BF801FFF6000
CF704FFF2000
8F608FFE0000
0550BFFB0000
0000EFF80000
0002FFF50000
0005FFF10000
0009FFD00000
000CFFA00000
000FFF700000
003FFF400000
006FFF100000
00AFFC000000
ENDCHAR
STARTCHAR uni0408
ENCODING 1032
SWIDTH 536 0
DWIDTH 13 0
BBX 14 23 0 -5
BITMAP
00000000049DEC
00000003CFFFF8
0000006FC3FFF5
000006FC14FFF2
00001EF408FFD0
00006FE00BFFA0
00007FC00EFF70
00004FB03FFF40
000004807FFF10
00000000AFFC00
00000000EFF900
00000002FFF500
00000006FFF200
00000009FFE000
0000000DFFB000
0000001FFF7000
0056514FFF4000
0CFFF98FFF1000
6FC214CFFA0000
8F7002FFF30000
5FD44CFF800000
08FFFFD6000000
00144200000000
ENDCHAR
STARTCHAR uni0409
ENCODING 1033
SWIDTH 817 0
DWIDTH 20 0
BBX 20 21 -1 -3
BITMAP
00000000004BEEA00000
0000000019EFFF900000
00000001BD3FFF600000
0000000BE24FFF200000
0000009F508FFD000000
000005FB00BFFA000000
00002EF300EFF6011000
0000AFB002FFFDFFFB20
0004FF3005FFF65BFFE1
000CFB0008FFC000EFF7
005FF6000CFF9000AFFA
00CFE1000FFF60009FFB
04FF90003FFF3000AFFA
0AFF40006FFF0000DFF6
1FFE00009FFC0003FFF2
5FFB0000DFF9954CFF90
8FF70001FFF6BFFFFC10
AFF50004FFF33CFE9100
AFF30000000000000000
4FF30000000000000000
03630000000000000000
ENDCHAR
STARTCHAR uni040A
ENCODING 1034
SWIDTH 931 0
DWIDTH 22 0
BBX 22 18 0 0
BITMAP
000016BDF8000EFF800000
0007EDFFF5002FFF500000
01CF65FFF2005FFF100000
0CF608FFD0009FFD000000
7FD00BFFA000CFF9000000
AFA00EFF7001FFF6000000
9F802FFF5225FFF2121000
1A806FFFFFFFFFFDFFFA10
00009FFC555DFFD67EFFB0
0000CFF8000EFF8003FFF3
0000FFF5002FFF5000EFF6
0003FFF2005FFF2000DFF7
0006FFE0008FFE0000EFF6
000AFFB000BFFB0002FFF2
000DFF8000EFF80007FFC0
001FFF5002FFF5B45EFF50
004FFF2005FFF2FFFFF900
007FFE0008FFE05DFD6000
ENDCHAR
STARTCHAR uni040B
ENCODING 1035
SWIDTH 745 0
DWIDTH 18 0
BBX 18 18 0 0
BITMAP
00016ADEFFEEDDDDE5
006EEA7DFFFFFFFFE1
07FB100EFFA7BEFC50
2FF1002FFF60000000
8FB0005FFF30000000
AF90008FFE00000000
9F8000BFFB00200000
2B9000EFFCCFFF8000
000002FFFC67FFF500
000005FFF100BFF900
000008FFD000AFFA00
00000BFFA000CFFA00
00000EFF7000FFF700
00003FFF4003FFF400
00006FFF1007FFF100
00009FFD0009FFD000
0000CFFA000AFFC000
0000FFF70004DFF300
ENDCHAR
STARTCHAR uni040C
ENCODING 1036
SWIDTH 635 0
DWIDTH 15 0
BBX 17 24 0 0
BITMAP
000000000000685000
000000000002FE2000
000000000009F50000
00000000002F900000
00000000009C100000
000000000000000000
000016BDF8005CEB10
0007EDFFF509FFFF40
01CF55FFF17FB6EC10
1DF608FFD4FA000000
7FD00BFFADC0000000
AF900EFFCF20000000
8F803FFFF800000000
19806FFFFEEB300000
00009FFB28FFE00000
0000CFF800FFF20000
0000FFF501FFF20000
0003FFF203FFF00000
0007FFE007FFC00000
000AFFB00BFF900000
000DFF800EFF500000
001FFF502FFF200000
004FFF203FFF200000
007FFE000BFF700000
ENDCHAR
STARTCHAR uni040D
ENCODING 1037
SWIDTH 705 0
DWIDTH 17 0
BBX 18 23 0 0
BITMAP
0000000004FF200000
0000000000CF400000
00000000005F700000
00000000000D900000
000000000000000000
000015ADF80002FFF8
0005DEFFF6000AFFF4
009F95FFF2004FFFF1
09F908FFE000CFFFD0
4FF10BFFB005FFFFA0
9FB00EFF801DFFFF70
AF902FFF507FAFFF30
6F805FFF11ED7FFF10
05609FFD09F5AFFC00
0000CFFA2FB0DFF900
0000FFF7BF31FFF600
0003FFF8F904FFF300
0006FFFDE107FFE000
000AFFFF700BFFB000
000DFFFD000EFF8000
001FFFF4002FFF5000
004FFFB0005FFF2000
007FFF20008FFE0000
ENDCHAR
STARTCHAR uni040E
ENCODING 1038
SWIDTH 644 0
DWIDTH 15 0
BBX 17 23 0 0
BITMAP
0000000008B4000480
000000003FFB002D50
000000003FF948EA00
0000000008FFFE7000
000000000013200000
000005ADFB00000AE0
0005DEFFFF00001F80
008FA1BFFF30007F20
08FB007FFF7000DA00
3FF2003FFFA004F400
9FB0000EFFE00AC000
AF90000AFFF22F6000
7F800006FFF58E1000
08700002FFF9D80000
00000000DFFFF20000
000000009FFFB00000
000000005FFF400000
000000001FFD000000
000000000CF6000000
0000000008E1000000
000009EA2E70000000
00000FFFEC00000000
000007EEA100000000
ENDCHAR
STARTCHAR uni040F
ENCODING 1039
SWIDTH 665 0
DWIDTH 16 0
BBX 17 26 0 -8
BITMAP
000015ADF8000EFF80
0005DEFFF6002FFF50
009F95FFF2005FFF20
09FA08FFE0008FFE00
4FF10BFFB000BFFB00
9FB00EFF8000EFF700
AF902FFF4003FFF400
6F805FFF1006FFF100
05609FFD0009FFD000
0000CFFA000CFFA000
0000FFF7001FFF6000
0003FFF3004FFF3000
0006FFF0007FFF0000
000AFFC000AFFC0000
000DFF9000DFF90000
001FFF6001FFF60000
004FFFCCCCFFF20000
007FFFFFFFFFE00000
000000450000000000
000008F70000000000
00000DFD1000000000
00000CFFA000000000
000004FFF200000000
000000AFF100000000
0000003F8000000000
000000570000000000
ENDCHAR
STARTCHAR uni0410
ENCODING 1040
SWIDTH 668 0
DWIDTH 16 0
BBX 17 21 0 -3
BITMAP
0000000000006CEE60
00000000002CDFFF60
0000000002EA6FFF20
000000002EC09FFE00
00000001DE20CFFB00
0000000AF700FFF800
0000126FD003FFF500
03AEFFFFD847FFF100
4FFB6BFD58DFFFD000
BFD02FF7000DFFA000
9FE09FF1001FFF7000
0312FFA0004FFF3000
0008FF50007FFF1000
000EFF1000AFFC0000
004FFB0000DFF90000
009FF70001FFF60000
00CFF30004FFF20000
00EFF10008FFE00000
00EFE0000000000000
008FE0000000000000
000461000000000000
ENDCHAR
STARTCHAR uni0411
ENCODING 1041
SWIDTH 638 0
DWIDTH 15 0
BBX 16 18 0 0
BITMAP
00027BDEFFFFFFF1
008FFEFFFFFFFFC0
0AF91AFFD79BCB30
5FD00DFF90000000
AF801FFF50000000
CF604FFF10000000
BF607FFD01100000
2A70BFFEDFFD6000
0000EFFA58FFF600
0002FFF3008FFD00
0005FFF0004FFF10
0008FFC0003FFF20
000CFF90004FFF10
000FFF60007FFC00
003FFF3000CFF700
006FFF5839FFE100
00AFFC5FFFFF4000
00DFF909EEB30000
ENDCHAR
STARTCHAR uni0412
ENCODING 1042
SWIDTH 641 0
DWIDTH 15 0
BBX 15 18 0 0
BITMAP
000015ADEED92000
0006EFC878DFF500
01BFC335710BFD00
0BFB07FFE006FF10
5FF20AFFA008FD00
AFB00EFF702EF600
AF802FFF57EE6000
4F905FFFFFFFB200
01308FFD56DFFD00
0000CFF9003FFF50
0000EFF6000DFF70
0003FFF3000CFF70
0006FFF0000EFF60
0009FFC0001FFF20
000DFF90007FFC00
001FFF6A45EFF500
004FFF3FFFFF8000
007FFE07EFC60000
ENDCHAR
STARTCHAR uni0413
ENCODING 1043
SWIDTH 400 0
DWIDTH 10 0
BBX 16 18 0 0
BITMAP
00005ADEFFFFFFF2
005EFEFFFFFFFFC0
06FE44FFF89BCB30
2FF507FFF0000000
7FE00AFFC0000000
AFC00EFF80000000
AFC02FFF50000000
5FC05FFF20000000
03608FFE00000000
0000BFFB00000000
0000EFF700000000
0003FFF400000000
0006FFF100000000
0009FFD000000000
000CFF9000000000
001FFF6000000000
004FFF3000000000
007FFE0000000000
ENDCHAR
STARTCHAR uni0414
ENCODING 1044
SWIDTH 669 0
DWIDTH 16 0
BBX 17 18 -1 0
BITMAP
0000016ADEFDA40000
00018EFC978DFF9000
001CFB335710AFF700
00CFA07FFF001FFE10
06FE10BFFC000CFF50
0AFA00EFF8000BFF80
09F804FFF5000BFF90
02B907FFF2000CFF80
00000BFFD0000DFF70
00000EFFA0001FFF50
00003FFF70004FFF20
00017FFF30009FFD00
05EFFFFF0000DFF800
2FB6EFFC0006FFF100
7D01FFF8001EFF9000
8D39FFF924CFFC1000
4FFFFF9EFFFFE20000
05DFC602AEE9200000
ENDCHAR
STARTCHAR uni0415
ENCODING 1045
SWIDTH 459 0
DWIDTH 11 0
BBX 12 18 0 0
BITMAP
0000029DED60
00004EFD8BF6
0001EFD101FB
0008FF7002FB
000CFF400AF6
000CFF500440
0008FFA00000
0001CFF92000
0019EFE61000
01DFFE200000
0BFFF5000000
4FFFC0000000
9FFF70000000
CFFF60000013
CFFF800001B3
8FFFF6348E60
1DFFFFFFE500
029EFEB71000
ENDCHAR
STARTCHAR uni0416
ENCODING 1046
SWIDTH 777 0
DWIDTH 19 0
BBX 21 18 -1 0
BITMAP
0003CFC200159C1019EE60
000BFFFD008FFD01DFFFC0
0007EAAF30CFFA0BF7BE60
0000002F70EFF75F800000
0000000D93FFF4CD000000
0000000CA6FFF3F6000000
0000000BA9FFC8E1000000
0000000B9DFF9C90000000
00006CEFEFFFEFFEA10000
0008FFE99FFF98EFF80000
002FFF307FFF108FFB0000
008FFB00AFFC008FFA0000
00BFF700DFF900BFF70000
00EFF401FFF601FFF30000
02FFF105FFF205FFE00000
06FFD008FFE009FFA00000
0BFF900BFFB00AFF900000
7FFB100EFF7005EFD20000
ENDCHAR
STARTCHAR uni0417
ENCODING 1047
SWIDTH 525 0
DWIDTH 13 0
BBX 13 18 -1 0
BITMAP
0000029DEEB300
00005E97BFFF40
0003D2000DFFB0
000930000BFFD0
000100001EFFA0
000000008FFF30
00000239FFE400
00001FFFFC1000
0000157DFFD300
00000001EFFD00
00000000AFFF30
000000008FFF50
017400009FFF40
0DFA0000CFFF10
3FF40003FFF900
2FF5001CFFD100
0BFE77DFFB2000
007CEEDA500000
ENDCHAR
STARTCHAR uni0418
ENCODING 1048
SWIDTH 705 0
DWIDTH 17 0
BBX 18 18 0 0
BITMAP
000015ADF80002FFF8
0005DEFFF6000AFFF4
009F95FFF2004FFFF1
09F908FFE000CFFFD0
4FF10BFFB005FFFFA0
9FB00EFF801DFFFF70
AF902FFF507FAFFF30
6F805FFF11ED7FFF10
05609FFD09F5AFFC00
0000CFFA2FB0DFF900
0000FFF7BF31FFF600
0003FFF8F904FFF300
0006FFFDE107FFE000
000AFFFF700BFFB000
000DFFFD000EFF8000
001FFFF4002FFF5000
004FFFB0005FFF2000
007FFF20008FFE0000
ENDCHAR
STARTCHAR uni0419
ENCODING 1049
SWIDTH 705 0
DWIDTH 17 0
BBX 18 23 0 0
BITMAP
000000001AA1000840
000000008FF6005E10
000000008FF65AF500
000000001CFFFC4000
000000000023100000
000015ADF80002FFF8
0005DEFFF6000AFFF4
009F95FFF2004FFFF1
09F908FFE000CFFFD0
4FF10BFFB005FFFFA0
9FB00EFF801DFFFF70
AF902FFF507FAFFF30
6F805FFF11ED7FFF10
05609FFD09F5AFFC00
0000CFFA2FB0DFF900
0000FFF7BF31FFF600
0003FFF8F904FFF300
0006FFFDE107FFE000
000AFFFF700BFFB000
000DFFFD000EFF8000
001FFFF4002FFF5000
004FFFB0005FFF2000
007FFF20008FFE0000
ENDCHAR
STARTCHAR uni041A
ENCODING 1050
SWIDTH 635 0
DWIDTH 15 0
BBX 17 18 0 0
BITMAP
000016BDF8005CEB10
0007EDFFF509FFFF40
01CF55FFF17FB6EC10
1DF608FFD4FA000000
7FD00BFFADC0000000
AF900EFFCF20000000
8F803FFFF800000000
19806FFFFEEB300000
00009FFB28FFE00000
0000CFF800FFF20000
0000FFF501FFF20000
0003FFF203FFF00000
0007FFE007FFC00000
000AFFB00BFF900000
000DFF800EFF500000
001FFF502FFF200000
004FFF203FFF200000
007FFE000BFF700000
ENDCHAR
STARTCHAR uni041B
ENCODING 1051
SWIDTH 549 0
DWIDTH 13 0
BBX 15 21 -1 -3
BITMAP
00000000004BEEA0
0000000019FFFF90
00000001BE4FFF60
0000000BE34FFF30
0000009F607FFF00
000005FC00AFFC00
00002EF400EFF800
0000AFB002FFF500
0004FF4005FFF200
000CFC0008FFE000
005FF6000BFFB000
00CFE1000EFF7000
04FFA0003FFF4000
0AFF40006FFF1000
1FFE00009FFD0000
5FFB0000CFFA0000
8FF70001FFF60000
AFF50004FFF30000
AFF3000000000000
4FF3000000000000
0363000000000000
ENDCHAR
STARTCHAR uni041C
ENCODING 1052
SWIDTH 787 0
DWIDTH 19 0
BBX 19 18 1 0
BITMAP
000016BDFF10005FFF30
0004DEBFFF1000CFFF10
006FB1BFFF0003FFFE00
05FC01FFFE0009FFFC00
0DF507FFFE001EFFFA00
4FF10CFFFD006FFFF800
4FE03FFFFD00CFFFF600
1DE08FDFFC03FDFFF400
0041DE9FFB0AF9FFF200
0004F99FFB1FD7FFE000
000AF49FFA7F6AFFC000
001ED0AFF9DE1CFFA000
006F80BFFDF90EFF8000
00BF20BFFFF31FFF6000
02FC00CFFFC03FFF4000
07F700DFFF605FFF2000
0DF100DFFE007FFF0000
3FB000EFF8009FFD0000
ENDCHAR
STARTCHAR uni041D
ENCODING 1053
SWIDTH 665 0
DWIDTH 16 0
BBX 17 18 0 0
BITMAP
000015ADF8000EFF80
0005DEFFF6002FFF50
009F95FFF2005FFF20
09FA07FFE0008FFE00
4FF10BFFB000BFFB00
9FB00EFF8000EFF700
AF902FFF5003FFF400
6F805FFFCBBCFFF100
05609FFFFFFFFFD000
0000CFFA000CFFA000
0000FFF7001FFF6000
0003FFF4004FFF3000
0006FFF1007FFF0000
000AFFC000AFFC0000
000DFF9000DFF90000
001FFF6001FFF60000
004FFF3004FFF20000
007FFE0008FFE00000
ENDCHAR
STARTCHAR uni041E
ENCODING 1054
SWIDTH 665 0
DWIDTH 16 0
BBX 16 18 0 0
BITMAP
0000026BDEFD9200
00029FFB879EFE40
004EF8148812EFE1
05FF40AFF500AFF6
1EF709FFA0008FF9
6FE03FFF20007FFB
9FA0CFFA00008FFB
6F93FFF400009FF9
0669FFE00000CFF8
000DFFA00001FFF4
001FFF700004FFF1
004FFF40000AFFB0
005FFF30001EFF50
006FFF20009FFC00
005FFF4003FFF300
001FFF903EFF6000
0008FFFEFFE50000
00006CFEC8100000
ENDCHAR
STARTCHAR uni041F
ENCODING 1055
SWIDTH 688 0
DWIDTH 17 0
BBX 19 18 0 0
BITMAP
00005ACEFDC974211480
004DFFFFFFFFFFFFFFB0
04FFFDFFFFFFFFFFFF50
0EFD26FFF235BFFFB600
5FF209FFD0009FFD0000
9FB00DFFA000CFFA0000
AF901FFF6001FFF60000
8F804FFF3004FFF30000
2B908FFE0007FFE00000
0000BFFB000BFFB00000
0000EFF8000EFF800000
0002FFF5002FFF500000
0006FFF1006FFF100000
0009FFD0009FFD000000
000CFFA000CFF9000000
001FFF6001FFF6000000
004FFF3004FFF3000000
007FFE0007FFE0000000
ENDCHAR
STARTCHAR uni0420
ENCODING 1056
SWIDTH 573 0
DWIDTH 14 0
BBX 15 18 0 0
BITMAP
000016BDFEB60000
0006EFB879EFC100
00BF9112403FFA00
0BF808FFD00AFF10
6FE00CFFA007FF30
BF900FFF7008FF20
CF603FFF300BFE00
9F607FFF002FF800
1860AFFC00BFD100
0000DFF919FD2000
0002FFFCDE810000
0005FFF520000000
0008FFE000000000
000CFFA000000000
000EFF7000000000
003FFF4000000000
006FFF1000000000
00AFFC0000000000
ENDCHAR
STARTCHAR uni0421
ENCODING 1057
SWIDTH 497 0
DWIDTH 12 0
BBX 13 18 0 0
BITMAP
0000029DFEB400
00006FFFB7CF50
0005FFF8003FB0
002EFFC0003FC0
00BFFF4000BF90
03FFFC00006810
08FFF700000000
0DFFF200000000
1FFFD000000000
4FFFA000000000
6FFF8000000000
7FFF7000000000
8FFF7000000000
7FFF9000000120
5FFFD000002C20
1EFFFB4349E600
06FFFFFFFE5000
004AEFEB710000
ENDCHAR
STARTCHAR uni0422
ENCODING 1058
SWIDTH 481 0
DWIDTH 12 0
BBX 18 18 0 0
BITMAP
00015ADEFEB8410282
005EEA7EFFFFFFFFF1
05FC101FFFFFFFFFA0
2EF1004FFFA8ACC810
7FA0007FFF40000000
BF7000AFFF10000000
CF6000DFFC00000000
BF6001FFF900000000
3C8004FFF500000000
000007FFF200000000
00000AFFE000000000
00000EFFA000000000
00002FFF7000000000
00005FFF3000000000
00008FFF0000000000
0000BFFC0000000000
0000EFF80000000000
0002FFF50000000000
ENDCHAR
STARTCHAR uni0423
ENCODING 1059
SWIDTH 644 0
DWIDTH 15 0
BBX 17 18 0 0
BITMAP
000005ADFB00000AE0
0005DEFFFF00001F80
008FA1BFFF30007F20
08FB007FFF7000DA00
3FF2003FFFA004F400
9FB0000EFFE00AC000
AF90000AFFF22F6000
7F800006FFF58E1000
08700002FFF9D80000
00000000DFFFF20000
000000009FFFB00000
000000005FFF400000
000000001FFD000000
000000000CF6000000
0000000008E1000000
000009EA2E70000000
00000FFFEC00000000
000007EEA100000000
ENDCHAR
STARTCHAR uni0424
ENCODING 1060
SWIDTH 786 0
DWIDTH 19 0
BBX 19 20 0 0
BITMAP
00000000121000000000
000049DFFFFFC1000000
0008FFB759FFE0000000
001FF6000AFFB0000000
000DF2000DFF80000000
000141013FFF82000000
000039618FFFDFE70000
002BF400CFFD05EFC100
02EF8000EFF9006FF900
0CFF2003FFF6002FFF00
4FFD0006FFF2001FFF20
7FFC0009FFE0003FFF00
8FFC000DFFA0008FFC00
6FFE101FFF7001EFF500
2FFF704FFF301CFFA000
07FFF78FFF36DFFA0000
006DFFFFFFFFFB400000
000024DFFB4310000000
000000FFF70000000000
000003FFF40000000000
ENDCHAR
STARTCHAR uni0425
ENCODING 1061
SWIDTH 620 0
DWIDTH 15 0
BBX 15 18 0 0
BITMAP
000016BDF9001DB0
0007EDFFFC007F30
01BF70DFFF11E900
0BF700AFFF49E100
6FD0007FFF9F7000
BF90003FFFFD0000
CF70001FFFF50000
8F60000CFFF10000
05500009FFF40000
00000006FFF70000
00000008FFFA0000
0000002FFFFD0000
000000ADCFFF2000
000003F58FFF5000
00000CB05FFF8000
00005F302FFFB000
0001D9000DFFE000
0007E1000AFFF200
ENDCHAR
STARTCHAR uni0426
ENCODING 1062
SWIDTH 692 0
DWIDTH 17 0
BBX 17 22 0 -4
BITMAP
000005ADE8000EFF80
0006DEFFF5002FFF50
00AF85FFF2005FFF20
0BF908FFE0008FFE00
5FE10BFFB000BFFA00
AFA00EFF8000EFF700
AF902FFF4003FFF400
6F805FFF1006FFF100
04509FFD0009FFD000
0000CFFA000CFF9000
0000FFF7001FFF6000
0003FFF4004FFF3000
0006FFF1007FFE0000
000AFFC000AFFC0000
000DFF9000DFF80000
001FFF6002FFF50000
004FFFC956FFF20000
007FFFFFFFFFE00000
00100148EFFFD51130
000000001AFFFFFFE0
00000000006FFFFF90
000000000002AEEA10
ENDCHAR
STARTCHAR uni0427
ENCODING 1063
SWIDTH 695 0
DWIDTH 17 0
BBX 18 18 0 0
BITMAP
000015ADF80003FFF4
0006EEFFF60006FFF1
00AF95FFF20009FFD0
0AF908FFE0000CFFA0
4FE10BFFB0001FFF60
9FA00EFF80004FFF30
AF901FFF50007FFF00
6F802FFF4000AFFC00
03500FFFB116EFF900
000009FFFFFFFFF500
0000018DFDA8FFF200
000000000007FFE000
00000000000BFFB000
00000000000EFF8000
00000000002FFF5000
00000000005FFF1000
00000000009FFD0000
0000000000CFFA0000
ENDCHAR
STARTCHAR uni0428
ENCODING 1064
SWIDTH 906 0
DWIDTH 22 0
BBX 23 18 0 0
BITMAP
000015ADF8009FFC002FFF50
0005DEFFF600DFF9005FFF20
009F95FFF201FFF6008FFE00
09FA08FFE004FFF300BFFA00
4FF10BFFB007FFE000EFF700
9FB00EFF800AFFC003FFF400
AF902FFF400EFF8006FFF100
6F805FFF102FFF5009FFD000
05609FFD005FFF200CFFA000
0000CFFA008FFE001FFF6000
0000FFF700BFFB004FFF3000
0003FFF300EFF7007FFF0000
0006FFF003FFF400AFFC0000
000AFFC006FFF100DFF90000
000DFF9009FFD001FFF50000
001FFF600CFFA005FFF20000
004FFFCCCFFFDCCDFFE00000
007FFFFFFFFFFFFFFFB00000
ENDCHAR
STARTCHAR uni0429
ENCODING 1065
SWIDTH 934 0
DWIDTH 22 0
BBX 23 22 0 -4
BITMAP
000015ADF8009FFC002FFF50
0006EEFFF500DFF9005FFF20
009F85FFF201FFF6008FFE00
09F908FFE004FFF300BFFA00
4FE10BFFB007FFE000EFF700
9FB00EFF800AFFC003FFF400
AF902FFF400EFF8006FFF100
6F805FFF102FFF5009FFD000
04509FFD005FFF200CFFA000
0000CFFA008FFE001FFF6000
0000FFF700BFFB004FFF3000
0003FFF300EFF7007FFF0000
0006FFF103FFF400AFFC0000
000AFFC006FFF100DFF90000
000DFF9009FFD001FFF60000
001FFF600CFFA005FFF20000
004FFFCB9FFF6008FFE00000
007FFFFFFFFFC84BFFB00000
001001369DFFFFFFFFA21130
000000000038DFFFFFFFFFB0
000000000000049EFFFFFF60
000000000000000049CEE800
ENDCHAR
STARTCHAR uni042A
ENCODING 1066
SWIDTH 714 0
DWIDTH 17 0
BBX 17 18 0 0
BITMAP
000048CDFFE5000000
003BB87BFFF2000000
03E7000AFFD0000000
1ED0000DFFA0000000
6F90001FFF60000000
AF90004FFF30000000
9FC0007FFE01200000
3EF300AFFEDFFE8000
014100DFFB58FFF800
000001FFF5007FFE10
000004FFF2002FFF30
000008FFE0001FFF40
00000BFFB0002FFF30
00000EFF80005FFE00
00002FFF5000AFF900
00005FFF4937FFF200
00008FFE3FFFFF6000
0000BFFB08EFC40000
ENDCHAR
STARTCHAR uni042B
ENCODING 1067
SWIDTH 909 0
DWIDTH 22 0
BBX 23 18 0 0
BITMAP
000016BDF8000000001FFF60
0007EDFFF5000000004FFF30
01CF65FFF2000000007FFF00
0CF608FFD000000000AFFC00
7FD00BFFA000000000DFF800
AFA00EFF6000000002FFF500
9F802FFF3010000005FFF200
1A806FFFCFFFA10008FFE000
00009FFD56DFFB000BFFB000
0000CFF8003FFF300EFF8000
0000FFF5000EFF703FFF4000
0003FFF2000DFF706FFF1000
0007FFE0000EFF609FFD0000
000AFFB0002FFF30CFFA0000
000DFF80007FFD01FFF70000
001FFF5B45EFF504FFF30000
004FFF3EFFFF9007FFF10000
007FFE05DFD7000AFFC00000
ENDCHAR
STARTCHAR uni042C
ENCODING 1068
SWIDTH 640 0
DWIDTH 15 0
BBX 15 18 0 0
BITMAP
000016BDF8000000
0007EDFFF5000000
01CF65FFF2000000
0CF608FFD0000000
7FD00BFFA0000000
AFA00EFF60000000
9F802FFF30100000
1A806FFFCFFFA100
00009FFD56DFFB00
0000CFF8003FFF30
0000FFF5000EFF70
0003FFF2000DFF70
0007FFE0000EFF60
000AFFB0002FFF30
000DFF80007FFD00
001FFF5B45EFF500
004FFF3EFFFF9000
007FFE05DFD70000
ENDCHAR
STARTCHAR uni042D
ENCODING 1069
SWIDTH 544 0
DWIDTH 13 0
BBX 14 18 -1 0
BITMAP
0000039DFEB600
00009C88DFFFA0
000970000CFFF4
0048000006FFF9
0010000004FFFB
0000000002FFFC
0000022224FFFC
00004FFFFFFFFA
000025555AFFF8
000000000AFFF5
000000000DFFF1
000000003FFFC0
037300009FFF60
1FF70001EFFD00
4FF10009FFF300
2FE0004FFF6000
0BF726EFF60000
017DEEC8200000
ENDCHAR
STARTCHAR uni042E
ENCODING 1070
SWIDTH 946 0
DWIDTH 23 0
BBX 23 18 0 0
BITMAP
000015ADF800029DFEC71000
0005DFFFF5002EA88BFFD200
009FA5FFF2005358508FFB00
09FA07FFE0002CFE201FFF20
4FF20BFFB000CFF5000CFF50
9FB00EFF8008FFC0000BFF70
AF902FFF501EFF60000CFF70
6F805FFFCBDFFF10000DFF50
05608FFFFFFFFB00000FFF40
0000CFFA02FFF700004FFF10
0000FFF705FFF300007FFB00
0003FFF408FFF10000DFF700
0006FFF109FFE00004FFF100
0009FFC00AFFE0000BFF8000
000DFF9008FFF0005FFD1000
001FFF6005FFF404EFE30000
004FFF3000CFFFDFFD300000
007FFE000018DFEB60000000
ENDCHAR
STARTCHAR uni042F
ENCODING 1071
SWIDTH 630 0
DWIDTH 15 0
BBX 18 18 -1 0
BITMAP
000000048CEFEC8200
000002BFFB878BFF60
00002EFC2014655FF3
0000BFD100EFF80CF8
0002FF6002FFF509F8
0005FF3006FFF20AD2
0004FF4009FFD00200
0000EFA00CFFA00000
00004EF93FFF700000
00018EFFFFFF400000
000BFFE79FFF100000
005FFE109FFC000000
009FF800CFF9000000
00DFF401FFF6000000
01FFF104FFF2000000
04FFC007FFE0000000
09FF800BFFB0000000
6FFB100EFF80000000
ENDCHAR
STARTCHAR uni0430
ENCODING 1072
SWIDTH 526 0
DWIDTH 13 0
BBX 15 12 -1 0
BITMAP
00006CFE7FFF6000
0009FFD7DFFF3000
007FFD107FFE0000
02FFF500AFFC0000
08FFE000DFF80000
0DFF9001FFF50000
2FFF6004FFF20000
4FFF4008FFE00230
4FFF400DFFB00B40
3FFFA3AFFFD37C00
0CFFFFC6FFFFE200
01AEE9109ED91000
ENDCHAR
STARTCHAR uni0431
ENCODING 1073
SWIDTH 430 0
DWIDTH 10 0
BBX 15 18 -1 0
BITMAP
0000000000001C50
000009EFFFFFFF10
00003FFFFFFFF900
00002FFFFFFE9100
000008FE10000000
0000009F90000000
0000001CF4000000
00018EFFFC000000
002CFF96EF200000
00CFF900BF400000
07FFF100BF400000
0DFFB000DF300000
2FFF6001FE000000
4FFF4006FA000000
4FFF300CF3000000
2FFF929FA0000000
0AFFFFFC10000000
018DFD8100000000
ENDCHAR
STARTCHAR uni0432
ENCODING 1074
SWIDTH 449 0
DWIDTH 11 0
BBX 15 18 -1 0
BITMAP
0000008DE9000000
00000AFD8F600000
00007FF30CA00000
0002FFA00DB00000
000AFF400E900000
003FFE003F600000
008FF9007F100000
00EFF500CA000000
05FFF104F3000420
09FFD0AFE315AA10
0DFFA2FFFFEA4000
1FFF70ACFF500000
4FFF5000DF500000
5FFF4000EF300000
3FFF5004FD000000
1EFFB35EF5000000
08FFFFFF70000000
007DFDA400000000
ENDCHAR
STARTCHAR uni0433
ENCODING 1075
SWIDTH 375 0
DWIDTH 9 0
BBX 11 12 -1 0
BITMAP
0005CEEA2000
007FFFFFD000
03F73BFFF200
0B8007FFF200
1B101DFFC000
0005DFFE3000
01AFFFB20000
0BFFF6000000
5FFF60000660
7FFF30007900
3FFFD78D7000
05BEFD930000
ENDCHAR
STARTCHAR uni0434
ENCODING 1076
SWIDTH 507 0
DWIDTH 12 0
BBX 14 18 -1 -6
BITMAP
00006CFE7FFF60
0009FFD7DFFF30
007FFD107FFE00
02FFF500AFFB00
08FFE000DFF800
0DFF9001FFF500
2FFF6005FFF200
4FFF4008FFE003
4FFF400DFFA02D
3FFFA3AFFF70A7
0CFFFFFFFF6AB0
01AEEA8FFFE800
000018EFFD1000
0006EBEFFA0000
003F70FFF60000
006E05FFF10000
004F8DFF700000
0007DEC5000000
ENDCHAR
STARTCHAR uni0435
ENCODING 1077
SWIDTH 384 0
DWIDTH 9 0
BBX 11 12 -1 0
BITMAP
00005BEEB200
0009FFC9FA00
007FFD11FC00
02FFF505F900
08FFD01DF300
0DFFA5DF6000
2FFFFFC40000
4FFF72000010
4FFF40000590
2FFF60005B00
0BFFE88C9000
019DFDA40000
ENDCHAR
STARTCHAR uni0436
ENCODING 1078
SWIDTH 882 0
DWIDTH 21 0
BBX 23 12 -1 0
BITMAP
003BEEA1004FFE0018DEC200
02EA9FFC007FFC00BFE9FA00
09A00AFF40AFF807FF41FB00
052007FF70DFF51EFB02B400
000007FF83FFF47FF6000000
000008FFFFFFFFFFF2000000
00000BFF5AFFB4FFE0000000
04100EFC0BFF71FFD0000040
9F404FF70EFF41FFD00003A0
DF20BFD02FFF10EFF2003C10
AF88FE305FFD007FFD8AD200
2BEEB3009FFA0007DFD81000
ENDCHAR
STARTCHAR uni0437
ENCODING 1079
SWIDTH 498 0
DWIDTH 12 0
BBX 13 18 0 -6
BITMAP
0003ADED700000
005FFFFFF90000
03FB44DFFF1000
0AB0007FFF3000
1F20007FFF1000
6A0000AFFC0000
B50002FFF40000
60025DFF500170
003FFFD3000790
0025CFF9002E20
00003FFF34D700
00000EFFED5000
00039FFFA00000
007FAFFF700000
05F43FFF400000
09B08FFD000000
07E8FFF4000000
009EEB30000000
ENDCHAR
STARTCHAR uni0438
ENCODING 1080
SWIDTH 505 0
DWIDTH 12 0
BBX 14 12 -1 0
BITMAP
007FFF008FFE00
00AFFC00BFFA00
00EFF800EFF700
02FFF503FFF400
05FFF206FFF100
08FFE009FFD000
0CFFA00DFF9000
0EFF701FFF6005
2FFF507FFF304C
2FFFA6EFFF86D4
0EFFFF5DFFFF80
04CEC404DEC500
ENDCHAR
STARTCHAR uni0439
ENCODING 1081
SWIDTH 505 0
DWIDTH 12 0
BBX 14 17 -1 0
BITMAP
00005B70001B00
0000EFF000A900
0000EFC46CD100
00005EFFF91000
00000022000000
007FFF008FFE00
00AFFC00BFFA00
00EFF800EFF700
02FFF503FFF400
05FFF206FFF100
08FFE009FFD000
0CFFA00DFF9000
0EFF701FFF6005
2FFF507FFF304C
2FFFA6EFFF86D4
0EFFFF5DFFFF80
04CEC404DEC500
ENDCHAR
STARTCHAR uni043A
ENCODING 1082
SWIDTH 501 0
DWIDTH 12 0
BBX 14 12 -1 0
BITMAP
007FFF0008EE30
00AFFC01CEFF70
00DFF81CA2BC20
01FFF6CC100000
05FFFCFB950000
08FFFFFFFF2000
0BFFD42FFF5000
0EFF700FFF4004
2FFF402FFF206B
6FFF103FFF64E3
9FFD001EFFFF80
CFFA0004CFD600
ENDCHAR
STARTCHAR uni043B
ENCODING 1083
SWIDTH 558 0
DWIDTH 13 0
BBX 16 12 -1 0
BITMAP
00000005CFFFF200
0000003FBAFFE000
000000CA07FFB000
000002F30BFF8000
000006D00EFF4000
00000A903FFF1000
00000D606FFD0000
14101F309FFA0042
AFB05E00CFF701E1
DF90BA00DFFA3B80
9F68F400AFFFFC10
1AEE60001AEE9100
ENDCHAR
STARTCHAR uni043C
ENCODING 1084
SWIDTH 827 0
DWIDTH 20 0
BBX 22 12 -1 0
BITMAP
00000004CFD00006FFF900
0000004FFFE0000DFFF600
000000C9FFF0006FFFF300
000003F2FFF000DEFFE000
000007D0EFF106FAFFB000
00000A90DFF20DABFF8000
00000D60CFF26F3EFF5000
27201F30BFF3DA3FFF1026
BFB05E00AFFAF35FFE00A7
DF70AA009FFFA06FFF68E1
9F68F3008FFF303FFFFF50
1AED60007FFA0006DFC400
ENDCHAR
STARTCHAR uni043D
ENCODING 1085
SWIDTH 507 0
DWIDTH 12 0
BBX 14 12 -1 0
BITMAP
007FFF004FFE00
00AFFC008FFB00
00EFF800BFF800
02FFF500EFF400
05FFF424FFF100
08FFFFFFFFD000
0BFFC44BFFA000
0EFF800CFF6003
3FFF400FFF303D
6FFF101FFF74D6
9FFD000DFFFFA0
CFFA0003CED800
ENDCHAR
STARTCHAR uni043E
ENCODING 1086
SWIDTH 439 0
DWIDTH 11 0
BBX 15 12 -1 0
BITMAP
00004BEEB2000000
0008FFD8EC000000
006FFD10BF200330
01EFF604FF65AC20
08FFE004FFEA5000
0DFFA000DF200000
2FFF6002FE000000
4FFF4006FA000000
5FFF400DF5000000
3FFF92AFB0000000
0CFFFFFC10000000
018DFD7100000000
ENDCHAR
STARTCHAR uni043F
ENCODING 1087
SWIDTH 505 0
DWIDTH 12 0
BBX 14 12 -1 0
BITMAP
007FFE7CED5000
00AFFFAAFFF100
00EFFB02FFF400
02FFF403FFF300
05FFF105FFF100
08FFD008FFD000
0BFFA00BFF9000
0EFF700EFF5006
3FFF402FFF304B
6FFF102FFF74D4
9FFD000DFFFF90
CFFA0003CED600
ENDCHAR
STARTCHAR uni0440
ENCODING 1088
SWIDTH 468 0
DWIDTH 11 0
BBX 14 19 -3 -6
BITMAP
00004FFF300000
00007FFF7CED50
0000BFFFA9FFF3
0000EFFA00CFF8
0002FFF500AFF9
0005FFF100BFF8
0008FFD000DFF7
000CFFA001FFF4
000FFF7006FFF1
003FFF400DFFA0
006FFF42AFFE20
00AFFFFFFFF500
00DFFBCFEB3000
01FFF600000000
04FFF300000000
07FFE000000000
0BFFB000000000
0EFF8000000000
19620000000000
ENDCHAR
STARTCHAR uni0441
ENCODING 1089
SWIDTH 384 0
DWIDTH 9 0
BBX 11 12 -1 0
BITMAP
00005BEEB200
0009FFC9FA00
007FFE11FC00
01FFF703F800
08FFF1002000
0DFFB0000000
2FFF70000000
4FFF50000000
4FFF40000380
2FFF60004C10
0BFFE88BA100
019DFDA40000
ENDCHAR
STARTCHAR uni0442
ENCODING 1090
SWIDTH 752 0
DWIDTH 18 0
BBX 20 12 -1 0
BITMAP
007FFE7CEE818DFC4000
00AFFFAAFFFEABFFE100
00EFFB03FFFA03FFF300
02FFF404FFF303FFF200
05FFF107FFE006FFF000
08FFD00AFFC009FFC000
0BFFA00DFF900DFF8000
0EFF701FFF601FFF4006
3FFF404FFF203FFF206B
6FFF107FFE003FFF64E3
9FFD00AFFC000EFFFF90
CFFA00DFF90003CEC600
ENDCHAR
STARTCHAR uni0443
ENCODING 1091
SWIDTH 486 0
DWIDTH 12 0
BBX 14 18 -1 -6
BITMAP
007FFF008FFE00
00AFFC00CFFA00
00EFF800EFF700
02FFF503FFF400
05FFF206FFF100
08FFE00AFFC000
0CFFA00DFF9000
0EFF701FFF6023
2FFF507FFF30A5
2FFF97EFFE04D0
0EFFFFEFFC6E30
04CFC5EFFFB200
00006CFFF60000
001CDAFFF20000
00AB08FFE00000
00E71EFF800000
00BFEFFD100000
002BED92000000
ENDCHAR
STARTCHAR uni0444
ENCODING 1092
SWIDTH 738 0
DWIDTH 18 0
BBX 18 23 -1 -6
BITMAP
000000000035720000
0000000002FFF10000
0000000005FFC00000
0000000009FF900000
000000000CFF500000
00005CEE7FFF6BED70
000AFFD8DFFFB8FFF4
008FFD108FFB00AFF9
02FFF500BFF6008FFB
09FFD000EFF3009FFA
0EFF8002FFF000BFF9
2FFF5005FFC000EFF7
4FFF3009FF9005FFF3
5FFF300DFF500CFFC0
3FFFA3AFFF74BFFF40
0CFFFFEFFFFFFFF700
02AEE97FFCAEEB4000
000000AFF800000000
000000DFF500000000
000001FFF100000000
000005FFD000000000
000008FFA000000000
000007730000000000
ENDCHAR
STARTCHAR uni0445
ENCODING 1093
SWIDTH 522 0
DWIDTH 13 0
BBX 14 13 0 0
BITMAP
000000000AE700
0004CED40CFE00
005CAFFD019E00
01C11FFF31E800
08500DFF6BD100
1D000BFFED2000
680009FFE20000
A4000AFFB00000
91007FFFD00033
0005F6FFF100C3
003E70DFF93AA0
02E9007FFFFC10
1DC00009ED7100
ENDCHAR
STARTCHAR uni0446
ENCODING 1094
SWIDTH 535 0
DWIDTH 13 0
BBX 13 18 -1 -6
BITMAP
007FFF008FFE00
00AFFC00BFFA00
00EFF800EFF700
02FFF503FFF400
05FFF206FFF100
08FFE009FFD000
0CFFA00DFF9000
0EFF701FFF6000
2FFF507FFF3000
2FFFA6EFFF8420
0EFFFF5DFFFF50
04CEC404DE9E30
00000000002F00
0000000001AB00
00005CFFFFF500
0003FFFFFFB000
0009FFFFE91000
000A2000000000
ENDCHAR
STARTCHAR uni0447
ENCODING 1095
SWIDTH 505 0
DWIDTH 12 0
BBX 13 12 0 0
BITMAP
07FFE008FFE000
0BFFB00CFFA000
0EFF800FFF7000
2FFF503FFF4000
5FFF208FFF1000
5FFF77FFFC0000
3FFFFFFFF90000
06DFB5FFF600A0
000003FFF306A0
000003FFFB9F30
000001EFFFF600
0000004DEB4000
ENDCHAR
STARTCHAR uni0448
ENCODING 1096
SWIDTH 752 0
DWIDTH 18 0
BBX 20 12 -1 0
BITMAP
007FFF008FFE009FFC00
00AFFC00BFFA00DFF900
00EFF800EFF701FFF600
02FFF503FFF404FFF300
05FFF206FFF107FFE000
08FFE009FFD00AFFC000
0CFFA00DFF900EFF8000
0EFF701FFF602FFF5005
2FFF507FFF408FFF305B
2FFFA6EFFF97EFFF86E3
0EFFFF5DFFFF5EFFFF70
04CEC404DEC405DEB400
ENDCHAR
STARTCHAR uni0449
ENCODING 1097
SWIDTH 782 0
DWIDTH 19 0
BBX 19 18 -1 -6
BITMAP
007FFF008FFE009FFC00
00AFFC00BFFA00DFF900
00EFF800EFF701FFF600
02FFF503FFF404FFF300
05FFF206FFF107FFE000
08FFE009FFD00AFFC000
0CFFA00DFF900EFF8000
0EFF701FFF602FFF5000
2FFF507FFF408FFF3000
2FFFA6EFFF97EFFF8410
0EFFFF5DFFFF5EFFFF40
04CEC404DEC405EE8F20
00000000000000003E00
0000000000000001BA00
00000000009DFFFFF400
0000000008FFFFFFA000
000000000EFFFFE81000
000000004D1000000000
ENDCHAR
STARTCHAR uni044A
ENCODING 1098
SWIDTH 448 0
DWIDTH 11 0
BBX 11 12 -1 0
BITMAP
019EFFFA0000
09FA7DE20000
0DF67F700000
09C8FE011000
003FFDEFFB10
01DFF85CFF80
07FFC006FFB0
0DFF8007FFA0
1FFF500BFF60
1FFF504FFC00
0AFFC8EFC100
018DFEB50000
ENDCHAR
STARTCHAR uni044B
ENCODING 1099
SWIDTH 655 0
DWIDTH 16 0
BBX 18 12 -1 0
BITMAP
007FFC0000003AF700
00BFF9000029FFF400
00EFF60029FDFFF100
02FFF5EEFC47FFC000
05FFE4FFF40AFF9000
08FFB005F80DFF6000
0BFF8005F91FFF3000
0EFF5008F84FFE0035
1FFF201DF37FFC00B5
1FFF41AFA08FFE69D0
0BFFFFFC104FFFFE30
019DEC710007DFB300
ENDCHAR
STARTCHAR uni044C
ENCODING 1100
SWIDTH 448 0
DWIDTH 11 0
BBX 11 12 -1 0
BITMAP
007FFF000000
00AFFC000000
00DFF9000000
01FFF8797200
05FFFFFFFE20
08FFE53CFF90
0BFFB006FFB0
0EFF8007FFA0
1FFF501DFF40
1FFF71AFFB00
0AFFFFFFB100
018DFDB50000
ENDCHAR
STARTCHAR uni044D
ENCODING 1101
SWIDTH 413 0
DWIDTH 10 0
BBX 11 12 -2 0
BITMAP
00017CEEB400
001BB7BFFF50
008B000CFFC0
00310009FFE0
0000122AFFD0
0000AFFFFFB0
0000455FFF60
0350004FFF10
1ED000AFF800
3FB003FFC100
1EE55DFD1000
04BEEC710000
ENDCHAR
STARTCHAR uni044E
ENCODING 1102
SWIDTH 675 0
DWIDTH 16 0
BBX 20 12 -1 0
BITMAP
007FFF00017CED800000
00AFFC001CFFAAF70000
00EFF900BFFA01FC0005
02FFF506FFF209FE47C9
05FFF42DFFB009FFD930
08FFFFFFFF6003FC0000
0BFFC4AFFF2005FA0000
0EFF709FFF0009F60000
3FFF40AFFE001EE10000
6FFF108FFF008F600000
9FFD002EFFA9F9000000
CFFA0003AEEC50000000
ENDCHAR
STARTCHAR uni044F
ENCODING 1103
SWIDTH 527 0
DWIDTH 13 0
BBX 15 12 -1 0
BITMAP
000028CEFFFF6000
0004EFE97FFF3000
001EFE203FFF0000
005FFA007FFC0000
006FFA00AFF80000
003FFE52EFF50000
0007FFFFFFF20000
03104F86FFE00230
AFB08F27FFB00B50
DF80EC09FFD38C00
AF8CF506FFFFE300
2BED70008EFB3000
ENDCHAR
STARTCHAR uni0450
ENCODING 1104
SWIDTH 384 0
DWIDTH 9 0
BBX 11 17 -1 0
BITMAP
00002FF40000
00000AF60000
000003F90000
000000BC0000
000000000000
00005BEEB200
0009FFC9FA00
007FFD11FC00
02FFF505F900
08FFD01DF300
0DFFA5DF6000
2FFFFFC40000
4FFF72000010
4FFF40000590
2FFF60005B00
0BFFE88C9000
019DFDA40000
ENDCHAR
STARTCHAR uni0451
ENCODING 1105
SWIDTH 384 0
DWIDTH 9 0
BBX 12 17 -1 0
BITMAP
00008D504C90
0000FFC0BFF2
0000AE605EB0
000000000000
000000000000
00005BEEB200
0009FFC9FA00
007FFD11FC00
02FFF505F900
08FFD01DF300
0DFFA5DF6000
2FFFFFC40000
4FFF72000010
4FFF40000590
2FFF60005B00
0BFFE88C9000
019DFDA40000
ENDCHAR
STARTCHAR uni0452
ENCODING 1106
SWIDTH 491 0
DWIDTH 12 0
BBX 14 23 -1 -6
BITMAP
00014680000000
0009FFD0000000
000CFFA0000000
012FFF82210000
08FFFFFFF40000
039FFF55510000
00AFFD01100000
00DFFAAFFD3000
01FFFFFFFFC000
04FFFA19FFE000
08FFF107FFC000
0BFFB00AFF9000
0EFF800DFF6012
2FFF501FFF3088
6FFF104FFE02E2
9FFD008FFB4D60
CFFA00BFFFC400
00004AFFF50000
000AFAFFF10000
008E26FFC00000
00C90AFF600000
00AD9FFD100000
001AEE91000000
ENDCHAR
STARTCHAR uni0453
ENCODING 1107
SWIDTH 375 0
DWIDTH 9 0
BBX 11 18 -1 0
BITMAP
000000007840
00000004FE10
0000000BF400
0000003F8000
000000AB0000
000000000000
0005CEEA2000
007FFFFFD000
03F73BFFF200
0B8007FFF200
1B101DFFC000
0005DFFE3000
01AFFFB20000
0BFFF6000000
5FFF60000660
7FFF30007900
3FFFD78D7000
05BEFD930000
ENDCHAR
STARTCHAR uni0454
ENCODING 1108
SWIDTH 384 0
DWIDTH 9 0
BBX 11 12 -1 0
BITMAP
00005BEEB200
0009FFC9FA00
007FFD11FC00
01FFF502D500
08FFE2210000
0DFFFFF80000
2FFF95520000
4FFF40000010
4FFF40000590
2FFF60005B00
0BFFE88CA100
019DFEA40000
ENDCHAR
STARTCHAR uni0455
ENCODING 1109
SWIDTH 382 0
DWIDTH 9 0
BBX 11 13 -1 0
BITMAP
0000379B0000
0000DFFF1000
0003FFFF2000
0009DFFF3000
000E6FFF4000
006B3FFF5000
00D32FFF6000
06C01FFF7000
5FF20FFF8160
BED10FFF9B30
AA004FFFC300
4F88EFF80000
05CFEB400000
ENDCHAR
STARTCHAR uni0456
ENCODING 1110
SWIDTH 267 0
DWIDTH 6 0
BBX 9 17 -1 0
BITMAP
0003DD4000
000CFFC000
000CFFC000
0004DD4000
0000000000
007FFF0000
00AFFC0000
00EFF80000
02FFF50000
05FFF20000
08FFE00000
0CFFA00000
0EFF700420
2FFF501E10
2FFF95C800
0EFFFFB000
04CEC60000
ENDCHAR
STARTCHAR uni0457
ENCODING 1111
SWIDTH 267 0
DWIDTH 6 0
BBX 9 17 -1 0
BITMAP
03CA00AC30
08FF44FF90
04EC11CE40
0000000000
0000000000
007FFF0000
00AFFC0000
00EFF80000
02FFF50000
05FFF20000
08FFE00000
0CFFA00000
0EFF700420
2FFF501E10
2FFF95C800
0EFFFFB000
04CEC60000
ENDCHAR
STARTCHAR uni0458
ENCODING 1112
SWIDTH 240 0
DWIDTH 6 0
BBX 12 23 -5 -6
BITMAP
00000006EC20
0000000EFF90
0000000EFFA0
00000006EC20
000000000000
0000007FFF00
000000AFFC00
000000DFF900
000001FFF600
000004FFF300
000008FFE000
00000BFFB000
00000EFF8001
00002FFF5078
00005FFF21D2
00009FFE0A70
0000CFFEC500
004AFFF90000
09FEFFF40000
7F55FFF10000
C80AFFA00000
AD9FFE200000
1AEEA2000000
ENDCHAR
STARTCHAR uni0459
ENCODING 1113
SWIDTH 745 0
DWIDTH 18 0
BBX 18 12 -1 0
BITMAP
00000005CFFFF20000
0000004FCAFFE00000
000000DD08FFB00000
000004F60CFF968720
000008F10EFFFFFFF4
00000CC03FFF96CFFB
00000F806FFE004FFD
02003F50AFFB004FFC
9F907F10CFF8008FF6
DFB0DC00BFF602EFC0
AF9BF5006FFD8DFC20
2BED600006CEEC6100
ENDCHAR
STARTCHAR uni045A
ENCODING 1114
SWIDTH 694 0
DWIDTH 17 0
BBX 17 12 -1 0
BITMAP
007FFF004FFE000000
00AFFC008FFB000000
00EFF800BFF8000000
02FFF500EFF6676100
05FFF424FFFFFFFD10
08FFFFFFFFE75EFF80
0BFFC44BFFA008FFA0
0EFF800CFF7008FF80
3FFF400FFF400CFF30
6FFF100EFF305FFA00
9FFD0009FFB8EFA100
CFFA00018DFDB50000
ENDCHAR
STARTCHAR uni045B
ENCODING 1115
SWIDTH 505 0
DWIDTH 12 0
BBX 14 17 -1 0
BITMAP
00014680000000
0009FFD0000000
000CFFA0000000
012FFF82210000
08FFFFFFF40000
039FFF55510000
00AFFD01100000
00DFFAAFFD3000
01FFFFFFFFC000
04FFFA19FFE000
08FFF107FFD000
0BFFB00AFF9000
0EFF800DFF6003
2FFF501FFF303D
6FFF102FFF74D5
9FFD000EFFFFA0
CFFA0003CED700
ENDCHAR
STARTCHAR uni045C
ENCODING 1116
SWIDTH 501 0
DWIDTH 12 0
BBX 14 18 -1 0
BITMAP
00000000068500
000000003FE200
00000000AF4000
00000003F80000
0000000AC00000
00000000000000
007FFF0008EE30
00AFFC01CEFF70
00DFF81CA2BC20
01FFF6CC100000
05FFFCFB950000
08FFFFFFFF2000
0BFFD42FFF5000
0EFF700FFF4004
2FFF402FFF206B
6FFF103FFF64E3
9FFD001EFFFF80
CFFA0004CFD600
ENDCHAR
STARTCHAR uni045D
ENCODING 1117
SWIDTH 505 0
DWIDTH 12 0
BBX 14 17 -1 0
BITMAP
000009FB000000
000002FE000000
000000AF200000
0000003F400000
00000000000000
007FFF008FFE00
00AFFC00BFFA00
00EFF800EFF700
02FFF503FFF400
05FFF206FFF100
08FFE009FFD000
0CFFA00DFF9000
0EFF701FFF6005
2FFF507FFF304C
2FFFA6EFFF86D4
0EFFFF5DFFFF80
04CEC404DEC500
ENDCHAR
STARTCHAR uni045E
ENCODING 1118
SWIDTH 486 0
DWIDTH 12 0
BBX 14 23 -1 -6
BITMAP
00005B70001B00
0000EFF000B900
0000EFC46CD100
00005EFFF91000
00000022000000
007FFF008FFE00
00AFFC00CFFA00
00EFF800EFF700
02FFF503FFF400
05FFF206FFF100
08FFE00AFFC000
0CFFA00DFF9000
0EFF701FFF6023
2FFF507FFF30A5
2FFF97EFFE04D0
0EFFFFEFFC6E30
04CFC5EFFFB200
00006CFFF60000
001CDAFFF20000
00AB08FFE00000
00E71EFF800000
00BFEFFD100000
002BED92000000
ENDCHAR
STARTCHAR uni045F
ENCODING 1119
SWIDTH 505 0
DWIDTH 12 0
BBX 14 18 -1 -6
BITMAP
007FFF008FFE00
00AFFC00BFFA00
00EFF800EFF700
02FFF503FFF400
05FFF206FFF100
08FFE009FFD000
0CFFA00DFF9000
0EFF701FFF6005
2FFF507FFF304C
2FFFA6EFFF86D4
0EFFFF5DFFFF80
04CEC404DEC500
000004A0000000
00002EF3000000
00005FFC000000
00002EFE000000
000007F6000000
00000360000000
ENDCHAR
STARTCHAR uni0462
ENCODING 1122
SWIDTH 659 0
DWIDTH 16 0
BBX 15 18 0 0
BITMAP
000002FFF4000000
000006FFF1000000
00001AFFD0000010
03AEFFFFFFEDDED0
3EF97FFFFFFFFF90
BFA06FFF58CEEA10
CF609FFD01100000
9F60CFFEDFFE7000
0650EFFA58FFF700
0003FFF4007FFE00
0006FFF1003FFF20
0009FFD0002FFF30
000CFFA0003FFF20
000FFF70006FFD00
003FFF4000BFF800
006FFF5838FFE200
009FFD4FFFFF5000
00CFFA08EFB40000
ENDCHAR
STARTCHAR uni0463
ENCODING 1123
SWIDTH 692 0
DWIDTH 17 0
BBX 17 12 -1 0
BITMAP
007FFE7CED40000000
00AFFFAAFFE1000000
00EFFB02FFF4000000
02FFF402FFF4120000
05FFF105FFFDFFF800
08FFD008FFE76EFF50
0BFFA00BFFA009FF90
0EFF700EFF6008FF80
3FFF401FFF300CFF30
6FFF100FFF305FFA00
9FFD000AFFB8FFA100
CFFA00019DFDA50000
ENDCHAR
STARTCHAR uni046A
ENCODING 1130
SWIDTH 834 0
DWIDTH 20 0
BBX 18 18 1 0
BITMAP
000015ADFFFFFFFFFC
0006EFFFFF87777AF3
009FC3AFFF60001D80
0AFB105FFFB0009C00
4FF2000EFFF104F300
9FB00009FFF61D8000
AF900004FFFBAD0000
6F800000EFFFF30000
04507CFFFFFFFFFE90
000AFFC48FFF45EFF6
004FFD109FFD00AFF9
00AFF800DFF900AFF8
00DFF401FFF600DFF5
01FFF104FFF303FFF1
04FFE007FFF007FFC0
08FFB00AFFC00BFF80
0DFF700DFF900CFF80
9FFA001FFF5006EFC1
ENDCHAR
STARTCHAR uni046B
ENCODING 1131
SWIDTH 750 0
DWIDTH 18 0
BBX 15 12 1 0
BITMAP
0017CEFFFFFFFD10
03EFCEFFD777E400
0EF808FFE1078000
2FE002FFF53C0000
0BD100BFFAC30000
0019EFFFFFFFE910
00BFF86FFE3BFF80
03FFC07FFB08FF90
06FF80AFF80BFF70
09FF50DFF50EFF30
0DFF22FFF13FFE00
7FE705FFD02EFF20
ENDCHAR
STARTCHAR uni0472
ENCODING 1138
SWIDTH 665 0
DWIDTH 16 0
BBX 16 18 0 0
BITMAP
0000026BDEFD9200
00029FFB879EFE40
004EF8159912EFE1
05FF40BFF400AFF6
1EF709FF80008FF9
6FE04FFE10007FFB
9FA0CFF900008FFB
6F93FFF300009FF9
0669FFE9FD64DFF8
000DFFD57EFCFFF4
001FFF600144FFF1
004FFF400009FFB0
005FFF30000EFF50
006FFF20006FFC00
005FFF3001EFF300
001FFF600BFF6000
0008FFE8CFE50000
00006CFEC8100000
ENDCHAR
STARTCHAR uni0473
ENCODING 1139
SWIDTH 439 0
DWIDTH 11 0
BBX 15 12 -1 0
BITMAP
00004BEEB2000000
0008FFC8EC000000
006FFD10BF300330
01EFF604FF86BC20
08FFE003EFEA5000
0DFFAAA3DF200000
2FFFCCFFFE000000
4FFF4038FA000000
5FFF400DF5000000
3FFF93AFB0000000
0CFFFFFC10000000
018DFD7100000000
ENDCHAR
STARTCHAR uni0474
ENCODING 1140
SWIDTH 668 0
DWIDTH 16 0
BBX 18 18 0 0
BITMAP
000016BDF800006DE7
0007EDFFF80006FF90
01BF71FFF9001EFD00
0BF700FFF9007FF400
6FD000FFF900CFB000
BF9000EFF902FF4000
CF7000EFF906FD0000
8F6000EFFA0AF60000
055000DFFA0EF10000
000000DFFA2FA00000
000000DFFA5F400000
000000CFFB9E000000
000000CFFBC9000000
000000CFFBF3000000
000000BFFED0000000
000000BFFF90000000
000000AFFF40000000
000000AFFE00000000
ENDCHAR
STARTCHAR uni0475
ENCODING 1141
SWIDTH 414 0
DWIDTH 10 0
BBX 11 12 -1 0
BITMAP
007FFF03ED20
00AFFC04FF80
00EFF8002D80
02FFF5000E70
05FFF2003F40
08FFE0008F10
0BFFA000DB00
0EFF7006F500
2FFF402ED000
2FFF96DF3000
0EFFFFF60000
03CEEA300000
ENDCHAR
STARTCHAR uni0490
ENCODING 1168
SWIDTH 431 0
DWIDTH 10 0
BBX 16 21 0 0
BITMAP
0000000000000050
00000000000000D4
00000000000019F7
00016ADEFFFFFFF5
006EFEFFFFFFFFD1
06FB27FFE7ACC910
1FF10BFFB0000000
7FB00EFF80000000
9F902FFF50000000
AF805FFF10000000
6F808FFD00000000
0450CFFA00000000
0000FFF700000000
0003FFF400000000
0006FFF100000000
000AFFC000000000
000DFF9000000000
001FFF6000000000
004FFF3000000000
007FFE0000000000
00BFFB0000000000
ENDCHAR
STARTCHAR uni0491
ENCODING 1169
SWIDTH 342 0
DWIDTH 8 0
BBX 11 14 -1 0
BITMAP
00000002DC00
00000003FF10
007FFFFFF800
00AFFC763000
00EFF8000000
02FFF5000000
05FFF1000000
08FFD0000000
0BFFA0000000
0EFF70000000
3FFF40000000
6FFF10000000
9FFD00000000
CFFA00000000
ENDCHAR
STARTCHAR uni0492
ENCODING 1170
SWIDTH 400 0
DWIDTH 10 0
BBX 16 18 0 0
BITMAP
000059CEFFFFFFF2
004DFEFFFFFFFFC0
05FE44FFF79BCB30
1EF607FFF0000000
6FF10AFFC0000000
9FD00DFF90000000
AFC01FFF60000000
7FC04FFF30000000
08B07FFF00000000
0000AFFC00000000
00DFFFFFFF100000
0034FFF733000000
0005FFF200000000
0009FFD000000000
000CFFA000000000
001FFF7000000000
004FFF3000000000
007FFF0000000000
ENDCHAR
STARTCHAR uni0493
ENCODING 1171
SWIDTH 375 0
DWIDTH 9 0
BBX 11 12 -1 0
BITMAP
0006CFEB3000
009FFFFFE100
06E63AFFF200
1E4009FFE000
14228FFF6100
6FFFFFFFF700
38FFFD555200
1EFFC1000130
6FFF40000A30
7FFF40009600
3FFFD88D5000
04BEFD920000
ENDCHAR
STARTCHAR uni0494
ENCODING 1172
SWIDTH 665 0
DWIDTH 16 0
BBX 16 19 0 -1
BITMAP
000059CEFFFFFFF2
004DFEFFFFFFFFC0
05FE44FFF79BCB30
1EF607FFF0000000
6FF10AFFC0000000
9FD00EFF90000000
AFC02FFF60000000
8FC05FFF67973000
1AC08FFFFFFFF700
0000BFFC215FFF30
0000EFF8000AFF80
0003FFF50008FFB0
0006FFF10007FFB0
0009FFD00009FFA0
000CFFA0000CFF60
001FFF60004FFE10
004FFF4735EFF700
007FFF2FFFFF9000
00000007EEC50000
ENDCHAR
STARTCHAR uni0495
ENCODING 1173
SWIDTH 486 0
DWIDTH 12 0
BBX 14 18 -1 -6
BITMAP
005DEFFFFFF900
00AFFFFFFFF400
00DFFA6ACC7000
01FFF500000000
04FFF5BFD60000
08FFFFFFFF2000
0BFFC25FFF5000
0EFF700FFF5023
2FFF403FFF20B5
6FFF106FFD04D0
9FFD00AFF96D30
CFFA00DFFEA100
00006DFFF20000
001BEBFFD00000
009E27FF900000
00D70CFF400000
00CBAFFB000000
003BED81000000
ENDCHAR
ENDFONT
